<?xml version="1.0" standalone="no"?>
<!DOCTYPE svg PUBLIC "-//W3C//DTD SVG 1.1//EN" "http://www.w3.org/Graphics/SVG/1.1/DTD/svg11.dtd" >
<svg>
<metadata>
Created by FontForge 20090622 at Fri Dec 21 10:49:09 2018
 By ffonts
(c) Copyright 2001 by Tom Truong. All Rights Reserved
</metadata>
<defs>
<font id="UVNSangSong" horiz-adv-x="909" >
  <font-face 
    font-family="UVN Sang Song"
    font-weight="400"
    font-style="italic"
    font-stretch="normal"
    units-per-em="2048"
    panose-1="3 3 6 2 3 6 7 9 11 5"
    ascent="1638"
    descent="-410"
    x-height="690"
    cap-height="1389"
    bbox="-1690 -647 1978 2340"
    underline-thickness="63"
    underline-position="-266"
    slope="-30"
    unicode-range="U+0020-U+F002"
  />
<missing-glyph horiz-adv-x="1024" 
d="M128 0v2340h768v-2340h-768zM256 128h512v2084h-512v-2084z" />
    <glyph glyph-name=".notdef" horiz-adv-x="1024" 
d="M128 0v2340h768v-2340h-768zM256 128h512v2084h-512v-2084z" />
    <glyph glyph-name=".null" horiz-adv-x="0" 
 />
    <glyph glyph-name="nonmarkingreturn" horiz-adv-x="512" 
 />
    <glyph glyph-name="space" unicode=" " horiz-adv-x="512" 
 />
    <glyph glyph-name="exclam" unicode="!" horiz-adv-x="682" 
d="M-145 260q216 345 333 620q68 160 131 160q68 0 68 -71q0 -52 -112 -175q-159 -175 -408 -544zM-260 145q33 0 56.5 -23t23.5 -56q0 -34 -23 -57t-57 -23q-33 0 -57.5 23.5t-24.5 56.5q0 32 25 55.5t57 23.5z" />
    <glyph glyph-name="quotedbl" unicode="&#x22;" horiz-adv-x="666" 
d="M508 870h-29l-57 453q-4 32 -4 45q0 94 76 94q77 0 77 -94q0 -14 -4 -45zM186 870h-28l-60 453q-4 30 -4 45q0 94 78 94q76 0 76 -94q0 -13 -4 -44z" />
    <glyph glyph-name="numbersign" unicode="#" horiz-adv-x="1575" 
d="M700 877l-108 -304h301l106 304h-299zM809 1454h94l-174 -498h299l176 498h96l-176 -498h322l-27 -79h-323l-107 -304h348l-28 -79h-348l-175 -494h-96l174 494h-301l-174 -494h-94l174 494h-340l31 79h338l106 304h-368l28 79h369z" />
    <glyph glyph-name="dollar" unicode="$" horiz-adv-x="1024" 
d="M262 618l256 406q-48 12 -86 12q-103 0 -165 -68.5t-62 -172.5q0 -80 57 -177zM207 494l-293 -457q55 -19 119 -19q111 0 185.5 70t74.5 180q0 115 -86 226zM641 1178l-84 -127q176 -57 176 -199q0 -59 -38 -101t-97 -42q-11 0 -33 4q68 62 68 145q0 87 -94 158
l-265 -420q125 -167 125 -264q0 -99 -74 -191q-71 -88 -168 -120q-68 -23 -151 -23q-54 0 -108 12l-78 -131l-23 12l82 123q-91 25 -148 84q-63 65 -63 154q0 78 54 138.5t131 60.5q29 0 65 -17q-64 -17 -100.5 -71.5t-36.5 -122.5q0 -116 115 -195l294 467q-90 140 -90 236
q0 139 111 229q104 84 246 84q35 0 75 -6l86 135z" />
    <glyph glyph-name="percent" unicode="%" horiz-adv-x="1593" 
d="M954 571q-46 0 -88 -20.5t-88 -67.5q-198 -200 -198 -379q0 -98 82 -98q43 0 89 30q84 54 179 202q100 154 100 247q0 86 -76 86zM498 170q0 154 146 286q142 128 298 128q170 0 170 -164q0 -145 -152 -287.5t-298 -142.5q-78 0 -122 52q-42 49 -42 128zM297 1034
q-132 0 -261 -176q-122 -164 -122 -301q0 -96 82 -96q38 0 88 31q97 60 186 200q92 146 92 254q0 88 -65 88zM-16 -88l792 1020q-96 -88 -188 -88q-76 0 -137 65q-5 -126 -86 -242q-76 -108 -193 -171q-93 -50 -168 -50q-176 0 -176 183q0 153 154 291q150 133 305 133
q84 0 152.5 -98.5t146.5 -98.5q52 0 118 39.5t109 97.5q68 92 94 92q31 0 31 -30q0 -24 -35 -66l-907 -1087z" />
    <glyph glyph-name="ampersand" unicode="&#x26;" horiz-adv-x="1706" 
d="M90 676q-213 -139 -213 -322q0 -126 73 -216q79 -97 202 -97q80 0 174 63q-133 118 -187 257q-49 125 -49 315zM213 741q116 41 206 117q111 95 111 197q0 86 -81 86q-80 0 -151 -114t-85 -286zM1241 219q-220 -260 -520 -260q-191 0 -377 131q-155 -104 -289 -104
q-135 0 -222 84t-87 219q0 256 344 408q10 107 44 188q46 107 148 194q112 95 220 95q58 0 98.5 -34t40.5 -91q0 -106 -167 -206q-58 -34 -261 -122q6 -318 213 -535q90 88 188 201q114 133 151 166q103 92 196 92q56 0 95 -29q44 -32 44 -86q0 -47 -51 -102
q-39 111 -144 111q-87 0 -248 -148l-217 -221q194 -158 375 -158q214 0 414 217z" />
    <glyph glyph-name="quotesingle" unicode="'" horiz-adv-x="342" 
d="M184 870h-28l-60 454q-2 15 -2 44q0 94 76 94q78 0 78 -94q0 -14 -4 -44z" />
    <glyph glyph-name="parenleft" unicode="(" horiz-adv-x="797" 
d="M776 1368q-435 -230 -743 -625q-304 -388 -434 -869q-67 -250 -77 -472h-11q-3 115 -3 147q0 462 233 904t615 703q185 127 418 220z" />
    <glyph glyph-name="parenright" unicode=")" horiz-adv-x="797" 
d="M-825 -594q438 232 745 627q303 388 433 873q67 249 75 470h12q4 -164 4 -149q0 -465 -232 -905.5t-615 -703.5q-187 -128 -418 -220z" />
    <glyph glyph-name="asterisk" unicode="*" horiz-adv-x="1024" 
d="M463 1167l-216 101q-32 15 -32 41q0 16 13.5 34.5t29.5 18.5q20 0 35 -14l178 -168zM473 1145l-162 -172q-22 -23 -39 -23q-18 0 -33.5 18t-15.5 36q0 19 27 34l215 119zM500 1149l112 -208q11 -20 11 -32q0 -45 -58 -45q-28 0 -35 40l-45 241zM506 1174l232 43
q11 2 16 2q45 0 45 -48q0 -52 -49 -45l-244 33v15zM481 1186l31 236q6 46 43 46q53 0 53 -41q0 -11 -6 -24l-104 -221z" />
    <glyph glyph-name="plus" unicode="+" horiz-adv-x="1706" 
d="M813 1221h80v-570h559v-82h-559v-569h-80v569h-559v82h559v570z" />
    <glyph glyph-name="comma" unicode="," horiz-adv-x="512" 
d="M-612 -250q253 28 303 256q-29 -12 -35 -12q-62 0 -62 67q0 82 78 82t78 -96q0 -54 -41 -123q-103 -174 -319 -190z" />
    <glyph glyph-name="hyphen" unicode="-" horiz-adv-x="682" 
d="M102 383h-460l45 63h450z" />
    <glyph glyph-name="hyphen" unicode="&#x2010;" horiz-adv-x="682" 
d="M102 383h-460l45 63h450z" />
    <glyph glyph-name="period" unicode="." horiz-adv-x="512" 
d="M-326 145q33 0 56.5 -23t23.5 -56q0 -34 -23 -57t-57 -23q-33 0 -57.5 23.5t-24.5 56.5q0 32 25 55.5t57 23.5z" />
    <glyph glyph-name="slash" unicode="/" horiz-adv-x="569" 
d="M303 1446l100 -4l-616 -1630l-98 4z" />
    <glyph glyph-name="zero" unicode="0" horiz-adv-x="1024" 
d="M350 1018q-68 0 -167 -69q-155 -109 -259 -312.5t-104 -392.5q0 -226 166 -226q67 0 157 57q160 103 276 313t116 400q0 230 -185 230zM440 1059q108 0 169 -74q57 -69 57 -180q0 -127 -63 -262q-90 -191 -282 -365q-219 -196 -403 -196q-112 0 -171 85q-52 74 -52 191
q0 206 167 429q153 205 352 307q127 65 226 65z" />
    <glyph glyph-name="one" unicode="1" horiz-adv-x="1024" 
d="M596 1061l-522 -817q-55 -86 -125 -221l-170 -29l573 887q-232 -149 -413 -195l-7 25q379 110 656 358z" />
    <glyph glyph-name="two" unicode="2" horiz-adv-x="1024" 
d="M477 315q-215 -335 -403 -335q-63 0 -190.5 63t-174.5 63q-72 0 -139.5 -60t-77.5 -60q-7 0 -11.5 3t-4.5 7q0 22 101 90q98 65 269 152l320 156q190 105 263 227q50 83 50 165q0 96 -56 162q-59 70 -153 70q-98 0 -175 -62q-81 -67 -81 -163q0 -136 113 -136q49 0 92 37
l4 -4q-64 -119 -153 -119q-59 0 -100.5 43.5t-41.5 102.5q0 65 40 134q55 93 155 148q97 54 207 54q119 0 195 -64q81 -68 81 -184q0 -177 -179 -310q-112 -83 -337 -170q-254 -98 -397 -194v-4q66 39 137 39q66 0 185.5 -51.5t170.5 -51.5q110 0 277 261z" />
    <glyph glyph-name="three" unicode="3" horiz-adv-x="1024" 
d="M340 768q-49 -102 -147 -102q-113 0 -113 118q0 121 113 205q103 76 229 76q101 0 169 -55q73 -60 73 -158q0 -114 -129 -199.5t-336 -99.5v-2q38 2 26 2q94 0 152.5 -58.5t58.5 -152.5q0 -165 -177 -271q-152 -91 -329 -91q-136 0 -235 61q-117 73 -117 201
q0 73 50 129.5t122 56.5q81 0 144 -59l-3 -7q-30 17 -59 17q-61 0 -102 -62q-37 -56 -37 -120q0 -99 81 -153q70 -46 173 -46q141 0 253.5 103.5t112.5 242.5q0 86 -55 139.5t-141 53.5q-32 0 -105 -10l1 20q198 1 336 57q192 79 192 248q0 79 -50 128.5t-129 49.5
q-76 0 -134 -45q-62 -49 -62 -123q0 -46 29 -86q32 -43 77 -43q33 0 60 39z" />
    <glyph glyph-name="four" unicode="4" horiz-adv-x="1024" 
d="M692 1028l-395 -625h248l-21 -28h-243l-222 -355l-155 -22l241 375l-536 -6l995 845l68 9l-1004 -830l494 10l403 609z" />
    <glyph glyph-name="five" unicode="5" horiz-adv-x="1024" 
d="M768 1036q-137 -155 -272 -155q-73 0 -154 51l-344 -348q111 41 195 41q245 0 245 -219q0 -175 -165 -304q-155 -120 -334 -120q-127 0 -222 62q-108 71 -108 192q0 85 54 141.5t138 56.5q64 0 113 -51l-4 -6q-16 4 -29 4q-70 0 -112 -56q-39 -50 -39 -122q0 -95 57 -150
t152 -55q157 0 267 124q105 120 105 279q0 195 -174 195q-86 0 -219 -76l-12 12l510 517q54 -74 172 -74q103 0 170 69z" />
    <glyph glyph-name="six" unicode="6" horiz-adv-x="1024" 
d="M268 770q-49 0 -115 -40q-130 -78 -210 -233q-78 -149 -78 -304q0 -195 133 -195q105 0 226 153q97 123 143 250q36 99 36 185q0 184 -135 184zM1073 1049q6 44 6 65q0 97 -80 156q-71 53 -172 53q-247 0 -507 -262q-192 -193 -347 -477l4 -2q150 219 345 219
q90 0 145 -55.5t55 -145.5q0 -166 -125 -336q-114 -157 -272 -240q-94 -49 -162 -49q-107 0 -165 82q-50 72 -50 183q0 179 118 393q156 282 437 491q311 232 604 232q90 0 158 -35q86 -43 86 -125q0 -84 -78 -147z" />
    <glyph glyph-name="seven" unicode="7" horiz-adv-x="1024" 
d="M459 464h-101l-528 -693l-188 -23l633 716h-276l45 63h287l410 464l-4 6q-126 -112 -239 -112q-64 0 -166 45t-131 45q-74 0 -142.5 -92t-76.5 -92q-15 0 -15 14q0 21 45 59q20 17 58 54l96 180l22 -11l-86 -137q111 101 205 101q50 0 144 -43t145 -43q106 0 197 104
l16 -12l-403 -530h88z" />
    <glyph glyph-name="eight" unicode="8" horiz-adv-x="1024" 
d="M165 676q-162 -3 -258 -85q-102 -88 -102 -247q0 -134 67 -229q75 -107 204 -107q107 0 165 87q50 76 50 188q0 164 -126 393zM424 594q258 47 258 309q0 118 -53 205q-63 102 -174 102q-105 0 -167 -92q-55 -80 -55 -190q0 -120 82 -301t82 -287q0 -85 -30 -150
q-44 -92 -145.5 -152.5t-205.5 -60.5q-139 0 -228 91.5t-89 230.5q0 188 141 295q129 98 322 98q-41 113 -41 197q0 155 108 251q104 93 260 93q134 0 216.5 -81t82.5 -214q0 -141 -112 -243q-103 -95 -248 -115z" />
    <glyph glyph-name="nine" unicode="9" horiz-adv-x="1024" 
d="M324 1022q-104 0 -222 -144q-97 -119 -140 -241q-34 -96 -34 -191q0 -182 131 -182q49 0 119 47q121 80 197 229t76 296q0 186 -127 186zM-887 -103q2 -149 82 -236q83 -91 230 -91q275 0 564 332q197 225 376 571q-210 -252 -371 -252q-193 0 -193 217q0 152 125 323
q115 158 260 237q95 51 166 51q219 0 219 -256q0 -181 -145 -449q-168 -310 -443 -539q-320 -266 -626 -266q-122 0 -216 52q-114 63 -114 176q0 89 86 130z" />
    <glyph glyph-name="colon" unicode=":" horiz-adv-x="512" 
d="M-274 135q33 0 56 -23.5t23 -56.5q0 -34 -22.5 -58t-56.5 -24q-33 0 -57.5 24.5t-24.5 57.5t24.5 56.5t57.5 23.5zM0 717q33 0 56.5 -23.5t23.5 -56.5q0 -34 -23 -57t-57 -23q-33 0 -56.5 23.5t-23.5 56.5t23.5 56.5t56.5 23.5z" />
    <glyph glyph-name="semicolon" unicode=";" horiz-adv-x="512" 
d="M-543 -250q257 28 305 256q-26 -12 -36 -12q-62 0 -62 67q0 35 22.5 58.5t57.5 23.5q78 0 78 -96q0 -54 -42 -123q-105 -174 -320 -190zM0 717q33 0 56.5 -23.5t23.5 -56.5q0 -34 -23 -57t-57 -23q-33 0 -56.5 23.5t-23.5 56.5t23.5 56.5t56.5 23.5z" />
    <glyph glyph-name="less" unicode="&#x3c;" horiz-adv-x="1706" 
d="M1442 1124v-90l-1045 -424l1045 -424v-88l-1178 482v61z" />
    <glyph glyph-name="equal" unicode="=" horiz-adv-x="1706" 
d="M254 469h1198v-82h-1198v82zM254 831h1198v-79h-1198v79z" />
    <glyph glyph-name="greater" unicode="&#x3e;" horiz-adv-x="1706" 
d="M264 1124l1178 -483v-61l-1178 -482v88l1045 424l-1045 424v90z" />
    <glyph glyph-name="question" unicode="?" 
d="M-74 242q59 87 211 175q182 104 229 149q107 100 107 253q0 91 -55.5 148t-145.5 57q-118 0 -203 -81.5t-85 -199.5q0 -168 118 -168q77 0 166 91l8 -13q-90 -96 -192 -96q-74 0 -120 46t-46 120q0 130 136 236q127 98 261 98q114 0 187 -58q80 -63 80 -174
q0 -226 -353 -385q-223 -100 -290 -207zM-170 145q33 0 56.5 -23t23.5 -56q0 -34 -23 -57t-57 -23q-33 0 -57.5 23.5t-24.5 56.5q0 32 25 55.5t57 23.5z" />
    <glyph glyph-name="at" unicode="@" horiz-adv-x="2019" 
d="M1194 344q-118 -217 -317 -217q-127 0 -199 106q-62 93 -62 226q0 189 143 362q151 183 335 183q172 0 219 -201l57 184h121l-168 -604q-20 -72 -20 -109q0 -110 104 -110q48 0 108 29q148 71 236 242q82 159 82 333q0 304 -207 479q-194 164 -504 164q-390 0 -634 -260
q-240 -255 -240 -647q0 -175 56 -301q91 -208 317 -329q207 -112 448 -112q348 0 623 209l26 -30q-295 -220 -649 -220q-191 0 -342 45q-265 80 -421 288t-156 483q0 388 290 654q282 259 674 259q332 0 538 -174q220 -185 220 -510q0 -330 -221 -530q-123 -111 -252 -111
q-193 0 -205 219zM1090 971q-57 0 -104 -31q-98 -64 -179 -253q-76 -178 -76 -306q0 -89 36 -147q44 -68 128 -68q156 0 276 217q105 189 105 360q0 88 -48 154q-53 74 -138 74z" />
    <glyph glyph-name="A" unicode="A" horiz-adv-x="1479" 
d="M1118 1346q-326 -162 -760 -715h205q219 389 555 715zM1266 1427l10 -10q-278 -308 -475 -610q-285 -435 -285 -698q0 -93 72 -93q103 0 310 215q133 138 261 310l12 -11q-404 -553 -645 -553q-131 0 -131 170q0 184 160 469h-209q-212 -268 -356 -399
q-255 -235 -457 -235q-70 0 -118 26q-62 32 -62 96q0 35 20.5 62t55.5 27q59 0 59 -64q0 -41 -35 -68q37 -41 127 -41q194 0 467 276q83 84 371 437q456 559 848 694z" />
    <glyph glyph-name="B" unicode="B" horiz-adv-x="1821" 
d="M1427 1423v-18q-141 -20 -249 -100q122 -96 122 -240q0 -150 -122 -252q-108 -90 -265 -111h27q116 0 186 -60q74 -63 74 -177q0 -202 -145.5 -345t-347.5 -143q-94 0 -160 39q-78 47 -78 136q0 55 31.5 93t85.5 38q31 0 61 -25q-63 -36 -63 -127q0 -135 151 -135
q141 0 247 149q97 136 97 283q0 110 -46 180q-55 82 -159 82q-25 0 -85 -10l16 25h24q148 0 255.5 113.5t107.5 262.5q0 105 -64 181q-136 -114 -412 -600q-181 -317 -310 -456q-220 -235 -476 -235q-80 0 -144 32q-81 40 -81 112q0 33 24.5 57.5t57.5 24.5q29 0 52.5 -19
t23.5 -47q0 -72 -69 -64q32 -79 153 -79q140 0 269.5 127t365.5 534l134 227q80 127 153 215q108 129 229 205q-107 95 -348 95q-254 0 -478 -124q-233 -130 -346 -348q-67 -132 -67 -266q0 -123 56 -208q64 -99 181 -99q134 0 233 124t99 298q0 57 -16 129l14 2
q18 -59 18 -129q0 -178 -94 -306q-104 -142 -276 -142q-138 0 -218 92q-75 87 -75 227q0 142 86 289q134 230 392 359q241 120 521 120q205 0 367 -80q104 62 280 94z" />
    <glyph glyph-name="C" unicode="C" horiz-adv-x="1366" 
d="M553 1122l12 -2q-6 -28 -6 -55q0 -70 47 -112q44 -40 115 -40q120 0 228 110.5t108 231.5q0 68 -46.5 105t-115.5 37q-135 0 -319 -108q-261 -152 -454 -420q-214 -295 -214 -570q0 -136 58 -219q68 -96 198 -96q167 0 317 157.5t150 325.5q0 76 -39 128q-43 58 -117 58
q-95 0 -171 -80q-65 -66 -99 -167l-15 6q41 111 114 182q85 82 192 82q95 0 155 -56t60 -151q0 -201 -198 -361q-188 -151 -394 -151q-164 0 -257 101q-91 98 -91 264q0 160 107 358q105 195 286 367q178 171 379 271q194 97 342 97q102 0 166 -49q71 -55 71 -154
q0 -136 -119 -233q-112 -90 -251 -90q-84 0 -142 40q-65 45 -65 126q0 16 8 67z" />
    <glyph glyph-name="D" unicode="D" horiz-adv-x="1821" 
d="M1128 1253q-113 -124 -329 -517q-170 -310 -269 -430q-174 -213 -409 -288q156 -24 246 -24q281 0 492 175q194 161 295 440q65 178 65 341q0 170 -91 303zM1503 1468v-16q-196 -32 -360 -178q166 -168 166 -447q0 -181 -76 -344q-115 -248 -355 -381
q-224 -125 -509 -125q-166 0 -281 25q-94 -25 -156 -25q-161 0 -161 56q0 28 55 28q104 0 252 -36q162 47 263 169t294 472q132 240 198 335q119 174 263 285q-181 131 -391 131q-233 0 -450 -131q-223 -135 -316 -344q-54 -123 -54 -274q0 -128 49 -212q60 -102 179 -102
q143 0 256 118q96 101 142 254q28 91 28 235l20 2q2 -22 2 -64q0 -209 -129 -384q-141 -191 -342 -191q-142 0 -221 103q-70 92 -70 239q0 236 183 443q166 186 405 273q154 56 311 56q230 0 416 -138q184 143 389 168z" />
    <glyph glyph-name="E" unicode="E" horiz-adv-x="1366" 
d="M578 956l4 13q60 -15 90 -15q103 0 179.5 78.5t76.5 181.5q0 86 -53.5 139.5t-139.5 53.5q-108 0 -189 -60.5t-104 -155.5q-7 -28 -15 -167q-6 -99 -43 -151t-150 -105q-184 -88 -253 -153q-108 -103 -108 -267q0 -158 100.5 -254t259.5 -96q164 0 293 101
q140 109 140 268q0 78 -43.5 126t-120.5 48q-123 0 -273 -179l-12 9q153 194 342 194q88 0 143 -44q60 -48 60 -134q0 -138 -137 -254q-115 -96 -267 -138q-98 -26 -208 -26q-177 0 -287 76q-127 88 -127 258q0 173 132 287q61 53 253 150q146 73 164 137q5 19 11 141
q5 118 42 188q57 106 176 164q109 53 238 53q105 0 179 -48q85 -56 85 -156q0 -122 -108 -204q-98 -75 -224 -75q-50 0 -106 16z" />
    <glyph glyph-name="F" unicode="F" horiz-adv-x="1593" 
d="M1362 1257q-4 0 -28 1q-218 6 -318 6q-346 0 -541 -37q-323 -60 -472 -234q-81 -95 -81 -186q0 -100 93 -157q79 -48 186 -48q173 0 318 102q161 113 161 279q0 42 -23 90l12 4q27 -48 27 -100q0 -171 -171 -298q-158 -116 -335 -116q-119 0 -197 54q-89 62 -89 176
t85 221q84 104 247 188q311 160 829 160q236 0 426 -10q81 -4 70 -4q15 0 45 3t45 3q104 0 104 -43q0 -68 -164 -68q-18 0 -53 2t-53 2q-173 0 -313 -126.5t-318 -454.5q74 5 113 10q90 10 106 24l38 50t69 24q34 0 65 -4q-184 -169 -295 -342l-14 10q42 90 114 225
q-91 -10 -208 -14q-180 -321 -343 -466q-223 -199 -526 -199q-127 0 -219 57q-108 68 -108 188q0 109 92 109q76 0 76 -76q0 -72 -60 -72q2 0 -24 8q24 -200 274 -200q347 0 713 651l-86 2l6 15h88q140 240 260 364q168 174 377 227z" />
    <glyph glyph-name="G" unicode="G" horiz-adv-x="1251" 
d="M428 1186q123 -121 326 -121q149 0 252.5 71t103.5 164q0 103 -156 103q-245 0 -526 -217zM440 1593l11 -12q-111 -73 -111 -203q0 -87 51 -147q305 186 572 186q229 0 229 -139q0 -92 -116 -163t-283 -71q-249 0 -375 132q-135 -112 -231 -254q-119 -173 -119 -314
q0 -80 43 -135q47 -59 125 -59q75 0 180 56t143 116q86 137 86 138q63 81 131 81q41 0 41 -23q0 -22 -58 -97q-76 -98 -79 -103q-146 -238 -221 -327q-140 -166 -312 -235q-123 -49 -243 -49q-125 0 -219 67q-105 75 -105 195q0 54 25 92q29 44 80 44q82 0 82 -72
q0 -31 -21.5 -51.5t-52.5 -20.5q-9 0 -37 6q-4 -34 -4 -36q0 -96 83 -154q73 -51 173 -51q177 0 363 192q108 112 257 342q-193 -141 -350 -141q-104 0 -171 59q-70 61 -70 164q0 166 149 353q122 153 291 264q-53 67 -53 155q0 134 116 215z" />
    <glyph glyph-name="H" unicode="H" horiz-adv-x="1706" 
d="M549 696h280q205 319 464.5 518t449.5 199q112 0 112 -84q0 -28 -18 -50t-45 -22q-34 0 -61 57.5t-82 57.5q-99 0 -266 -138q-163 -134 -316 -353q-146 -208 -230 -416q-83 -204 -83 -332q0 -113 88 -113q181 0 549 523l14 -8q-158 -231 -268 -347q-200 -213 -359 -213
q-155 0 -155 183q0 187 194 520h-282q-170 -298 -302 -444q-221 -244 -452 -244q-76 0 -133 26q-74 34 -74 101q0 84 84 84q68 0 68 -70q0 -52 -64 -60q19 -65 131 -65q68 0 133 39q115 68 297 345l250 405q187 289 343.5 419t352.5 172q-567 -8 -893.5 -146.5
t-326.5 -365.5q0 -75 45.5 -119t120.5 -44q116 0 209 69q102 76 102 189q0 46 -23 96l13 4q26 -63 26 -104q0 -126 -118 -206q-104 -71 -236 -71q-99 0 -167 51q-75 56 -75 152q0 195 250 328t690 170q90 7 230 10q53 0 158 8q12 2 78 17q50 12 75 12q29 0 29 -19
q0 -22 -60 -27q-147 -13 -239 -67q-145 -84 -290 -281q-87 -118 -218 -346z" />
    <glyph glyph-name="I" unicode="I" horiz-adv-x="1251" 
d="M-131 -27q-134 0 -228 54q-114 66 -114 190q0 115 90 115q78 0 78 -72q0 -76 -63 -76q-7 0 -15 2q24 -198 254 -198q204 0 401 215q123 134 314 455l28 47q315 529 633 636q-528 -5 -841.5 -140t-313.5 -347q0 -77 49.5 -129.5t126.5 -52.5q112 0 206 75q101 80 101 189
q0 24 -16 86l14 6q17 -58 17 -96q0 -122 -114 -204q-103 -73 -230 -73q-108 0 -177 58q-73 62 -73 168q0 124 122 230q283 245 1156 245h6q38 10 75 21q46 12 77 12q38 0 38 -19q0 -30 -87 -35h-109q-11 -1 -46 -23q-163 -102 -451 -562q-248 -397 -361 -517
q-245 -260 -547 -260z" />
    <glyph glyph-name="J" unicode="J" horiz-adv-x="1251" 
d="M160 53q-96 -19 -302 -49q-277 -41 -402 -88q-247 -95 -247 -278q0 -99 67 -155q62 -52 163 -52q210 0 424 221q132 136 297 401zM1168 1325q-131 -60 -452 -556q-119 -186 -401 -663q374 84 611 424l14 -6q-233 -346 -637 -442q-389 -670 -872 -670q-128 0 -212 54
q-100 63 -100 184q0 128 114 209q97 70 302 113q101 22 326 50q196 25 311 50q182 332 322 560q149 243 248 365q193 237 395 326q-396 -14 -678 -95q-457 -132 -457 -409q0 -78 46 -125t124 -47q113 0 206 71q101 77 101 187q0 21 -16 86l12 4q19 -57 19 -88
q0 -130 -116 -212q-104 -74 -239 -74q-100 0 -166.5 62.5t-66.5 162.5q0 229 310 353q247 99 714 132q74 5 154 9q27 -1 81 3q36 13 102 31q48 10 81 10q32 0 32 -18q0 -37 -212 -41z" />
    <glyph glyph-name="K" unicode="K" horiz-adv-x="1821" 
d="M1520 528q-444 -548 -682 -548q-129 0 -129 122q0 75 86 248.5t86 239.5q0 43 -24 77q-28 38 -69 38q-8 0 -23.5 -3.5t-23.5 -3.5q-32 0 -32 21q0 12 26 12q13 0 38 -4t38 -4q146 0 331 178l319 332q192 178 354 178q57 0 99 -23q52 -29 52 -81q0 -39 -24 -67t-62 -28
q-5 0 -22 1q24 39 24 73q0 103 -94 103q-93 0 -237 -174q-218 -262 -291 -325q-203 -176 -436 -180q132 -71 132 -200q0 -73 -71.5 -236t-71.5 -211q0 -25 20 -43t46 -18q181 0 626 535zM410 1012q34 -51 34 -101q0 -109 -108.5 -197.5t-255.5 -88.5q-103 0 -169 55
q-71 59 -71 160q0 86 71 177.5t193 158.5q269 149 985 197q72 2 186 17q105 31 142 31q31 0 31 -16q0 -24 -80 -36q-50 -4 -100 -9q-177 -18 -391 -330q-54 -78 -211 -335q-196 -318 -316 -454q-232 -261 -456 -261q-79 0 -133 29q-66 37 -66 110q0 84 78 84q69 0 69 -72
q0 -49 -51 -61q24 -76 113 -76q141 0 282 180q71 91 239 362l128 203q210 328 353 456q147 131 323 171q-435 -22 -752 -110q-528 -146 -528 -435q0 -178 162 -178q114 0 210 81q101 84 101 196q0 42 -25 86z" />
    <glyph glyph-name="L" unicode="L" horiz-adv-x="1139" 
d="M461 895q-174 -313 -309 -483q-218 -275 -439 -349q68 5 74 5q114 0 196 -43q103 -54 103 -158q0 -8 -2 -22.5t-2 -20.5q144 179 567 563l162 148l10 -11l-347 -319q-201 -188 -331 -335q-26 -28 -71 -87q-15 -30 -61 -85q-37 -30 -77 -30q-16 0 -16 15q0 2 51 53
q6 26 6 51q0 116 -91 191q-86 69 -204 71q-192 -74 -276 -74q-51 0 -51 21q0 31 83 50q61 14 183 20q23 -1 66 2q61 9 145 75q118 91 330 453q123 211 196 317q-122 18 -212 93q-103 85 -103 200q0 100 64 157q62 54 163 54q63 0 121 -31l-6 -14q-52 29 -121 29
q-87 0 -144 -57.5t-57 -145.5q0 -107 102 -185q87 -68 202 -85q126 198 308 335q215 162 417 162q155 0 155 -129q0 -82 -75 -169q-100 -115 -284 -178q-165 -58 -343 -58q-42 0 -82 4zM472 911q22 -2 67 -2q378 0 559 201q78 88 78 172q0 52 -31.5 86.5t-83.5 34.5
q-159 0 -342 -178q-132 -127 -247 -314z" />
    <glyph glyph-name="M" unicode="M" horiz-adv-x="1706" 
d="M995 1430l4 -9q-223 -82 -348 -306q-72 -128 -165 -447q-124 -424 -263 -588l4 -2q87 70 326 391q110 164 348 477q414 479 858 479q84 0 84 -22q0 -23 -39 -23q-22 0 -64 7.5t-63 7.5q-27 0 -109 -58q-146 -105 -263 -310q-25 -43 -181 -370q-116 -242 -212 -372
q-149 -200 -326 -265q281 0 475 136q171 120 321 383l17 -9q-141 -256 -313 -381q-196 -145 -465 -145q-10 0 -29.5 1t-29.5 1q-14 0 -46.5 -6t-48.5 -6q-37 0 -37 20q0 17 25 17q41 0 96 -11q77 37 137 94q105 99 247 410q163 356 256 494q169 248 411 366l-3 9
q-274 -55 -518 -284q-164 -153 -381 -464l-171 -240q-97 -132 -182 -230q-135 -156 -216 -193l-10 10q68 91 149 334l118 401q65 211 148 340q108 167 302 297l-2 4q-196 -59 -360.5 -217.5t-428.5 -591.5q-99 -162 -157 -249q-111 -162 -183 -226q-116 -104 -242 -104
q-143 0 -143 100q0 80 70 80q59 0 59 -58q0 -64 -61 -63q34 -23 88 -23q94 0 175 53q109 70 266 313l220 363q205 329 397 480t459 205z" />
    <glyph glyph-name="N" unicode="N" horiz-adv-x="1479" 
d="M565 184l2 -2q174 411 369 717q317 498 569 498q137 0 137 -127q0 -124 -169 -197l-9 8q84 33 84 131q0 119 -112 119q-96 0 -243 -140q-204 -196 -402 -573q-94 -179 -295 -643l-15 5q23 98 23 221q0 133 -37 396.5t-37 395.5q0 76 12 154q-282 -621 -502.5 -892
t-437.5 -271q-145 0 -145 106q0 29 20.5 51.5t49.5 22.5q71 0 71 -68q0 -27 -24 -43q40 -30 88 -30q315 0 779 948q31 62 89 188q6 14 34 107q19 64 47 102q35 47 62 47q4 0 9 -2l2 -6q-1 -7 -12 -30q-42 -86 -42 -177q0 -130 34 -389t34 -389q0 -108 -33 -238z" />
    <glyph glyph-name="O" unicode="O" horiz-adv-x="1593" 
d="M797 438q74 -35 159 -35q175 0 320 127l10 -12q-149 -131 -330 -131q-88 0 -170 37q-136 -180 -289 -298q-199 -153 -374 -153q-289 0 -289 336q0 202 110 411q106 200 301 377q218 198 414 236q86 74 183 74q107 0 165 -84q50 -72 50 -184q0 -338 -260 -701zM748 461
q213 388 213 674q0 249 -150 249q-66 0 -127 -47q193 0 193 -163q0 -29 -5 -52l-12 2q0 7 1 20.5t1 20.5q0 70 -42.5 114t-112.5 44q-21 0 -41 -2q-158 -164 -158 -406q0 -286 240 -454zM645 1317q-194 -59 -358 -246q-131 -149 -226 -358q-104 -229 -104 -406
q0 -301 238 -301q143 0 312 158q126 117 230 282q-262 173 -262 463q0 236 170 408z" />
    <glyph glyph-name="P" unicode="P" horiz-adv-x="1593" 
d="M1505 1466v-14q-127 -18 -231 -68q164 -75 164 -258q0 -163 -133 -284q-129 -119 -293 -119q-142 0 -142 96q0 72 70 72q45 0 67 -28q-26 -21 -26 -62q0 -62 55 -62q74 0 161 111q71 90 103 179q25 71 25 140q0 140 -84 193q-97 -59 -212.5 -205.5t-371.5 -558.5
q-305 -491 -591 -551q184 -29 303 -29q575 0 915 523l12 -6q-170 -270 -356 -398q-216 -149 -506 -149q-165 0 -395 51q-158 -39 -281 -39q-254 0 -254 74q0 32 64 32q115 0 271.5 -26.5t185.5 -26.5q185 0 522 576q107 184 163 268q97 150 190 249q138 150 308 234
q-106 33 -215 33q-202 0 -405 -73q-257 -92 -431 -259q-210 -201 -210 -440q0 -225 184 -225q103 0 203 88q94 81 130 184q23 65 23 139q0 53 -8 93h15q8 -44 8 -95q0 -161 -113 -291q-117 -135 -276 -135q-107 0 -169.5 68t-62.5 176q0 238 247 453q204 178 468 265
q197 64 383 64q138 0 260 -30q139 59 266 71z" />
    <glyph glyph-name="Q" unicode="Q" horiz-adv-x="1479" 
d="M-90 76q-131 47 -254 47q-59 0 -120 -14q-87 -19 -87 -56q0 -43 145 -43q86 0 316 66zM55 123q234 -72 387 -72q225 0 414 149q138 110 295 339l12 -9q-160 -237 -344 -389q-240 -200 -463 -200q-145 0 -426 125q-201 -74 -342 -74q-161 0 -161 61q0 41 86 80t206 39
q152 0 314 -43q338 173 574 394q319 300 319 589q0 127 -62 200q-66 77 -192 77q-148 0 -286 -87q-141 -88 -200 -222q-36 -81 -36 -179q0 -231 212 -231q194 0 340 161l13 -10q-149 -172 -350 -172q-118 0 -196 67q-83 71 -83 187q0 85 47 176q81 157 253 247
q161 85 347 85q148 0 235 -69q97 -76 97 -220q0 -234 -270.5 -503.5t-739.5 -495.5z" />
    <glyph glyph-name="R" unicode="R" horiz-adv-x="1821" 
d="M1385 1427l3 -12q-94 -13 -217 -76q148 -89 148 -254q0 -178 -157 -283q-137 -91 -324 -91h-21q70 -15 109 -69.5t39 -127.5q0 -66 -61.5 -227.5t-61.5 -237.5q0 -47 61 -47q98 0 268 147.5t322 380.5l16 -6q-134 -201 -275 -341q-209 -208 -366 -208q-62 0 -99 43
q-36 40 -36 103q0 51 62 210q82 211 82 265q0 111 -156 119l10 20q40 -12 74 -12q58 0 124 24q128 46 202.5 148.5t74.5 237.5q0 102 -78 172q-168 -102 -498 -646l-91 -151q-327 -528 -658 -528q-76 0 -129 27q-67 35 -67 104q0 90 75 90q76 0 76 -70q0 -52 -53 -61
q24 -74 119 -74q62 0 127 42q114 73 264 294q32 48 213 342q210 342 350 485q109 112 227 176q-132 56 -290 56q-256 0 -496 -115q-259 -124 -382 -330q-77 -131 -77 -258q0 -102 59 -172q62 -74 162 -74q73 0 159 54q101 64 157 176q54 107 54 231q0 27 -3 53l14 2
q4 -57 4 -67q0 -189 -117 -326q-124 -145 -309 -145q-249 0 -249 262q0 140 97 283q137 202 417 327q261 117 522 117q193 0 330 -53q142 69 250 71z" />
    <glyph glyph-name="S" unicode="S" horiz-adv-x="1139" 
d="M903 1106q49 66 49 137q0 70 -44 110t-115 40q-70 0 -136 -49q-146 -109 -185 -402l-62 -515q-68 -285 -288 -396q-118 -60 -261 -60q-180 0 -300 88q-136 98 -136 271q0 72 28 123q35 63 101 63q79 0 79 -78q0 -67 -65 -67q-25 0 -45 12q-35 -31 -35 -100
q0 -143 109 -223q97 -72 245 -72q135 0 240 70q161 106 212 355l51 458q35 271 155 399q134 143 319 143q92 0 160 -38q84 -47 84 -132q0 -52 -45.5 -95.5t-97.5 -43.5q14 0 -17 2z" />
    <glyph glyph-name="T" unicode="T" horiz-adv-x="1593" 
d="M-369 190q0 -86 93 -147q84 -55 174 -55q89 0 186 46q169 80 331 297q33 44 267 411q161 250 290 361q133 114 300 150q-27 0 -93 1q-59 1 -92 1h-14q-286 -2 -311 -3q-179 -5 -310 -22q-380 -52 -553 -247q-81 -93 -81 -192q0 -117 108 -183q90 -55 215 -55
q192 0 321 110q136 116 136 304v28h16q0 -5 1 -16t1 -16q0 -206 -148 -331q-140 -118 -349 -118q-135 0 -223 63q-101 71 -101 201q0 119 103 243q288 341 1216 341q93 0 212 -7t138 -7q21 0 62.5 4t62.5 4q66 0 66 -45q0 -49 -116 -61q-29 -3 -153 -3q-145 0 -256 -83
q-129 -96 -364 -486q-92 -152 -141 -224q-84 -125 -164 -208q-265 -277 -565 -277q-127 0 -229 59q-120 70 -120 189q0 48 26.5 81.5t72.5 33.5q34 0 56 -23t22 -57q0 -67 -72 -64q-29 1 -21 2z" />
    <glyph glyph-name="U" unicode="U" horiz-adv-x="1706" 
d="M1290 1376l144 8l-623 -960q-141 -217 -141 -324q0 -38 29 -67t67 -29q99 0 276 149t349 390l12 -11q-395 -555 -674 -555q-162 0 -162 166q0 91 74 209q-125 -141 -257 -239q-180 -133 -312 -133q-144 0 -144 149q0 82 85 230q26 44 137 211q413 620 413 706
q0 117 -110 117q-182 0 -375 -168q-199 -173 -199 -351q0 -63 37.5 -109t99.5 -46q103 0 248 158l8 -9q-119 -172 -264 -172q-67 0 -114.5 49.5t-47.5 116.5q0 86 56 189q82 149 245 254q168 110 332 110q189 0 189 -168q0 -93 -281 -516q-177 -266 -206 -314
q-146 -238 -146 -321q0 -35 27.5 -60.5t62.5 -25.5q48 0 147 53q274 146 527 543z" />
    <glyph glyph-name="V" unicode="V" horiz-adv-x="1479" 
d="M852 1393l12 -17q-140 -84 -255 -307q-60 -116 -156 -379q-176 -482 -334 -639l4 3l586 408q365 273 479 515q79 168 80 257q-56 12 -56 73q0 35 23.5 58.5t58.5 23.5q46 0 72 -40q23 -35 23 -83q0 -147 -140 -347.5t-383 -390.5q-102 -80 -310 -218l-447 -289l-72 -46
l-12 17q154 231 282 627q80 247 167 396q117 200 290 314q-64 -35 -316 -108q-234 -68 -338 -136q-157 -104 -157 -270q0 -135 117 -135q89 0 154 60t65 149q0 29 -6 59l11 4q9 -40 9 -67q0 -96 -71.5 -161t-168.5 -65q-78 0 -128 53t-50 132q0 275 531 391q267 58 436 158z
" />
    <glyph glyph-name="W" unicode="W" horiz-adv-x="1933" 
d="M680 115q355 232 528 375q290 240 426 480q90 159 90 265q0 4 -1 11.5t-1 11.5q-47 21 -47 63q0 32 25 55t57 23q92 0 92 -111q0 -81 -57 -196q-146 -296 -629 -658l-346 -250l-135 -96q-93 -71 -121 -108l-12 16q156 247 218 467q66 232 191 493q-174 -253 -676 -724
q-58 -48 -145 -136q-14 -25 -53 -69q-63 -47 -86 -47q-21 0 -21 12q0 10 39 51q83 90 144 234q39 95 110 315q105 325 246 506q91 117 147 173q52 52 87 66q-136 -53 -319 -109q-75 -21 -218 -73q-289 -129 -289 -330q0 -64 34 -106q36 -45 99 -45q83 0 146 67.5t63 151.5
q0 25 -8 47l12 4q11 -36 11 -61q0 -92 -78 -160q-74 -64 -168 -64q-170 0 -170 177q0 271 474 390q277 69 492 167l13 -17q-149 -92 -270 -332q-52 -103 -166 -406q-141 -374 -222 -468q524 459 811 868q46 81 156 232q34 37 94 81q72 52 105 52q24 0 24 -21
q0 -32 -149 -159q-36 -31 -73 -93l-19 -32q-64 -108 -139 -326q-92 -270 -125 -345q-80 -186 -191 -312z" />
    <glyph glyph-name="X" unicode="X" horiz-adv-x="1706" 
d="M801 911q364 482 737 482q182 0 182 -90q0 -72 -67 -72q-19 0 -40 11t-22 21q2 -14 2 29q0 72 -110 72q-114 0 -238.5 -70t-259.5 -213q-252 -266 -347 -632q-30 -114 -30 -201q0 -88 27 -151q36 -85 113 -85q150 0 359 200q140 135 277 327l15 -9q-147 -213 -301 -354
q-220 -201 -402 -201q-209 0 -209 254q0 90 39 236q-144 -210 -326 -336q-213 -149 -436 -149q-194 0 -194 129q0 88 76 88q73 0 73 -76q0 -47 -34 -70q37 -53 127 -53q135 0 290 100q102 66 188 145q164 149 293 400q138 268 138 473q0 264 -229 264q-192 0 -340 -184
q-140 -173 -140 -369q0 -104 44 -172q52 -80 151 -80t192 84q80 73 123 175l15 -3q-52 -119 -143 -196q-104 -88 -222 -88q-113 0 -173 75q-54 69 -54 185q0 165 120 332q116 161 272 227q99 41 212 41q287 0 287 -297q0 -110 -35 -199z" />
    <glyph glyph-name="Y" unicode="Y" horiz-adv-x="1593" 
d="M1358 1370l141 4l-924 -1411q-360 -549 -778 -549q-132 0 -226 58q-110 69 -110 194q0 94 63 161t157 67q103 0 182 -54l-6 -12q-52 37 -113 37q-82 0 -129 -59q-43 -53 -43 -138q0 -109 68 -171t178 -62q212 0 421 237q83 94 293 419q135 208 218 315l-7 4
q-375 -435 -641 -435q-67 0 -105 46q-36 43 -36 112q0 87 117 273l174 254q358 523 358 632q0 94 -112 94q-78 0 -194 -55q-152 -73 -252 -190q-115 -135 -115 -285q0 -139 120 -139q131 0 250 153l12 -10q-127 -162 -268 -162q-76 0 -120 47.5t-44 124.5q0 84 56 182
q85 144 252 248q173 107 335 107q78 0 127 -37q54 -41 54 -117q0 -127 -320 -591l-192 -280q-133 -210 -133 -286q0 -94 88 -94q55 0 169 62q289 156 562 577z" />
    <glyph glyph-name="Z" unicode="Z" horiz-adv-x="1366" 
d="M-281 123q183 96 281 96q85 0 239 -71.5t240 -71.5q162 0 332 164q100 97 240 301l14 -6q-139 -213 -288 -355q-213 -203 -392 -203q-105 0 -263 93.5t-224 93.5q-86 0 -160 -51q-42 -28 -101 -93q-46 -51 -63 -51q-18 0 -18 17q0 23 288 273l1063 919q34 29 105 82
q-192 -95 -322 -95q-96 0 -260 76t-242 76q-106 0 -178.5 -78.5t-72.5 -185.5q0 -93 48 -150q51 -61 142 -61q103 0 188 100l15 -8q-97 -113 -207 -113q-94 0 -153.5 56.5t-59.5 150.5q0 152 119 251q113 93 268 93q98 0 280 -64.5t265 -64.5q78 0 139 24q56 21 129 83
q77 65 88 65q14 0 14 -18q0 -15 -99 -88q-122 -89 -280 -233q-570 -521 -1114 -953z" />
    <glyph glyph-name="bracketleft" unicode="[" horiz-adv-x="797" 
d="M-551 -403h287v-25h-406l1123 1765h387l-6 -24h-293z" />
    <glyph glyph-name="backslash" unicode="\" horiz-adv-x="1290" 
d="M285 1446l614 -1630l-98 -4l-615 1630z" />
    <glyph glyph-name="bracketright" unicode="]" horiz-adv-x="797" 
d="M569 1313h-286v24h407l-1124 -1765h-387l6 25h293z" />
    <glyph glyph-name="asciicircum" unicode="^" horiz-adv-x="2048" 
d="M946 1462h152l534 -565h-84l-526 465l-530 -465h-80z" />
    <glyph glyph-name="underscore" unicode="_" horiz-adv-x="1024" 
d="M0 -403h1024v-80h-1024v80z" />
    <glyph glyph-name="grave" unicode="`" horiz-adv-x="1024" 
d="M61 1262h113q41 -267 43 -444l-18 -5q-76 329 -138 449z" />
    <glyph glyph-name="a" unicode="a" 
d="M147 565l72 117l139 6q-109 -145 -221 -318q-166 -255 -166 -321q0 -45 49 -45q170 0 574 539l12 -11q-401 -552 -606 -552q-47 0 -79 28t-32 74q0 55 56 135l-6 6q-72 -90 -159 -154q-110 -81 -200 -81q-131 0 -131 153q0 72 53 175q73 142 209 255q155 129 295 129
q121 0 141 -135zM86 582q0 104 -82 104q-54 0 -142 -66q-110 -83 -196 -221q-94 -151 -94 -274q0 -94 76 -94q90 0 220 139q106 112 163 222q55 106 55 190z" />
    <glyph glyph-name="b" unicode="b" 
d="M365 1374q-70 -94 -192 -276l-447 -680q-81 -125 -112 -195q-32 -73 -32 -125q0 -92 86 -92q61 0 154 69q103 75 199 221q105 159 112 273q-20 53 -20 86q0 54 51 54q43 0 66 -48q18 -38 18 -86q0 -14 -5 -41t-5 -40q0 -40 51 -65q41 -21 86 -21q119 0 213 122l12 -8
q-98 -129 -231 -129q-84 0 -140 70q-34 -86 -83 -156q-82 -116 -221 -212q-157 -107 -281 -107q-166 0 -166 157q0 80 114 256l627 967z" />
    <glyph glyph-name="c" unicode="c" horiz-adv-x="682" 
d="M43 533q16 46 16 75q0 76 -71 76q-39 0 -108 -49q-112 -79 -200 -221q-94 -152 -94 -279q0 -131 117 -131q156 0 376 205q154 143 292 336l14 -13q-156 -218 -326 -366q-236 -205 -430 -205q-81 0 -126.5 49.5t-45.5 130.5q0 181 199 373.5t381 192.5q137 0 137 -91
q0 -37 -34 -62.5t-72 -25.5q-8 0 -25 5z" />
    <glyph glyph-name="d" unicode="d" 
d="M86 582q0 102 -82 102q-57 0 -144 -65q-108 -81 -194 -220q-94 -152 -94 -274q0 -94 76 -94q90 0 220 139q106 112 163 222q55 106 55 190zM825 1384l-495 -727q-359 -527 -359 -608q0 -45 49 -45q170 0 574 539l12 -11q-401 -552 -606 -552q-47 0 -79 28t-32 74
q0 55 56 135l-6 6q-72 -90 -159 -154q-110 -81 -200 -81q-131 0 -131 153q0 72 53 175q73 142 209 255q155 129 295 129q121 0 141 -135l539 813z" />
    <glyph glyph-name="e" unicode="e" horiz-adv-x="682" 
d="M-352 340q-51 -106 -51 -199q0 -129 112 -129q160 0 373 198q150 140 287 335l14 -10q-147 -218 -320 -366q-229 -196 -430 -196q-75 0 -117 46t-42 122q0 188 187.5 380t375.5 192q110 0 110 -78q0 -132 -499 -295zM-344 358q135 41 236 99q151 87 151 180q0 53 -55 53
q-79 0 -191 -129q-87 -100 -141 -203z" />
    <glyph glyph-name="f" unicode="f" horiz-adv-x="455" 
d="M516 1130q21 59 21 91q0 114 -91 114q-183 0 -559 -661h451l-25 -23h-442l-401 -645q-369 -594 -801 -594q-139 0 -226 46q-114 60 -114 186q0 81 59 134q57 50 139 50q43 0 87 -8l-4 -14q-7 1 -29 1q-68 0 -110 -46t-42 -115q0 -101 74 -161q69 -56 172 -56
q167 0 333.5 152t407.5 538l332 532h-164l19 23h157l183 272q277 412 540 412q59 0 100 -25q50 -31 50 -86q0 -102 -117 -117z" />
    <glyph glyph-name="g" unicode="g" horiz-adv-x="922" 
d="M160 549l90 135l141 8l-461 -669q365 70 672 520l12 -13q-313 -460 -700 -530q-339 -590 -823 -590q-125 0 -211 48q-107 59 -107 175q0 86 62 142q60 53 147 53q44 0 78 -8l-4 -18q-6 0 -19 1h-20q-65 0 -104 -53q-35 -48 -35 -115q0 -94 65 -150q62 -52 158 -52
q181 0 346 136q120 99 264 305l221 316l-6 5q-197 -207 -358 -207q-55 0 -89 45q-32 41 -32 98q0 182 195.5 374.5t377.5 192.5q132 0 140 -149zM6 680q-39 0 -102 -40q-113 -73 -218 -222q-114 -163 -114 -283q0 -104 78 -104q45 0 108 40q121 75 222 216q112 156 112 282
q0 111 -86 111z" />
    <glyph glyph-name="h" unicode="h" horiz-adv-x="918" 
d="M377 1374l-539 -788q-3 -5 -182 -242l10 -4q276 377 486 377q50 0 85 -27q39 -30 39 -78q0 -66 -156.5 -279.5t-156.5 -273.5q0 -45 55 -45q112 0 320 216q138 141 264 315l14 -10q-394 -545 -618 -545q-121 0 -121 121q0 72 152.5 286t152.5 250q0 47 -49 47
q-125 0 -309 -189t-344 -495l-146 -10l893 1372z" />
    <glyph glyph-name="i" unicode="i" horiz-adv-x="465" 
d="M-90 690q-393 -580 -393 -635q0 -39 41 -39q83 0 251 147q166 144 336 380l17 -11q-418 -540 -623 -540q-47 0 -76.5 32t-29.5 80q0 76 82 199l252 377zM-39 973q0 69 70 69q28 0 49.5 -19.5t21.5 -47.5t-22.5 -50t-50.5 -22q-68 0 -68 70z" />
    <glyph glyph-name="j" unicode="j" horiz-adv-x="459" 
d="M-90 690l-440 -670q366 76 671 523l13 -13q-316 -460 -701 -530q-339 -590 -825 -590q-125 0 -211 48q-107 59 -107 175q0 86 63 142q61 53 148 53q42 0 76 -8l-2 -18q-7 0 -20 1h-21q-65 0 -104 -53q-35 -48 -35 -115q0 -94 65 -150q62 -52 158 -52q253 0 488 278
q118 139 299 429l342 540zM-39 973q0 69 70 69q28 0 49.5 -19.5t21.5 -47.5t-22.5 -50t-50.5 -22q-68 0 -68 70z" />
    <glyph glyph-name="k" unicode="k" 
d="M350 1403l-442 -680q-61 -94 -232 -329l-8 -11l6 -4q129 147 205 213q144 123 256 123q115 0 115 -101q0 -100 -116 -165q-87 -48 -206 -64q88 -27 88 -104q0 -42 -30.5 -119.5t-30.5 -112.5q0 -43 49 -43q85 0 253 150t339 391l14 -8q-132 -190 -280 -340
q-219 -219 -361 -219q-129 0 -129 114q0 39 48.5 128t48.5 128q0 15 -23 27q-121 -21 -123 -21q-24 0 -33 15q1 26 76 26q13 0 39 -2t39 -2q33 0 84 26q48 24 75 50q60 59 60 135q0 70 -63 70q-95 0 -276.5 -191.5t-330.5 -474.5l-127 -8l879 1395z" />
    <glyph glyph-name="l" unicode="l" horiz-adv-x="461" 
d="M350 1380l-760 -1177q-63 -98 -63 -150q0 -43 47 -43q103 0 312 221q137 146 259 314l13 -13q-129 -182 -270 -327q-212 -219 -337 -219q-116 0 -116 106q0 59 76 180l692 1098z" />
    <glyph glyph-name="m" unicode="m" horiz-adv-x="1376" 
d="M115 344l10 -4q278 377 485 377q50 0 87.5 -28t37.5 -77q0 -65 -156.5 -279.5t-156.5 -273.5q0 -45 57 -45q112 0 320 216q135 140 262 315l14 -10q-398 -545 -624 -545q-53 0 -84 34t-31 87q0 72 152.5 287.5t152.5 248.5q0 45 -51 45q-126 0 -309 -188t-342 -494
l-144 -10l338 535q51 81 51 114q0 43 -49 43q-125 0 -308 -188t-343 -494l-148 -10l441 688l141 8l-258 -352l8 -4q279 377 488 377q45 0 79 -25q37 -28 37 -71q0 -48 -63 -144z" />
    <glyph glyph-name="n" unicode="n" 
d="M594 545l12 -10q-391 -545 -612 -545q-52 0 -82.5 34t-30.5 87q0 77 150.5 289t150.5 247q0 47 -49 47q-123 0 -303 -189t-338 -495l-143 -10l432 688l137 8l-252 -352l8 -4q272 377 478 377q49 0 85.5 -29t36.5 -76q0 -64 -153.5 -280t-153.5 -273q0 -45 56 -45
q109 0 314 217q133 141 257 314z" />
    <glyph glyph-name="o" unicode="o" horiz-adv-x="891" 
d="M578 543l12 -8q-115 -140 -236 -140q-123 0 -159 125q-17 -107 -70 -199q-72 -126 -206 -225q-149 -110 -279 -110q-164 0 -164 188q0 177 198 363q195 184 373 184q114 0 162 -196q28 -113 145 -113q114 0 224 131zM96 590q0 108 -84 108q-96 0 -219 -143
q-95 -110 -155 -232q-56 -116 -56 -198q0 -48 23 -81q25 -38 71 -38q51 0 123 54q105 78 198 239q99 169 99 291z" />
    <glyph glyph-name="p" unicode="p" horiz-adv-x="891" 
d="M-51 188q-285 -45 -285 -133q0 -41 45 -41q79 0 240 174zM135 1094q-130 -212 -405 -627l10 -2q197 256 350 256q146 0 146 -154q0 -169 -175 -346q279 62 517 324l12 -10q-232 -270 -539 -334q-217 -201 -370 -201q-82 0 -82 53q0 89 362 154q150 203 150 385
q0 98 -72 98q-92 0 -237 -175q-94 -113 -181 -259l-504 -846l-118 -6l1011 1681z" />
    <glyph glyph-name="q" unicode="q" horiz-adv-x="920" 
d="M160 549l90 135l123 8l-443 -672q367 76 672 523l12 -13q-313 -460 -700 -530l-412 -641l-137 -6l416 627q63 95 151 210l-6 5q-193 -205 -354 -205q-56 0 -91 44q-34 40 -34 97q0 181 195.5 374t377.5 193q132 0 140 -149zM6 680q-39 0 -102 -40q-113 -73 -218 -222
q-114 -163 -114 -283q0 -104 78 -104q45 0 108 40q121 75 222 216q112 156 112 282q0 111 -86 111z" />
    <glyph glyph-name="r" unicode="r" horiz-adv-x="690" 
d="M176 709q-96 -132 -96 -220q0 -69 74 -69q106 0 221 119l10 -11q-120 -129 -262 -129q-139 0 -139 127q0 49 30 111q-365 -279 -528 -627l-143 -8l424 682l133 8l-267 -379l7 -6q78 91 173 180q119 110 205 175l4 3l27 26q17 13 33 14z" />
    <glyph glyph-name="s" unicode="s" horiz-adv-x="682" 
d="M-59 484q36 52 36 114q0 96 -92 96q-53 0 -85 -40q-29 -36 -29 -91q0 -41 50 -156t50 -180q0 -164 -178 -221v-4q331 52 678 543l14 -10q-394 -555 -778 -555q-94 0 -155 48q-66 53 -66 144q0 58 30 99q34 46 90 46q76 0 76 -71q0 -64 -67 -64q-48 0 -54 47
q-30 -38 -30 -86q0 -141 147 -141q87 0 135 58q45 55 45 143q0 53 -41 156.5t-41 158.5q0 93 70 147q64 48 160 48q66 0 114 -30q56 -35 56 -97q0 -42 -27 -74q-28 -35 -69 -35q-22 0 -39 7z" />
    <glyph glyph-name="t" unicode="t" horiz-adv-x="578" 
d="M51 920l-153 -248h266l-14 -23h-269l-258 -405q-67 -105 -67 -176q0 -62 73 -62q103 0 284 147t341 379l14 -8q-134 -191 -291 -336q-219 -204 -376 -204q-60 0 -99 39.5t-39 99.5q0 68 45 139l246 387h-116l16 23h113l155 241z" />
    <glyph glyph-name="u" unicode="u" 
d="M358 692q-393 -552 -393 -624q0 -54 51 -54q79 0 243.5 144.5t330.5 371.5l10 -8q-130 -182 -271 -323q-209 -209 -341 -209q-117 0 -117 112q0 63 49 136l-4 2q-203 -254 -377 -254q-119 0 -119 102q0 65 39 123l312 467l151 14l-346 -489q-57 -81 -57 -133
q0 -58 49 -58q236 0 637 668z" />
    <glyph glyph-name="v" unicode="v" horiz-adv-x="918" 
d="M242 487q43 -75 141 -75q105 0 211 118l10 -8q-103 -129 -223 -129q-86 0 -148 70q-53 -168 -234 -317q-187 -156 -357 -156q-73 0 -118.5 42.5t-45.5 114.5q0 102 84 222l221 315l141 6q-152 -197 -211 -286q-139 -210 -139 -316q0 -82 82 -82q59 0 138 49
q128 78 222.5 219.5t120.5 290.5q-22 46 -22 76q0 64 61 64q76 0 76 -123q0 -37 -10 -95z" />
    <glyph glyph-name="w" unicode="w" horiz-adv-x="1366" 
d="M688 481q65 -67 148 -67q109 0 211 129l14 -8q-107 -138 -225 -138q-78 0 -154 64q-29 -86 -88 -165q-83 -111 -227 -204q-160 -104 -281 -104q-149 0 -149 139q0 59 34 119l-4 4q-198 -262 -375 -262q-141 0 -141 135q0 108 180 348l152 203l158 12q-175 -213 -227 -285
q-160 -219 -160 -313q0 -78 77 -78q199 0 590 664l162 12q-348 -441 -348 -594q0 -84 80 -84q63 0 146 53q121 78 212 221q87 138 117 285q-27 50 -27 80q0 64 47 64q95 0 95 -140q0 -45 -17 -90z" />
    <glyph glyph-name="x" unicode="x" horiz-adv-x="1024" 
d="M105 528l6 -2q168 170 338 170q147 0 147 -94q0 -36 -26 -60t-62 -24q-21 0 -43 8q31 60 31 95q0 59 -58 59q-51 0 -129 -50q-114 -72 -219 -219q-115 -162 -115 -280q0 -108 97 -108q118 0 303 144.5t332 369.5l14 -11q-151 -237 -360.5 -391.5t-356.5 -154.5
q-55 0 -91 33.5t-36 88.5q0 29 20 85l-8 3q-185 -206 -385 -206q-83 0 -135 41q-57 44 -57 125q0 49 27.5 84.5t74.5 35.5q78 0 78 -63q0 -70 -70 -70q-24 0 -52 28q-19 -22 -19 -46q0 -56 49 -88q44 -29 102 -29q162 0 338 211q170 204 170 369q0 44 -26.5 73t-69.5 29
q-113 0 -229 -164l-15 4q125 185 271 185q71 0 119 -35q53 -39 53 -107q0 -9 -8 -39z" />
    <glyph glyph-name="y" unicode="y" horiz-adv-x="918" 
d="M367 690l-445 -670q377 81 678 523l12 -13q-320 -464 -706 -530q-344 -590 -832 -590q-126 0 -213 48q-108 59 -108 175q0 87 64 142q61 53 149 53q42 0 76 -8l-3 -19q-14 2 -40 2q-65 0 -105 -53q-35 -48 -35 -115q0 -95 65 -150q61 -52 158 -52q208 0 394 173.5
t481 672.5l-6 4q-237 -289 -432 -289q-97 0 -97 98q0 69 60 156l295 430l157 12q-401 -493 -401 -606q0 -57 61 -57q91 0 264 179t349 472z" />
    <glyph glyph-name="z" unicode="z" horiz-adv-x="797" 
d="M-434 96v-2q74 41 137 41q54 0 143.5 -43t128.5 -43q156 0 506 496l15 -13q-388 -557 -615 -557q-50 0 -153.5 53.5t-153.5 53.5q-29 0 -78 -49t-57 -49q-21 0 -21 16q0 21 82 75q91 59 140 101q265 227 585 449l-4 2q-102 -66 -170 -66q-42 0 -119 34t-110 34
q-62 0 -141 -115l-13 10q108 181 244 181q48 0 134 -39t126 -39q49 0 100.5 50t57.5 50q12 0 12 -14q0 -47 -776 -617z" />
    <glyph glyph-name="braceleft" unicode="{" horiz-adv-x="1024" 
d="M844 1516v-47q-153 -2 -208 -55.5t-55 -255.5v-49v-50q0 -228 -63 -310q-66 -83 -239 -114q173 -30 239 -112q63 -82 63 -310v-50.5v-49.5q0 -203 55 -256.5t208 -55.5v-45h-10q-238 0 -316 100q-59 75 -59 281q0 27 1 89.5t1 97.5q0 157 -65 217q-60 55 -220 67v56
q162 14 220 67q65 60 65 217q0 35 -1 96t-1 87q0 212 60 287q79 98 325 98z" />
    <glyph glyph-name="bar" unicode="|" horiz-adv-x="1024" 
d="M467 1565h90v-2048h-90v2048z" />
    <glyph glyph-name="braceright" unicode="}" horiz-adv-x="1024" 
d="M178 1516h10q239 0 318 -101q59 -76 59 -285q0 -26 -1 -87t-1 -95q0 -155 58 -212t227 -72v-56q-160 -12 -220 -67q-65 -60 -65 -217q0 -34 1 -94v-86q0 -214 -60 -289q-79 -99 -326 -99v45q154 2 209.5 56t55.5 252v54v56q0 221 64 302.5t238 113.5q-173 31 -237.5 113
t-64.5 310v49.5v49.5q0 202 -55.5 256t-209.5 56v47z" />
    <glyph glyph-name="asciitilde" unicode="~" horiz-adv-x="1706" 
d="M1530 739v-92q-211 -147 -387 -147q-100 0 -290 70.5t-288 70.5q-161 0 -387 -160v92q207 146 387 146q101 0 290.5 -69.5t287.5 -69.5q160 0 387 159z" />
    <glyph glyph-name="exclamdown" unicode="&#xa1;" horiz-adv-x="682" 
d="M190 768q-210 -331 -333 -620q-68 -160 -131 -160q-68 0 -68 71q0 54 112 176q156 171 408 543zM305 883q-33 0 -56.5 23.5t-23.5 56.5q0 34 23 56.5t57 22.5q32 0 57 -23.5t25 -55.5q0 -33 -24.5 -56.5t-57.5 -23.5z" />
    <glyph glyph-name="cent" unicode="&#xa2;" horiz-adv-x="1024" 
d="M294 677q-5 3 -22 3q-97 0 -218 -138q-99 -112 -149 -226q-42 -97 -42 -181q0 -70 28 -98zM319 532q17 38 17 82q0 35 -24 53l-404 -642q40 -19 74 -19q141 0 352 182l12 -14q-250 -213 -473 -213l-156 -244l-16 11l152 239q-121 38 -121 170q0 182 196.5 375t380.5 193
l125 198l19 -6l-117 -192q115 -9 115 -89q0 -37 -35.5 -62.5t-73.5 -25.5q-1 0 -23 4z" />
    <glyph glyph-name="sterling" unicode="&#xa3;" horiz-adv-x="1366" 
d="M-86 37q-268 127 -442 127q-109 0 -109 -64q0 -62 103 -92q72 -22 157 -22q140 0 291 51zM838 254q-220 -330 -519 -330q-122 0 -374 105q-182 -60 -314 -60q-100 0 -175 22q-111 32 -111 105q0 88 133 88q171 0 514 -118q190 140 338 436h-545v24h555q336 770 737 770
q113 0 182 -61q72 -64 72 -176q0 -146 -106 -264q-110 -121 -254 -121q-68 0 -114 41t-46 108q0 170 281 293l6 -14q-269 -132 -269 -277q0 -58 38.5 -93.5t97.5 -35.5q53 0 117 38q92 54 147 157q53 100 53 209q0 81 -48.5 129.5t-129.5 48.5q-162 0 -296.5 -145
t-356.5 -607h462v-24h-473q-130 -272 -424 -445q233 -73 363 -73q257 0 444 282z" />
    <glyph glyph-name="currency" unicode="&#xa4;" horiz-adv-x="1241" 
d="M623 1217q-138 0 -235 -96t-97 -234q0 -139 96.5 -235.5t235.5 -96.5q138 0 234.5 97t96.5 235t-96.5 234t-234.5 96zM152 1411l206 -207q117 94 263 94q144 0 264 -94l205 207l59 -59l-207 -205q92 -119 92 -262q0 -146 -92 -262l207 -205l-59 -60l-205 207
q-119 -92 -264 -92t-263 92l-206 -207l-58 60l207 205q-92 117 -92 262q0 143 92 262l-207 205z" />
    <glyph glyph-name="yen" unicode="&#xa5;" horiz-adv-x="1024" 
d="M129 674l29 -277l270 277h-299zM-258 0l8 16l160 7l156 356l-5 29h-393l15 22h376l-26 244h-248l12 22h232l-31 320l-135 6l6 16h362l-6 -18l-131 -4l31 -320h326l151 158q90 94 90 125q0 32 -56 41l-77 6l4 12h398l-5 -12l-100 -8q-68 -5 -199 -144l-168 -178h246
l-12 -22h-258l-236 -244h344l-14 -22h-352l-43 -37l-146 -348l154 -7l-6 -16h-424z" />
    <glyph glyph-name="brokenbar" unicode="&#xa6;" horiz-adv-x="1024" 
d="M467 408h90v-758h-90v758zM467 1432h90v-758h-90v758z" />
    <glyph glyph-name="section" unicode="&#xa7;" horiz-adv-x="1024" 
d="M311 1018q-254 -28 -254 -246q0 -71 89 -231q14 -25 135 -222q245 42 245 250q0 81 -83 230zM752 1106q43 70 43 133q0 79 -46.5 127.5t-125.5 48.5q-101 0 -173.5 -67t-72.5 -168q0 -85 122 -281t122 -287q0 -245 -332 -311q18 -56 18 -100q0 -140 -122 -227
q-110 -78 -255 -78q-122 0 -213 60q-104 69 -104 185q0 88 60 141q58 50 147 50h22q-118 -73 -118 -203q0 -94 66 -152.5t161 -58.5q109 0 187.5 70.5t78.5 177.5q0 87 -127 278t-127 299q0 247 340 291q-27 65 -27 111q0 138 116 221q104 74 247 74q98 0 170 -45
q84 -53 84 -146q0 -58 -41.5 -99.5t-99.5 -43.5z" />
    <glyph glyph-name="dieresis" unicode="&#xa8;" horiz-adv-x="1024" 
d="M23 993q0 26 19.5 46t45.5 20q27 0 46.5 -19.5t19.5 -46.5q0 -65 -66 -65q-65 0 -65 65zM281 993q0 26 19.5 46t45.5 20q27 0 46.5 -19.5t19.5 -46.5q0 -65 -66 -65q-65 0 -65 65z" />
    <glyph glyph-name="copyright" unicode="&#xa9;" horiz-adv-x="1683" 
d="M1118 1093l31 1v-308h-37q-65 275 -285 275q-258 0 -258 -377q0 -383 277 -383q178 0 287 172l30 -20q-112 -207 -336 -207q-169 0 -284 125q-111 122 -111 293q0 176 106 302q112 134 285 134q69 0 145 -34t85 -34q57 0 65 61zM844 1298q-255 0 -435 -182.5t-180 -437.5
t179 -437t434 -182q254 0 434 182.5t180 436.5q0 257 -177.5 438.5t-434.5 181.5zM844 1370q285 0 486.5 -203.5t201.5 -488.5q0 -283 -203.5 -486.5t-486.5 -203.5q-286 0 -488 202t-202 488q0 287 202.5 489.5t489.5 202.5z" />
    <glyph glyph-name="ordfeminine" unicode="&#xaa;" horiz-adv-x="682" 
d="M502 1339q0 78 -58 78q-36 0 -92 -44q-74 -57 -133 -149q-65 -102 -65 -184q0 -65 51 -65q60 0 149 93q71 75 111 149q37 69 37 122zM553 1340l51 81l96 4q-270 -362 -270 -446q0 -31 35 -31q116 0 401 377l11 -10q-290 -385 -424 -385q-80 0 -80 74q0 37 39 94l-4 4
q-131 -166 -252 -166q-93 0 -93 106q0 122 135 257t257 135q81 0 98 -94z" />
    <glyph glyph-name="guillemotleft" unicode="&#xab;" horiz-adv-x="1024" 
d="M-37 16l-227 301l411 318l9 -12l-324 -306l141 -292zM215 16l-227 301l411 318l9 -12l-324 -306l141 -292z" />
    <glyph glyph-name="logicalnot" unicode="&#xac;" horiz-adv-x="1706" 
d="M254 856h1198v-502h-78v420h-1120v82z" />
    <glyph glyph-name="registered" unicode="&#xae;" horiz-adv-x="1683" 
d="M717 717q24 -2 67 -2q263 0 263 176q0 85 -70 129q-58 37 -148 37q-112 0 -112 -76v-264zM469 1087h391q121 0 205 -38q111 -51 111 -158q0 -143 -291 -199q168 -55 211 -215l18 -87q17 -60 49 -60q78 0 80 128l37 1v-8q0 -177 -150 -177q-84 0 -116 52q-20 35 -23 115
q-3 90 -12 116q-43 127 -223 127q-7 0 -20 -1t-19 -1v-248q0 -62 40 -85q28 -15 97 -18v-38h-385v38q69 3 97 18q40 23 40 85v512q0 63 -39 86q-29 17 -98 19v36zM844 1298q-255 0 -435 -182.5t-180 -437.5t179 -437t434 -182q254 0 434 182.5t180 436.5q0 257 -177.5 438.5
t-434.5 181.5zM844 1370q285 0 486.5 -203.5t201.5 -488.5q0 -283 -203.5 -486.5t-486.5 -203.5q-286 0 -488 202t-202 488q0 287 202.5 489.5t489.5 202.5z" />
    <glyph glyph-name="degree" unicode="&#xb0;" horiz-adv-x="674" 
d="M338 1389q-90 0 -151.5 -61.5t-61.5 -151.5q0 -89 62 -151t151 -62t151 62t62 151t-62 151t-151 62zM338 1450q113 0 192.5 -80.5t79.5 -193.5q0 -115 -79.5 -194t-194.5 -79q-116 0 -194.5 78.5t-78.5 194.5q0 115 80 194.5t195 79.5z" />
    <glyph glyph-name="plusminus" unicode="&#xb1;" horiz-adv-x="1706" 
d="M254 141h1198v-82h-1198v82zM813 1161h80v-354h559v-80h-559v-352h-80v352h-559v80h559v354z" />
    <glyph glyph-name="twosuperior" unicode="&#xb2;" horiz-adv-x="676" 
d="M315 604q-142 -201 -266 -201q-43 0 -126 38t-116 38q-45 0 -91 -35.5t-52 -35.5q-5 0 -7.5 1.5t-2.5 4.5q0 13 67 53.5t177 91.5l166 72q113 51 172 103q79 70 79 153q0 60 -38.5 99.5t-98.5 39.5q-62 0 -112 -36q-56 -39 -56 -99q0 -80 74 -80q31 0 61 20l2 -2
q-42 -71 -102 -71q-37 0 -64.5 25.5t-27.5 62.5q0 86 92 147q82 54 172 54q75 0 125 -36q57 -40 57 -112q0 -110 -124 -191q-69 -45 -221 -99q-166 -59 -257 -115v-2q46 24 90 24q43 0 120.5 -30.5t115.5 -30.5q75 0 182 155z" />
    <glyph glyph-name="threesuperior" unicode="&#xb3;" horiz-adv-x="676" 
d="M225 877q-33 -62 -98 -62q-74 0 -74 72q0 75 78 125q69 43 148 43q63 0 108 -31q51 -35 51 -96q0 -87 -116 -137q-85 -37 -191 -43v-3q26 3 19 3q59 0 98 -33q41 -36 41 -94q0 -100 -122 -164q-102 -54 -212 -54q-86 0 -152 35q-82 44 -82 123q0 45 34 78t79 33
q55 0 96 -35l-2 -4q-24 10 -39 10q-39 0 -65.5 -34t-26.5 -74q0 -61 56 -94q46 -27 112 -27q88 0 163 59q79 64 79 150q0 53 -39 85q-36 29 -90 29q-27 0 -70 -5v11q130 2 219 34q129 48 129 151q0 48 -33.5 77t-82.5 29q-48 0 -87 -26q-44 -29 -44 -74q0 -29 21 -53.5
t50 -24.5q24 0 39 23z" />
    <glyph glyph-name="acute" unicode="&#xb4;" horiz-adv-x="1024" 
d="M115 838l272 411h137l-397 -418z" />
    <glyph glyph-name="paragraph" unicode="&#xb6;" horiz-adv-x="1024" 
d="M932 1479v-64h-129v-1415h-70v1415h-192v-1415h-70v782q-165 7 -268 94q-113 94 -113 254q0 166 117 261q109 88 278 88h447z" />
    <glyph glyph-name="cedilla" unicode="&#xb8;" horiz-adv-x="1024" 
d="M-162 -6l-94 -154q6 0 18.5 1t18.5 1q58 0 100.5 -33t42.5 -90q0 -108 -157 -170q-109 -42 -248 -51v17q317 34 317 176q0 80 -112 80q-17 0 -51 -6l143 229h22z" />
    <glyph glyph-name="onesuperior" unicode="&#xb9;" horiz-adv-x="676" 
d="M393 1053l-344 -492q-52 -75 -82 -131l-112 -18l378 532q-153 -89 -274 -117l-4 15q249 66 432 215z" />
    <glyph glyph-name="ordmasculine" unicode="&#xba;" horiz-adv-x="682" 
d="M549 1298q-28 -135 -136 -247q-118 -121 -249 -121q-117 0 -117 131q0 125 138 254t264 129q65 0 90 -57l36 -105q29 -57 105 -57q94 0 190 94l11 -8q-103 -103 -199 -103q-107 0 -133 90zM418 1421q-85 0 -190 -151q-99 -142 -99 -234q0 -84 64 -84q87 0 188 155
q94 145 94 239q0 75 -57 75z" />
    <glyph glyph-name="guillemotright" unicode="&#xbb;" horiz-adv-x="1024" 
d="M147 635l228 -301l-412 -318l-8 13l324 303l-142 293zM-104 635l227 -301l-412 -318l-8 13l322 303l-140 293z" />
    <glyph glyph-name="onequarter" unicode="&#xbc;" horiz-adv-x="1313" 
d="M948 651l-256 -401h162l-16 -23h-158l-143 -231l-101 -14l158 243l-350 -4l647 549l49 6l-647 -534l313 6l258 391zM264 1151l-338 -530q-22 -34 -82 -146l-110 -18l370 573q-144 -94 -268 -127l-2 19q232 65 420 237zM-313 -55l1032 1224l100 7l-1026 -1223z" />
    <glyph glyph-name="onehalf" unicode="&#xbd;" horiz-adv-x="1313" 
d="M811 203l12 -4q-119 -219 -260 -219q-41 0 -122.5 40.5t-112.5 40.5q-39 0 -78 -29l-66 -55q-10 2 -10 9q0 20 60 61q70 48 270 142q153 72 209 116q112 86 112 199q0 62 -36 105.5t-97 43.5q-64 0 -114 -40q-54 -42 -54 -105q0 -88 74 -88q35 0 59 22l9 -4
q-49 -76 -105 -76q-40 0 -65 30t-25 71q0 89 88 154q80 59 172 59q72 0 123 -40q55 -43 55 -114q0 -125 -119 -212q-62 -46 -229 -115q-84 -35 -246 -115l4 -4q56 20 93 20q44 0 118.5 -31.5t104.5 -31.5q83 0 176 170zM264 1151l-338 -530q-22 -34 -82 -146l-110 -18
l370 573q-144 -94 -268 -127l-2 19q232 65 420 237zM-313 -55l1032 1224l100 7l-1026 -1223z" />
    <glyph glyph-name="threequarters" unicode="&#xbe;" horiz-adv-x="1542" 
d="M231 922q-24 -64 -96 -64q-76 0 -76 80q0 77 75 131q69 49 149 49q66 0 109 -36q46 -39 46 -103q0 -94 -108 -146q-78 -37 -193 -47v-6q3 0 11 1t12 1q133 0 133 -133q0 -110 -115 -177q-98 -58 -215 -58q-88 0 -153 40q-76 47 -76 130q0 48 32.5 84.5t79.5 36.5
q48 0 95 -37l-4 -6q-20 10 -37 10q-40 0 -66 -36q-22 -33 -22 -75q0 -64 46 -100q41 -33 107 -33q94 0 168 64q78 66 78 159q0 56 -35.5 89.5t-91.5 33.5q-35 0 -67 -6l-1 16q344 0 344 195q0 51 -33.5 83t-84.5 32q-48 0 -86 -31q-41 -33 -41 -80q0 -30 21 -55t50 -25
q23 0 38 24zM-61 -55l1032 1224l100 7l-1026 -1223zM1178 651l-256 -401h161l-14 -23h-160l-141 -231l-102 -14l157 243l-348 -4l645 549l51 6l-649 -534l314 6l260 391z" />
    <glyph glyph-name="questiondown" unicode="&#xbf;" 
d="M481 893q-33 0 -56.5 23.5t-23.5 56.5q0 34 23 57t57 23q32 0 57 -24t25 -56q0 -33 -24.5 -56.5t-57.5 -23.5zM385 797q-57 -86 -208 -174q-184 -106 -230 -149q-109 -101 -109 -249q0 -93 53.5 -152t145.5 -59q117 0 204 82t87 199q0 168 -121 168q-70 0 -164 -90l-8 12
q90 96 192 96q74 0 120 -46t46 -120q0 -131 -136 -235q-126 -98 -261 -98q-114 0 -187 57q-79 63 -79 174q0 228 352 385q222 99 291 207z" />
    <glyph glyph-name="Agrave" unicode="&#xc0;" horiz-adv-x="1479" 
d="M1118 1346q-326 -162 -760 -715h205q219 389 555 715zM1266 1427l10 -10q-278 -308 -475 -610q-285 -435 -285 -698q0 -93 72 -93q103 0 310 215q133 138 261 310l12 -11q-404 -553 -645 -553q-131 0 -131 170q0 184 160 469h-209q-212 -268 -356 -399
q-255 -235 -457 -235q-70 0 -118 26q-62 32 -62 96q0 35 20.5 62t55.5 27q59 0 59 -64q0 -41 -35 -68q37 -41 127 -41q194 0 467 276q83 84 371 437q456 559 848 694zM1105 1946h113q41 -267 43 -444l-18 -5q-76 329 -138 449z" />
    <glyph glyph-name="Aacute" unicode="&#xc1;" horiz-adv-x="1479" 
d="M1118 1346q-326 -162 -760 -715h205q219 389 555 715zM1266 1427l10 -10q-278 -308 -475 -610q-285 -435 -285 -698q0 -93 72 -93q103 0 310 215q133 138 261 310l12 -11q-404 -553 -645 -553q-131 0 -131 170q0 184 160 469h-209q-212 -268 -356 -399
q-255 -235 -457 -235q-70 0 -118 26q-62 32 -62 96q0 35 20.5 62t55.5 27q59 0 59 -64q0 -41 -35 -68q37 -41 127 -41q194 0 467 276q83 84 371 437q456 559 848 694zM1159 1522l272 411h137l-397 -418z" />
    <glyph glyph-name="Acircumflex" unicode="&#xc2;" horiz-adv-x="1479" 
d="M1118 1346q-326 -162 -760 -715h205q219 389 555 715zM1266 1427l10 -10q-278 -308 -475 -610q-285 -435 -285 -698q0 -93 72 -93q103 0 310 215q133 138 261 310l12 -11q-404 -553 -645 -553q-131 0 -131 170q0 184 160 469h-209q-212 -268 -356 -399
q-255 -235 -457 -235q-70 0 -118 26q-62 32 -62 96q0 35 20.5 62t55.5 27q59 0 59 -64q0 -41 -35 -68q37 -41 127 -41q194 0 467 276q83 84 371 437q456 559 848 694zM1423 1871q-29 -87 -29 -156q0 -170 105 -233l-13 -12q-182 70 -182 303l-311 -291l-8 10l368 379h70z
" />
    <glyph glyph-name="Atilde" unicode="&#xc3;" horiz-adv-x="1479" 
d="M1118 1346q-326 -162 -760 -715h205q219 389 555 715zM1266 1427l10 -10q-278 -308 -475 -610q-285 -435 -285 -698q0 -93 72 -93q103 0 310 215q133 138 261 310l12 -11q-404 -553 -645 -553q-131 0 -131 170q0 184 160 469h-209q-212 -268 -356 -399
q-255 -235 -457 -235q-70 0 -118 26q-62 32 -62 96q0 35 20.5 62t55.5 27q59 0 59 -64q0 -41 -35 -68q37 -41 127 -41q194 0 467 276q83 84 371 437q456 559 848 694zM956 1579q24 71 46 100q36 45 95 45q41 0 126 -30.5t130 -30.5q62 0 101 84l22 -4q-30 -76 -52 -104
q-38 -50 -99 -50q-45 0 -128.5 34t-125.5 34q-71 0 -91 -80z" />
    <glyph glyph-name="Adieresis" unicode="&#xc4;" horiz-adv-x="1479" 
d="M1118 1346q-326 -162 -760 -715h205q219 389 555 715zM1266 1427l10 -10q-278 -308 -475 -610q-285 -435 -285 -698q0 -93 72 -93q103 0 310 215q133 138 261 310l12 -11q-404 -553 -645 -553q-131 0 -131 170q0 184 160 469h-209q-212 -268 -356 -399
q-255 -235 -457 -235q-70 0 -118 26q-62 32 -62 96q0 35 20.5 62t55.5 27q59 0 59 -64q0 -41 -35 -68q37 -41 127 -41q194 0 467 276q83 84 371 437q456 559 848 694zM1067 1677q0 26 19.5 46t45.5 20q27 0 46.5 -19.5t19.5 -46.5q0 -65 -66 -65q-65 0 -65 65zM1325 1677
q0 26 19.5 46t45.5 20q27 0 46.5 -19.5t19.5 -46.5q0 -65 -66 -65q-65 0 -65 65z" />
    <glyph glyph-name="Aring" unicode="&#xc5;" horiz-adv-x="1479" 
d="M1376 1837q-59 0 -115 -73q-53 -68 -53 -130q0 -78 72 -78q60 0 115 69q51 66 51 128q0 84 -70 84zM1151 1655q0 80 67 142.5t148 62.5q54 0 91.5 -33t37.5 -86q0 -89 -60.5 -147t-150.5 -58q-57 0 -95 31.5t-38 87.5zM1276 1417q-278 -308 -475 -610
q-285 -435 -285 -698q0 -93 72 -93q103 0 310 215q133 138 261 310l12 -11q-404 -553 -645 -553q-131 0 -131 170q0 184 160 469h-209q-212 -268 -356 -399q-255 -235 -457 -235q-70 0 -118 26q-62 32 -62 96q0 35 20.5 62t55.5 27q59 0 59 -64q0 -41 -35 -68
q37 -41 127 -41q194 0 467 276q83 84 371 437q456 559 848 694zM1118 1346q-326 -162 -760 -715h205q219 389 555 715z" />
    <glyph glyph-name="AE" unicode="&#xc6;" horiz-adv-x="1896" 
d="M997 1212q-298 -233 -530 -559q122 -26 252 -26q45 0 69 2q136 391 469 542q-139 18 -260 41zM1135 1284q265 -43 450 -43q129 0 129 78q0 88 -207 88q-205 0 -372 -123zM1599 537q-378 -576 -692 -576q-55 0 -192.5 42t-210.5 42q-56 0 -162 -28.5t-149 -28.5
q-41 0 -41 24q0 23 126 38l173 16q131 77 215 238q52 99 116 306q-176 0 -323 29q-468 -649 -721 -649q-74 0 -126 33q-63 39 -63 108q0 82 76 82q78 0 78 -63q0 -44 -49 -60q34 -70 133 -70q201 0 625 586q154 212 284 351t281 257q-238 29 -365 29q-391 0 -628 -182
q-96 -73 -148.5 -162t-52.5 -174q0 -73 47 -118.5t121 -45.5q132 0 247 104.5t115 235.5q0 68 -53 127l10 8q62 -60 62 -149q0 -140 -109.5 -251.5t-249.5 -111.5q-206 0 -206 199q0 102 75 212q135 198 428 294q236 78 525 78q92 0 313 -21q196 135 399 135q228 0 228 -110
q0 -83 -117 -125q-84 -31 -186 -31q-64 0 -146 12q-133 -50 -238 -222q-65 -107 -138 -306q128 6 266 41q84 102 165 102q29 0 48 -4q-225 -174 -302 -395h-10q36 148 88 276q-155 -33 -264 -39q-116 -366 -422 -557q56 0 168 -7t168 -7q289 0 461 128q119 88 313 368z" />
    <glyph glyph-name="Ccedilla" unicode="&#xc7;" horiz-adv-x="1366" 
d="M553 1122l12 -2q-6 -28 -6 -55q0 -70 47 -112q44 -40 115 -40q120 0 228 110.5t108 231.5q0 68 -46.5 105t-115.5 37q-135 0 -319 -108q-261 -152 -454 -420q-214 -295 -214 -570q0 -136 58 -219q68 -96 198 -96q167 0 317 157.5t150 325.5q0 76 -39 128q-43 58 -117 58
q-95 0 -171 -80q-65 -66 -99 -167l-15 6q41 111 114 182q85 82 192 82q95 0 155 -56t60 -151q0 -201 -198 -361q-188 -151 -394 -151q-164 0 -257 101q-91 98 -91 264q0 160 107 358q105 195 286 367q178 171 379 271q194 97 342 97q102 0 166 -49q71 -55 71 -154
q0 -136 -119 -233q-112 -90 -251 -90q-84 0 -142 40q-65 45 -65 126q0 16 8 67zM10 -6l-94 -154q6 0 18.5 1t18.5 1q58 0 100.5 -33t42.5 -90q0 -108 -157 -170q-109 -42 -248 -51v17q317 34 317 176q0 80 -112 80q-17 0 -51 -6l143 229h22z" />
    <glyph glyph-name="Egrave" unicode="&#xc8;" horiz-adv-x="1366" 
d="M578 956l4 13q60 -15 90 -15q103 0 179.5 78.5t76.5 181.5q0 86 -53.5 139.5t-139.5 53.5q-108 0 -189 -60.5t-104 -155.5q-7 -28 -15 -167q-6 -99 -43 -151t-150 -105q-184 -88 -253 -153q-108 -103 -108 -267q0 -158 100.5 -254t259.5 -96q164 0 293 101
q140 109 140 268q0 78 -43.5 126t-120.5 48q-123 0 -273 -179l-12 9q153 194 342 194q88 0 143 -44q60 -48 60 -134q0 -138 -137 -254q-115 -96 -267 -138q-98 -26 -208 -26q-177 0 -287 76q-127 88 -127 258q0 173 132 287q61 53 253 150q146 73 164 137q5 19 11 141
q5 118 42 188q57 106 176 164q109 53 238 53q105 0 179 -48q85 -56 85 -156q0 -122 -108 -204q-98 -75 -224 -75q-50 0 -106 16zM657 1946h113q41 -267 43 -444l-18 -5q-76 329 -138 449z" />
    <glyph glyph-name="Eacute" unicode="&#xc9;" horiz-adv-x="1366" 
d="M578 956l4 13q60 -15 90 -15q103 0 179.5 78.5t76.5 181.5q0 86 -53.5 139.5t-139.5 53.5q-108 0 -189 -60.5t-104 -155.5q-7 -28 -15 -167q-6 -99 -43 -151t-150 -105q-184 -88 -253 -153q-108 -103 -108 -267q0 -158 100.5 -254t259.5 -96q164 0 293 101
q140 109 140 268q0 78 -43.5 126t-120.5 48q-123 0 -273 -179l-12 9q153 194 342 194q88 0 143 -44q60 -48 60 -134q0 -138 -137 -254q-115 -96 -267 -138q-98 -26 -208 -26q-177 0 -287 76q-127 88 -127 258q0 173 132 287q61 53 253 150q146 73 164 137q5 19 11 141
q5 118 42 188q57 106 176 164q109 53 238 53q105 0 179 -48q85 -56 85 -156q0 -122 -108 -204q-98 -75 -224 -75q-50 0 -106 16zM711 1522l272 411h137l-397 -418z" />
    <glyph glyph-name="Ecircumflex" unicode="&#xca;" horiz-adv-x="1366" 
d="M578 956l4 13q60 -15 90 -15q103 0 179.5 78.5t76.5 181.5q0 86 -53.5 139.5t-139.5 53.5q-108 0 -189 -60.5t-104 -155.5q-7 -28 -15 -167q-6 -99 -43 -151t-150 -105q-184 -88 -253 -153q-108 -103 -108 -267q0 -158 100.5 -254t259.5 -96q164 0 293 101
q140 109 140 268q0 78 -43.5 126t-120.5 48q-123 0 -273 -179l-12 9q153 194 342 194q88 0 143 -44q60 -48 60 -134q0 -138 -137 -254q-115 -96 -267 -138q-98 -26 -208 -26q-177 0 -287 76q-127 88 -127 258q0 173 132 287q61 53 253 150q146 73 164 137q5 19 11 141
q5 118 42 188q57 106 176 164q109 53 238 53q105 0 179 -48q85 -56 85 -156q0 -122 -108 -204q-98 -75 -224 -75q-50 0 -106 16zM946 1871q-29 -87 -29 -156q0 -170 105 -233l-13 -12q-182 70 -182 303l-311 -291l-8 10l368 379h70z" />
    <glyph glyph-name="Edieresis" unicode="&#xcb;" horiz-adv-x="1366" 
d="M578 956l4 13q60 -15 90 -15q103 0 179.5 78.5t76.5 181.5q0 86 -53.5 139.5t-139.5 53.5q-108 0 -189 -60.5t-104 -155.5q-7 -28 -15 -167q-6 -99 -43 -151t-150 -105q-184 -88 -253 -153q-108 -103 -108 -267q0 -158 100.5 -254t259.5 -96q164 0 293 101
q140 109 140 268q0 78 -43.5 126t-120.5 48q-123 0 -273 -179l-12 9q153 194 342 194q88 0 143 -44q60 -48 60 -134q0 -138 -137 -254q-115 -96 -267 -138q-98 -26 -208 -26q-177 0 -287 76q-127 88 -127 258q0 173 132 287q61 53 253 150q146 73 164 137q5 19 11 141
q5 118 42 188q57 106 176 164q109 53 238 53q105 0 179 -48q85 -56 85 -156q0 -122 -108 -204q-98 -75 -224 -75q-50 0 -106 16zM619 1677q0 26 19.5 46t45.5 20q27 0 46.5 -19.5t19.5 -46.5q0 -65 -66 -65q-65 0 -65 65zM877 1677q0 26 19.5 46t45.5 20q27 0 46.5 -19.5
t19.5 -46.5q0 -65 -66 -65q-65 0 -65 65z" />
    <glyph glyph-name="Igrave" unicode="&#xcc;" horiz-adv-x="1251" 
d="M-131 -27q-134 0 -228 54q-114 66 -114 190q0 115 90 115q78 0 78 -72q0 -76 -63 -76q-7 0 -15 2q24 -198 254 -198q204 0 401 215q123 134 314 455l28 47q315 529 633 636q-528 -5 -841.5 -140t-313.5 -347q0 -77 49.5 -129.5t126.5 -52.5q112 0 206 75q101 80 101 189
q0 24 -16 86l14 6q17 -58 17 -96q0 -122 -114 -204q-103 -73 -230 -73q-108 0 -177 58q-73 62 -73 168q0 124 122 230q283 245 1156 245h6q38 10 75 21q46 12 77 12q38 0 38 -19q0 -30 -87 -35h-109q-11 -1 -46 -23q-163 -102 -451 -562q-248 -397 -361 -517
q-245 -260 -547 -260zM882 1946h113q41 -267 43 -444l-18 -5q-76 329 -138 449z" />
    <glyph glyph-name="Iacute" unicode="&#xcd;" horiz-adv-x="1251" 
d="M-131 -27q-134 0 -228 54q-114 66 -114 190q0 115 90 115q78 0 78 -72q0 -76 -63 -76q-7 0 -15 2q24 -198 254 -198q204 0 401 215q123 134 314 455l28 47q315 529 633 636q-528 -5 -841.5 -140t-313.5 -347q0 -77 49.5 -129.5t126.5 -52.5q112 0 206 75q101 80 101 189
q0 24 -16 86l14 6q17 -58 17 -96q0 -122 -114 -204q-103 -73 -230 -73q-108 0 -177 58q-73 62 -73 168q0 124 122 230q283 245 1156 245h6q38 10 75 21q46 12 77 12q38 0 38 -19q0 -30 -87 -35h-109q-11 -1 -46 -23q-163 -102 -451 -562q-248 -397 -361 -517
q-245 -260 -547 -260zM936 1522l272 411h137l-397 -418z" />
    <glyph glyph-name="Icircumflex" unicode="&#xce;" horiz-adv-x="1251" 
d="M-131 -27q-134 0 -228 54q-114 66 -114 190q0 115 90 115q78 0 78 -72q0 -76 -63 -76q-7 0 -15 2q24 -198 254 -198q204 0 401 215q123 134 314 455l28 47q315 529 633 636q-528 -5 -841.5 -140t-313.5 -347q0 -77 49.5 -129.5t126.5 -52.5q112 0 206 75q101 80 101 189
q0 24 -16 86l14 6q17 -58 17 -96q0 -122 -114 -204q-103 -73 -230 -73q-108 0 -177 58q-73 62 -73 168q0 124 122 230q283 245 1156 245h6q38 10 75 21q46 12 77 12q38 0 38 -19q0 -30 -87 -35h-109q-11 -1 -46 -23q-163 -102 -451 -562q-248 -397 -361 -517
q-245 -260 -547 -260zM1200 1925q-29 -87 -29 -156q0 -170 105 -233l-13 -12q-182 70 -182 303l-311 -291l-8 10l368 379h70z" />
    <glyph glyph-name="Idieresis" unicode="&#xcf;" horiz-adv-x="1251" 
d="M-131 -27q-134 0 -228 54q-114 66 -114 190q0 115 90 115q78 0 78 -72q0 -76 -63 -76q-7 0 -15 2q24 -198 254 -198q204 0 401 215q123 134 314 455l28 47q315 529 633 636q-528 -5 -841.5 -140t-313.5 -347q0 -77 49.5 -129.5t126.5 -52.5q112 0 206 75q101 80 101 189
q0 24 -16 86l14 6q17 -58 17 -96q0 -122 -114 -204q-103 -73 -230 -73q-108 0 -177 58q-73 62 -73 168q0 124 122 230q283 245 1156 245h6q38 10 75 21q46 12 77 12q38 0 38 -19q0 -30 -87 -35h-109q-11 -1 -46 -23q-163 -102 -451 -562q-248 -397 -361 -517
q-245 -260 -547 -260zM844 1677q0 26 19.5 46t45.5 20q27 0 46.5 -19.5t19.5 -46.5q0 -65 -66 -65q-65 0 -65 65zM1102 1677q0 26 19.5 46t45.5 20q27 0 46.5 -19.5t19.5 -46.5q0 -65 -66 -65q-65 0 -65 65z" />
    <glyph glyph-name="Eth" unicode="&#xd0;" horiz-adv-x="1821" 
d="M1223 1253q-91 -101 -187 -264l-159 -282h266v-25h-283q-269 -546 -645 -664q156 -24 246 -24q283 0 493 174q194 160 295 440q64 178 64 342q0 176 -90 303zM621 707h129q232 422 440 579q-181 131 -391 131q-233 0 -450 -132q-222 -135 -314 -344q-55 -123 -55 -273
q0 -128 48 -211q60 -103 179 -103q137 0 241 100q91 87 140 228h-332v25h340q39 132 39 200q0 9 -1 27t-1 27l22 2v-31q0 -97 -34 -225zM1597 1468v-16q-192 -31 -358 -178q164 -168 164 -447q0 -180 -76 -344q-116 -248 -354 -381q-223 -125 -508 -125q-158 0 -283 25
q-96 -25 -153 -25q-162 0 -162 56q0 28 53 28q104 0 252 -36q135 30 249 153t316 504h-123q-57 -154 -160 -249q-119 -109 -270 -109q-142 0 -219 103q-69 92 -69 239q0 318 296 552q277 220 603 220q225 0 413 -138q184 143 389 168z" />
    <glyph glyph-name="Ntilde" unicode="&#xd1;" horiz-adv-x="1479" 
d="M565 184l2 -2q174 411 369 717q317 498 569 498q137 0 137 -127q0 -124 -169 -197l-9 8q84 33 84 131q0 119 -112 119q-96 0 -243 -140q-204 -196 -402 -573q-94 -179 -295 -643l-15 5q23 98 23 221q0 133 -37 396.5t-37 395.5q0 76 12 154q-282 -621 -502.5 -892
t-437.5 -271q-145 0 -145 106q0 29 20.5 51.5t49.5 22.5q71 0 71 -68q0 -27 -24 -43q40 -30 88 -30q315 0 779 948q31 62 89 188q6 14 34 107q19 64 47 102q35 47 62 47q4 0 9 -2l2 -6q-1 -7 -12 -30q-42 -86 -42 -177q0 -130 34 -389t34 -389q0 -108 -33 -238zM752 1579
q24 71 46 100q36 45 95 45q41 0 126 -30.5t130 -30.5q62 0 101 84l22 -4q-30 -76 -52 -104q-38 -50 -99 -50q-45 0 -128.5 34t-125.5 34q-71 0 -91 -80z" />
    <glyph glyph-name="Ograve" unicode="&#xd2;" horiz-adv-x="1593" 
d="M797 438q74 -35 159 -35q175 0 320 127l10 -12q-149 -131 -330 -131q-88 0 -170 37q-136 -180 -289 -298q-199 -153 -374 -153q-289 0 -289 336q0 202 110 411q106 200 301 377q218 198 414 236q86 74 183 74q107 0 165 -84q50 -72 50 -184q0 -338 -260 -701zM748 461
q213 388 213 674q0 249 -150 249q-66 0 -127 -47q193 0 193 -163q0 -29 -5 -52l-12 2q0 7 1 20.5t1 20.5q0 70 -42.5 114t-112.5 44q-21 0 -41 -2q-158 -164 -158 -406q0 -286 240 -454zM645 1317q-194 -59 -358 -246q-131 -149 -226 -358q-104 -229 -104 -406
q0 -301 238 -301q143 0 312 158q126 117 230 282q-262 173 -262 463q0 236 170 408zM688 1946h113q41 -267 43 -444l-18 -5q-76 329 -138 449z" />
    <glyph glyph-name="Oacute" unicode="&#xd3;" horiz-adv-x="1593" 
d="M797 438q74 -35 159 -35q175 0 320 127l10 -12q-149 -131 -330 -131q-88 0 -170 37q-136 -180 -289 -298q-199 -153 -374 -153q-289 0 -289 336q0 202 110 411q106 200 301 377q218 198 414 236q86 74 183 74q107 0 165 -84q50 -72 50 -184q0 -338 -260 -701zM748 461
q213 388 213 674q0 249 -150 249q-66 0 -127 -47q193 0 193 -163q0 -29 -5 -52l-12 2q0 7 1 20.5t1 20.5q0 70 -42.5 114t-112.5 44q-21 0 -41 -2q-158 -164 -158 -406q0 -286 240 -454zM645 1317q-194 -59 -358 -246q-131 -149 -226 -358q-104 -229 -104 -406
q0 -301 238 -301q143 0 312 158q126 117 230 282q-262 173 -262 463q0 236 170 408zM742 1522l272 411h137l-397 -418z" />
    <glyph glyph-name="Ocircumflex" unicode="&#xd4;" horiz-adv-x="1593" 
d="M797 438q74 -35 159 -35q175 0 320 127l10 -12q-149 -131 -330 -131q-88 0 -170 37q-136 -180 -289 -298q-199 -153 -374 -153q-289 0 -289 336q0 202 110 411q106 200 301 377q218 198 414 236q86 74 183 74q107 0 165 -84q50 -72 50 -184q0 -338 -260 -701zM748 461
q213 388 213 674q0 249 -150 249q-66 0 -127 -47q193 0 193 -163q0 -29 -5 -52l-12 2q0 7 1 20.5t1 20.5q0 70 -42.5 114t-112.5 44q-21 0 -41 -2q-158 -164 -158 -406q0 -286 240 -454zM645 1317q-194 -59 -358 -246q-131 -149 -226 -358q-104 -229 -104 -406
q0 -301 238 -301q143 0 312 158q126 117 230 282q-262 173 -262 463q0 236 170 408zM1000 1871q-29 -87 -29 -156q0 -170 105 -233l-13 -12q-182 70 -182 303l-311 -291l-8 10l368 379h70z" />
    <glyph glyph-name="Otilde" unicode="&#xd5;" horiz-adv-x="1593" 
d="M797 438q74 -35 159 -35q175 0 320 127l10 -12q-149 -131 -330 -131q-88 0 -170 37q-136 -180 -289 -298q-199 -153 -374 -153q-289 0 -289 336q0 202 110 411q106 200 301 377q218 198 414 236q86 74 183 74q107 0 165 -84q50 -72 50 -184q0 -338 -260 -701zM748 461
q213 388 213 674q0 249 -150 249q-66 0 -127 -47q193 0 193 -163q0 -29 -5 -52l-12 2q0 7 1 20.5t1 20.5q0 70 -42.5 114t-112.5 44q-21 0 -41 -2q-158 -164 -158 -406q0 -286 240 -454zM645 1317q-194 -59 -358 -246q-131 -149 -226 -358q-104 -229 -104 -406
q0 -301 238 -301q143 0 312 158q126 117 230 282q-262 173 -262 463q0 236 170 408zM539 1579q24 71 46 100q36 45 95 45q41 0 126 -30.5t130 -30.5q62 0 101 84l22 -4q-30 -76 -52 -104q-38 -50 -99 -50q-45 0 -128.5 34t-125.5 34q-71 0 -91 -80z" />
    <glyph glyph-name="Odieresis" unicode="&#xd6;" horiz-adv-x="1593" 
d="M797 438q74 -35 159 -35q175 0 320 127l10 -12q-149 -131 -330 -131q-88 0 -170 37q-136 -180 -289 -298q-199 -153 -374 -153q-289 0 -289 336q0 202 110 411q106 200 301 377q218 198 414 236q86 74 183 74q107 0 165 -84q50 -72 50 -184q0 -338 -260 -701zM748 461
q213 388 213 674q0 249 -150 249q-66 0 -127 -47q193 0 193 -163q0 -29 -5 -52l-12 2q0 7 1 20.5t1 20.5q0 70 -42.5 114t-112.5 44q-21 0 -41 -2q-158 -164 -158 -406q0 -286 240 -454zM645 1317q-194 -59 -358 -246q-131 -149 -226 -358q-104 -229 -104 -406
q0 -301 238 -301q143 0 312 158q126 117 230 282q-262 173 -262 463q0 236 170 408zM650 1677q0 26 19.5 46t45.5 20q27 0 46.5 -19.5t19.5 -46.5q0 -65 -66 -65q-65 0 -65 65zM908 1677q0 26 19.5 46t45.5 20q27 0 46.5 -19.5t19.5 -46.5q0 -65 -66 -65q-65 0 -65 65z" />
    <glyph glyph-name="multiply" unicode="&#xd7;" horiz-adv-x="1706" 
d="M367 1155l487 -487l487 487l58 -57l-488 -488l488 -487l-58 -57l-487 487l-487 -487l-58 57l488 487l-488 488z" />
    <glyph glyph-name="Oslash" unicode="&#xd8;" horiz-adv-x="1366" 
d="M-23 152l840 1032q-35 102 -147 102q-91 0 -209 -76q-201 -130 -353 -399q-153 -272 -153 -508q0 -67 22 -151zM934 1286l-94 -112q4 -51 4 -56q0 -36 -3 -55h-16q0 8 1 25t1 27v38l-837 -1024q59 -121 200 -121q129 0 281 125q297 245 433 682q57 182 57 313
q0 62 -27 158zM141 1087q112 154 256 249q166 108 336 108q139 0 234 -78l106 131l19 -14l-109 -137q74 -85 74 -228q0 -267 -191 -577q-180 -291 -416 -449q-179 -119 -327 -119q-131 0 -201 70l-123 -145l-16 16l123 147q-72 102 -72 248q0 175 82 354q81 175 234 334
q293 303 522 303q115 0 159 -100l91 107q-67 108 -220 108q-151 0 -309 -108q-132 -90 -239 -232z" />
    <glyph glyph-name="Ugrave" unicode="&#xd9;" horiz-adv-x="1706" 
d="M1290 1376l144 8l-623 -960q-141 -217 -141 -324q0 -38 29 -67t67 -29q99 0 276 149t349 390l12 -11q-395 -555 -674 -555q-162 0 -162 166q0 91 74 209q-125 -141 -257 -239q-180 -133 -312 -133q-144 0 -144 149q0 82 85 230q26 44 137 211q413 620 413 706
q0 117 -110 117q-182 0 -375 -168q-199 -173 -199 -351q0 -63 37.5 -109t99.5 -46q103 0 248 158l8 -9q-119 -172 -264 -172q-67 0 -114.5 49.5t-47.5 116.5q0 86 56 189q82 149 245 254q168 110 332 110q189 0 189 -168q0 -93 -281 -516q-177 -266 -206 -314
q-146 -238 -146 -321q0 -35 27.5 -60.5t62.5 -25.5q48 0 147 53q274 146 527 543zM867 1946h113q41 -267 43 -444l-18 -5q-76 329 -138 449z" />
    <glyph glyph-name="Uacute" unicode="&#xda;" horiz-adv-x="1706" 
d="M1290 1376l144 8l-623 -960q-141 -217 -141 -324q0 -38 29 -67t67 -29q99 0 276 149t349 390l12 -11q-395 -555 -674 -555q-162 0 -162 166q0 91 74 209q-125 -141 -257 -239q-180 -133 -312 -133q-144 0 -144 149q0 82 85 230q26 44 137 211q413 620 413 706
q0 117 -110 117q-182 0 -375 -168q-199 -173 -199 -351q0 -63 37.5 -109t99.5 -46q103 0 248 158l8 -9q-119 -172 -264 -172q-67 0 -114.5 49.5t-47.5 116.5q0 86 56 189q82 149 245 254q168 110 332 110q189 0 189 -168q0 -93 -281 -516q-177 -266 -206 -314
q-146 -238 -146 -321q0 -35 27.5 -60.5t62.5 -25.5q48 0 147 53q274 146 527 543zM974 1522l272 411h137l-397 -418z" />
    <glyph glyph-name="Ucircumflex" unicode="&#xdb;" horiz-adv-x="1706" 
d="M1290 1376l144 8l-623 -960q-141 -217 -141 -324q0 -38 29 -67t67 -29q99 0 276 149t349 390l12 -11q-395 -555 -674 -555q-162 0 -162 166q0 91 74 209q-125 -141 -257 -239q-180 -133 -312 -133q-144 0 -144 149q0 82 85 230q26 44 137 211q413 620 413 706
q0 117 -110 117q-182 0 -375 -168q-199 -173 -199 -351q0 -63 37.5 -109t99.5 -46q103 0 248 158l8 -9q-119 -172 -264 -172q-67 0 -114.5 49.5t-47.5 116.5q0 86 56 189q82 149 245 254q168 110 332 110q189 0 189 -168q0 -93 -281 -516q-177 -266 -206 -314
q-146 -238 -146 -321q0 -35 27.5 -60.5t62.5 -25.5q48 0 147 53q274 146 527 543zM1284 1925q-29 -87 -29 -156q0 -170 105 -233l-13 -12q-182 70 -182 303l-311 -291l-8 10l368 379h70z" />
    <glyph glyph-name="Udieresis" unicode="&#xdc;" horiz-adv-x="1706" 
d="M1290 1376l144 8l-623 -960q-141 -217 -141 -324q0 -38 29 -67t67 -29q99 0 276 149t349 390l12 -11q-395 -555 -674 -555q-162 0 -162 166q0 91 74 209q-125 -141 -257 -239q-180 -133 -312 -133q-144 0 -144 149q0 82 85 230q26 44 137 211q413 620 413 706
q0 117 -110 117q-182 0 -375 -168q-199 -173 -199 -351q0 -63 37.5 -109t99.5 -46q103 0 248 158l8 -9q-119 -172 -264 -172q-67 0 -114.5 49.5t-47.5 116.5q0 86 56 189q82 149 245 254q168 110 332 110q189 0 189 -168q0 -93 -281 -516q-177 -266 -206 -314
q-146 -238 -146 -321q0 -35 27.5 -60.5t62.5 -25.5q48 0 147 53q274 146 527 543zM928 1677q0 26 19.5 46t45.5 20q27 0 46.5 -19.5t19.5 -46.5q0 -65 -66 -65q-65 0 -65 65zM1186 1677q0 26 19.5 46t45.5 20q27 0 46.5 -19.5t19.5 -46.5q0 -65 -66 -65q-65 0 -65 65z" />
    <glyph glyph-name="Yacute" unicode="&#xdd;" horiz-adv-x="1593" 
d="M1358 1370l141 4l-924 -1411q-360 -549 -778 -549q-132 0 -226 58q-110 69 -110 194q0 94 63 161t157 67q103 0 182 -54l-6 -12q-52 37 -113 37q-82 0 -129 -59q-43 -53 -43 -138q0 -109 68 -171t178 -62q212 0 421 237q83 94 293 419q135 208 218 315l-7 4
q-375 -435 -641 -435q-67 0 -105 46q-36 43 -36 112q0 87 117 273l174 254q358 523 358 632q0 94 -112 94q-78 0 -194 -55q-152 -73 -252 -190q-115 -135 -115 -285q0 -139 120 -139q131 0 250 153l12 -10q-127 -162 -268 -162q-76 0 -120 47.5t-44 124.5q0 84 56 182
q85 144 252 248q173 107 335 107q78 0 127 -37q54 -41 54 -117q0 -127 -320 -591l-192 -280q-133 -210 -133 -286q0 -94 88 -94q55 0 169 62q289 156 562 577zM1106 1522l272 411h137l-397 -418z" />
    <glyph glyph-name="Thorn" unicode="&#xde;" horiz-adv-x="1593" 
d="M983 1018l-303 -502q8 -66 48 -108q44 -46 108 -46q126 0 229 161q94 146 94 280q0 180 -176 215zM1561 1464l-5 -20q-307 -19 -557 -406q267 -58 267 -288q0 -168 -126.5 -289t-295.5 -121q-151 0 -182 145q-125 -215 -309 -350q-209 -153 -435 -153q-128 0 -230 65
q-118 74 -118 195q0 46 23 79q25 39 69 39q80 0 80 -69q0 -78 -82 -78v-16q0 -95 91 -150q77 -45 179 -45q242 0 464 267q101 122 305 478q105 183 179 295q-104 7 -116 7q-350 0 -565 -170q-102 -81 -154.5 -163t-52.5 -155q0 -74 42 -119t115 -45q117 0 198 93
q77 90 77 208v23l16 -4v-12q0 -141 -85 -236q-89 -98 -228 -98q-95 0 -159 56.5t-64 150.5q0 90 76 189q117 150 343 232q197 72 414 72q59 0 158 -8q263 367 668 401z" />
    <glyph glyph-name="germandbls" unicode="&#xdf;" horiz-adv-x="1137" 
d="M541 1356q96 0 162 -56q71 -59 71 -153q0 -117 -100 -203q-58 -50 -202 -119q-126 -60 -162 -89q-79 -63 -79 -158q0 -56 50.5 -172t50.5 -179q0 -163 -178 -221v-4q339 55 655 526l14 -8q-382 -540 -762 -540q-91 0 -151 49q-64 53 -64 143q0 58 31 99q34 46 90 46
q76 0 76 -71q0 -64 -68 -64q-47 0 -53 47q-31 -39 -31 -86q0 -139 148 -139q86 0 135 57q45 54 45 142q0 52 -44 168t-44 176q0 102 159 204l244 143q101 75 148 186q25 59 25 104q0 66 -47.5 107.5t-114.5 41.5q-168 0 -332 -173q-98 -102 -229 -316l-514 -838
q-364 -594 -801 -594q-139 0 -227 46q-113 60 -113 186q0 81 59 134q57 50 139 50q43 0 87 -8l-4 -14q-7 1 -29 1q-68 0 -110 -46t-42 -115q0 -101 74 -161q69 -56 172 -56q167 0 333.5 152.5t407.5 537.5l473 758q299 479 652 479z" />
    <glyph glyph-name="agrave" unicode="&#xe0;" 
d="M147 565l72 117l139 6q-109 -145 -221 -318q-166 -255 -166 -321q0 -45 49 -45q170 0 574 539l12 -11q-401 -552 -606 -552q-47 0 -79 28t-32 74q0 55 56 135l-6 6q-72 -90 -159 -154q-110 -81 -200 -81q-131 0 -131 153q0 72 53 175q73 142 209 255q155 129 295 129
q121 0 141 -135zM86 582q0 104 -82 104q-54 0 -142 -66q-110 -83 -196 -221q-94 -151 -94 -274q0 -94 76 -94q90 0 220 139q106 112 163 222q55 106 55 190zM-68 1262h113q41 -267 43 -444l-18 -5q-76 329 -138 449z" />
    <glyph glyph-name="aacute" unicode="&#xe1;" 
d="M147 565l72 117l139 6q-109 -145 -221 -318q-166 -255 -166 -321q0 -45 49 -45q170 0 574 539l12 -11q-401 -552 -606 -552q-47 0 -79 28t-32 74q0 55 56 135l-6 6q-72 -90 -159 -154q-110 -81 -200 -81q-131 0 -131 153q0 72 53 175q73 142 209 255q155 129 295 129
q121 0 141 -135zM86 582q0 104 -82 104q-54 0 -142 -66q-110 -83 -196 -221q-94 -151 -94 -274q0 -94 76 -94q90 0 220 139q106 112 163 222q55 106 55 190zM-14 838l272 411h137l-397 -418z" />
    <glyph glyph-name="acircumflex" unicode="&#xe2;" 
d="M147 565l72 117l139 6q-109 -145 -221 -318q-166 -255 -166 -321q0 -45 49 -45q170 0 574 539l12 -11q-401 -552 -606 -552q-47 0 -79 28t-32 74q0 55 56 135l-6 6q-72 -90 -159 -154q-110 -81 -200 -81q-131 0 -131 153q0 72 53 175q73 142 209 255q155 129 295 129
q121 0 141 -135zM86 582q0 104 -82 104q-54 0 -142 -66q-110 -83 -196 -221q-94 -151 -94 -274q0 -94 76 -94q90 0 220 139q106 112 163 222q55 106 55 190zM338 1241q-29 -87 -29 -156q0 -170 105 -233l-13 -12q-182 70 -182 303l-311 -291l-8 10l368 379h70z" />
    <glyph glyph-name="atilde" unicode="&#xe3;" 
d="M147 565l72 117l139 6q-109 -145 -221 -318q-166 -255 -166 -321q0 -45 49 -45q170 0 574 539l12 -11q-401 -552 -606 -552q-47 0 -79 28t-32 74q0 55 56 135l-6 6q-72 -90 -159 -154q-110 -81 -200 -81q-131 0 -131 153q0 72 53 175q73 142 209 255q155 129 295 129
q121 0 141 -135zM86 582q0 104 -82 104q-54 0 -142 -66q-110 -83 -196 -221q-94 -151 -94 -274q0 -94 76 -94q90 0 220 139q106 112 163 222q55 106 55 190zM-217 895q24 71 46 100q36 45 95 45q41 0 126 -30.5t130 -30.5q62 0 101 84l22 -4q-30 -76 -52 -104
q-38 -50 -99 -50q-45 0 -128.5 34t-125.5 34q-71 0 -91 -80z" />
    <glyph glyph-name="adieresis" unicode="&#xe4;" 
d="M147 565l72 117l139 6q-109 -145 -221 -318q-166 -255 -166 -321q0 -45 49 -45q170 0 574 539l12 -11q-401 -552 -606 -552q-47 0 -79 28t-32 74q0 55 56 135l-6 6q-72 -90 -159 -154q-110 -81 -200 -81q-131 0 -131 153q0 72 53 175q73 142 209 255q155 129 295 129
q121 0 141 -135zM86 582q0 104 -82 104q-54 0 -142 -66q-110 -83 -196 -221q-94 -151 -94 -274q0 -94 76 -94q90 0 220 139q106 112 163 222q55 106 55 190zM-106 993q0 26 19.5 46t45.5 20q27 0 46.5 -19.5t19.5 -46.5q0 -65 -66 -65q-65 0 -65 65zM152 993q0 26 19.5 46
t45.5 20q27 0 46.5 -19.5t19.5 -46.5q0 -65 -66 -65q-65 0 -65 65z" />
    <glyph glyph-name="aring" unicode="&#xe5;" 
d="M252 1137q-58 0 -115 -73q-53 -69 -53 -130q0 -80 72 -80q61 0 116 70q52 66 52 129q0 84 -72 84zM27 952q0 81 66 144t147 63q56 0 93.5 -35t37.5 -90q0 -86 -62 -142t-149 -56q-57 0 -93 29q-40 32 -40 87zM86 582q0 104 -82 104q-54 0 -142 -66q-110 -83 -196 -221
q-94 -151 -94 -274q0 -94 76 -94q90 0 220 139q106 112 163 222q55 106 55 190zM147 565l72 117l139 6q-109 -145 -221 -318q-166 -255 -166 -321q0 -45 49 -45q170 0 574 539l12 -11q-401 -552 -606 -552q-47 0 -79 28t-32 74q0 55 56 135l-6 6q-72 -90 -159 -154
q-110 -81 -200 -81q-131 0 -131 153q0 72 53 175q73 142 209 255q155 129 295 129q121 0 141 -135z" />
    <glyph glyph-name="ae" unicode="&#xe6;" horiz-adv-x="1159" 
d="M131 358q133 40 235 99q152 88 152 180q0 53 -55 53q-59 0 -160 -96t-172 -236zM86 582q0 104 -82 104q-54 0 -142 -66q-110 -83 -196 -221q-94 -151 -94 -274q0 -94 76 -94q90 0 220 139q106 112 163 222q55 106 55 190zM147 565l64 117l133 6l-22 -41q100 66 186 66
q113 0 113 -78q0 -132 -498 -295q-51 -110 -51 -199q0 -129 110 -129q161 0 375 199q150 140 287 334l14 -10q-142 -213 -318 -364q-229 -198 -425 -198q-166 0 -166 174q0 21 5 83l-5 3q-198 -245 -369 -245q-131 0 -131 153q0 73 53 175q73 142 209 255q155 129 295 129
q121 0 141 -135z" />
    <glyph glyph-name="ccedilla" unicode="&#xe7;" horiz-adv-x="682" 
d="M43 533q16 46 16 75q0 76 -71 76q-39 0 -108 -49q-112 -79 -200 -221q-94 -152 -94 -279q0 -131 117 -131q156 0 376 205q154 143 292 336l14 -13q-156 -218 -326 -366q-236 -205 -430 -205q-81 0 -126.5 49.5t-45.5 130.5q0 181 199 373.5t381 192.5q137 0 137 -91
q0 -37 -34 -62.5t-72 -25.5q-8 0 -25 5zM-332 -6l-94 -154q6 0 18.5 1t18.5 1q58 0 100.5 -33t42.5 -90q0 -108 -157 -170q-109 -42 -248 -51v17q317 34 317 176q0 80 -112 80q-17 0 -51 -6l143 229h22z" />
    <glyph glyph-name="egrave" unicode="&#xe8;" horiz-adv-x="682" 
d="M-352 340q-51 -106 -51 -199q0 -129 112 -129q160 0 373 198q150 140 287 335l14 -10q-147 -218 -320 -366q-229 -196 -430 -196q-75 0 -117 46t-42 122q0 188 187.5 380t375.5 192q110 0 110 -78q0 -132 -499 -295zM-344 358q135 41 236 99q151 87 151 180q0 53 -55 53
q-79 0 -191 -129q-87 -100 -141 -203zM-158 1262h113q41 -267 43 -444l-18 -5q-76 329 -138 449z" />
    <glyph glyph-name="eacute" unicode="&#xe9;" horiz-adv-x="682" 
d="M-352 340q-51 -106 -51 -199q0 -129 112 -129q160 0 373 198q150 140 287 335l14 -10q-147 -218 -320 -366q-229 -196 -430 -196q-75 0 -117 46t-42 122q0 188 187.5 380t375.5 192q110 0 110 -78q0 -132 -499 -295zM-344 358q135 41 236 99q151 87 151 180q0 53 -55 53
q-79 0 -191 -129q-87 -100 -141 -203zM-104 838l272 411h137l-397 -418z" />
    <glyph glyph-name="ecircumflex" unicode="&#xea;" horiz-adv-x="682" 
d="M-352 340q-51 -106 -51 -199q0 -129 112 -129q160 0 373 198q150 140 287 335l14 -10q-147 -218 -320 -366q-229 -196 -430 -196q-75 0 -117 46t-42 122q0 188 187.5 380t375.5 192q110 0 110 -78q0 -132 -499 -295zM-344 358q135 41 236 99q151 87 151 180q0 53 -55 53
q-79 0 -191 -129q-87 -100 -141 -203zM209 1241q-29 -87 -29 -156q0 -170 105 -233l-13 -12q-182 70 -182 303l-311 -291l-8 10l368 379h70z" />
    <glyph glyph-name="edieresis" unicode="&#xeb;" horiz-adv-x="682" 
d="M-352 340q-51 -106 -51 -199q0 -129 112 -129q160 0 373 198q150 140 287 335l14 -10q-147 -218 -320 -366q-229 -196 -430 -196q-75 0 -117 46t-42 122q0 188 187.5 380t375.5 192q110 0 110 -78q0 -132 -499 -295zM-344 358q135 41 236 99q151 87 151 180q0 53 -55 53
q-79 0 -191 -129q-87 -100 -141 -203zM-196 993q0 26 19.5 46t45.5 20q27 0 46.5 -19.5t19.5 -46.5q0 -65 -66 -65q-65 0 -65 65zM62 993q0 26 19.5 46t45.5 20q27 0 46.5 -19.5t19.5 -46.5q0 -65 -66 -65q-65 0 -65 65z" />
    <glyph glyph-name="igrave" unicode="&#xec;" horiz-adv-x="465" 
d="M-90 690q-393 -580 -393 -635q0 -39 41 -39q83 0 251 147q166 144 336 380l17 -11q-418 -540 -623 -540q-47 0 -76.5 32t-29.5 80q0 76 82 199l252 377zM-218 1262h113q41 -267 43 -444l-18 -5q-76 329 -138 449z" />
    <glyph glyph-name="iacute" unicode="&#xed;" horiz-adv-x="465" 
d="M-90 690q-393 -580 -393 -635q0 -39 41 -39q83 0 251 147q166 144 336 380l17 -11q-418 -540 -623 -540q-47 0 -76.5 32t-29.5 80q0 76 82 199l252 377zM-164 838l272 411h137l-397 -418z" />
    <glyph glyph-name="icircumflex" unicode="&#xee;" horiz-adv-x="465" 
d="M-90 690q-393 -580 -393 -635q0 -39 41 -39q83 0 251 147q166 144 336 380l17 -11q-418 -540 -623 -540q-47 0 -76.5 32t-29.5 80q0 76 82 199l252 377zM100 1241q-29 -87 -29 -156q0 -170 105 -233l-13 -12q-182 70 -182 303l-311 -291l-8 10l368 379h70z" />
    <glyph glyph-name="idieresis" unicode="&#xef;" horiz-adv-x="465" 
d="M-90 690q-393 -580 -393 -635q0 -39 41 -39q83 0 251 147q166 144 336 380l17 -11q-418 -540 -623 -540q-47 0 -76.5 32t-29.5 80q0 76 82 199l252 377zM-256 993q0 26 19.5 46t45.5 20q27 0 46.5 -19.5t19.5 -46.5q0 -65 -66 -65q-65 0 -65 65zM2 993q0 26 19.5 46
t45.5 20q27 0 46.5 -19.5t19.5 -46.5q0 -65 -66 -65q-65 0 -65 65z" />
    <glyph glyph-name="eth" unicode="&#xf0;" horiz-adv-x="854" 
d="M31 702q-48 0 -111 -41q-127 -84 -221 -234q-100 -159 -100 -302q0 -123 79 -123q141 0 290 237q136 218 136 371q0 92 -73 92zM116 697q3 31 3 59q0 231 -90 374l-336 -186l-10 23l331 180q-122 184 -376 184q-158 0 -287 -76l-10 19q167 112 372 112q260 0 396 -192
l280 145l10 -18l-276 -145q102 -176 102 -394q0 -391 -317 -682q316 102 629 432l10 -8q-166 -183 -322 -287q-109 -74 -235 -124q-46 -15 -111 -39l-37 -25q-43 -27 -82 -43q-58 -24 -102 -24q-168 0 -168 180q0 111 56 213q65 118 212 228q158 118 281 118q35 0 77 -24z
" />
    <glyph glyph-name="ntilde" unicode="&#xf1;" 
d="M594 545l12 -10q-391 -545 -612 -545q-52 0 -82.5 34t-30.5 87q0 77 150.5 289t150.5 247q0 47 -49 47q-123 0 -303 -189t-338 -495l-143 -10l432 688l137 8l-252 -352l8 -4q272 377 478 377q49 0 85.5 -29t36.5 -76q0 -64 -153.5 -280t-153.5 -273q0 -45 56 -45
q109 0 314 217q133 141 257 314zM-217 895q24 71 46 100q36 45 95 45q41 0 126 -30.5t130 -30.5q62 0 101 84l22 -4q-30 -76 -52 -104q-38 -50 -99 -50q-45 0 -128.5 34t-125.5 34q-71 0 -91 -80z" />
    <glyph glyph-name="ograve" unicode="&#xf2;" horiz-adv-x="891" 
d="M578 543l12 -8q-115 -140 -236 -140q-123 0 -159 125q-17 -107 -70 -199q-72 -126 -206 -225q-149 -110 -279 -110q-164 0 -164 188q0 177 198 363q195 184 373 184q114 0 162 -196q28 -113 145 -113q114 0 224 131zM96 590q0 108 -84 108q-96 0 -219 -143
q-95 -110 -155 -232q-56 -116 -56 -198q0 -48 23 -81q25 -38 71 -38q51 0 123 54q105 78 198 239q99 169 99 291zM-76 1262h113q41 -267 43 -444l-18 -5q-76 329 -138 449z" />
    <glyph glyph-name="oacute" unicode="&#xf3;" horiz-adv-x="891" 
d="M578 543l12 -8q-115 -140 -236 -140q-123 0 -159 125q-17 -107 -70 -199q-72 -126 -206 -225q-149 -110 -279 -110q-164 0 -164 188q0 177 198 363q195 184 373 184q114 0 162 -196q28 -113 145 -113q114 0 224 131zM96 590q0 108 -84 108q-96 0 -219 -143
q-95 -110 -155 -232q-56 -116 -56 -198q0 -48 23 -81q25 -38 71 -38q51 0 123 54q105 78 198 239q99 169 99 291zM-22 838l272 411h137l-397 -418z" />
    <glyph glyph-name="ocircumflex" unicode="&#xf4;" horiz-adv-x="891" 
d="M578 543l12 -8q-115 -140 -236 -140q-123 0 -159 125q-17 -107 -70 -199q-72 -126 -206 -225q-149 -110 -279 -110q-164 0 -164 188q0 177 198 363q195 184 373 184q114 0 162 -196q28 -113 145 -113q114 0 224 131zM96 590q0 108 -84 108q-96 0 -219 -143
q-95 -110 -155 -232q-56 -116 -56 -198q0 -48 23 -81q25 -38 71 -38q51 0 123 54q105 78 198 239q99 169 99 291zM242 1241q-29 -87 -29 -156q0 -170 105 -233l-13 -12q-182 70 -182 303l-311 -291l-8 10l368 379h70z" />
    <glyph glyph-name="otilde" unicode="&#xf5;" horiz-adv-x="891" 
d="M578 543l12 -8q-115 -140 -236 -140q-123 0 -159 125q-17 -107 -70 -199q-72 -126 -206 -225q-149 -110 -279 -110q-164 0 -164 188q0 177 198 363q195 184 373 184q114 0 162 -196q28 -113 145 -113q114 0 224 131zM96 590q0 108 -84 108q-96 0 -219 -143
q-95 -110 -155 -232q-56 -116 -56 -198q0 -48 23 -81q25 -38 71 -38q51 0 123 54q105 78 198 239q99 169 99 291zM-225 895q24 71 46 100q36 45 95 45q41 0 126 -30.5t130 -30.5q62 0 101 84l22 -4q-30 -76 -52 -104q-38 -50 -99 -50q-45 0 -128.5 34t-125.5 34
q-71 0 -91 -80z" />
    <glyph glyph-name="odieresis" unicode="&#xf6;" horiz-adv-x="891" 
d="M578 543l12 -8q-115 -140 -236 -140q-123 0 -159 125q-17 -107 -70 -199q-72 -126 -206 -225q-149 -110 -279 -110q-164 0 -164 188q0 177 198 363q195 184 373 184q114 0 162 -196q28 -113 145 -113q114 0 224 131zM96 590q0 108 -84 108q-96 0 -219 -143
q-95 -110 -155 -232q-56 -116 -56 -198q0 -48 23 -81q25 -38 71 -38q51 0 123 54q105 78 198 239q99 169 99 291zM-114 993q0 26 19.5 46t45.5 20q27 0 46.5 -19.5t19.5 -46.5q0 -65 -66 -65q-65 0 -65 65zM144 993q0 26 19.5 46t45.5 20q27 0 46.5 -19.5t19.5 -46.5
q0 -65 -66 -65q-65 0 -65 65z" />
    <glyph glyph-name="divide" unicode="&#xf7;" horiz-adv-x="1706" 
d="M854 365q42 0 70 -29.5t28 -71.5q0 -41 -28.5 -69.5t-69.5 -28.5t-69.5 28.5t-28.5 69.5t28.5 71t69.5 30zM254 651h1198v-82h-1198v82zM854 1055q42 0 70 -28.5t28 -70.5q0 -41 -28.5 -70.5t-69.5 -29.5t-69.5 29.5t-28.5 70.5t28.5 70t69.5 29z" />
    <glyph glyph-name="oslash" unicode="&#xf8;" horiz-adv-x="891" 
d="M-409 70l483 600q-26 24 -64 24q-124 0 -280 -218q-148 -206 -148 -337q0 -5 9 -69zM-397 49q27 -43 73 -43t108 44q105 72 206 235q106 173 106 290q0 28 -8 74zM578 543l12 -8q-115 -140 -236 -140q-123 0 -159 125q-17 -107 -70 -199q-73 -128 -208 -227
q-148 -108 -282 -108q-36 0 -72 9l-106 -130l-20 14l104 131q-65 57 -65 162q0 177 199 364q196 185 374 185q21 0 53 -10l88 104l19 -14l-82 -103q44 -29 66 -108q28 -101 40 -121q35 -57 121 -57q114 0 224 131z" />
    <glyph glyph-name="ugrave" unicode="&#xf9;" 
d="M358 692q-393 -552 -393 -624q0 -54 51 -54q79 0 243.5 144.5t330.5 371.5l10 -8q-130 -182 -271 -323q-209 -209 -341 -209q-117 0 -117 112q0 63 49 136l-4 2q-203 -254 -377 -254q-119 0 -119 102q0 65 39 123l312 467l151 14l-346 -489q-57 -81 -57 -133
q0 -58 49 -58q236 0 637 668zM-35 1262h113q41 -267 43 -444l-18 -5q-76 329 -138 449z" />
    <glyph glyph-name="uacute" unicode="&#xfa;" 
d="M358 692q-393 -552 -393 -624q0 -54 51 -54q79 0 243.5 144.5t330.5 371.5l10 -8q-130 -182 -271 -323q-209 -209 -341 -209q-117 0 -117 112q0 63 49 136l-4 2q-203 -254 -377 -254q-119 0 -119 102q0 65 39 123l312 467l151 14l-346 -489q-57 -81 -57 -133
q0 -58 49 -58q236 0 637 668zM-14 838l272 411h137l-397 -418z" />
    <glyph glyph-name="ucircumflex" unicode="&#xfb;" 
d="M358 692q-393 -552 -393 -624q0 -54 51 -54q79 0 243.5 144.5t330.5 371.5l10 -8q-130 -182 -271 -323q-209 -209 -341 -209q-117 0 -117 112q0 63 49 136l-4 2q-203 -254 -377 -254q-119 0 -119 102q0 65 39 123l312 467l151 14l-346 -489q-57 -81 -57 -133
q0 -58 49 -58q236 0 637 668zM250 1241q-29 -87 -29 -156q0 -170 105 -233l-13 -12q-182 70 -182 303l-311 -291l-8 10l368 379h70z" />
    <glyph glyph-name="udieresis" unicode="&#xfc;" 
d="M358 692q-393 -552 -393 -624q0 -54 51 -54q79 0 243.5 144.5t330.5 371.5l10 -8q-130 -182 -271 -323q-209 -209 -341 -209q-117 0 -117 112q0 63 49 136l-4 2q-203 -254 -377 -254q-119 0 -119 102q0 65 39 123l312 467l151 14l-346 -489q-57 -81 -57 -133
q0 -58 49 -58q236 0 637 668zM-106 993q0 26 19.5 46t45.5 20q27 0 46.5 -19.5t19.5 -46.5q0 -65 -66 -65q-65 0 -65 65zM152 993q0 26 19.5 46t45.5 20q27 0 46.5 -19.5t19.5 -46.5q0 -65 -66 -65q-65 0 -65 65z" />
    <glyph glyph-name="yacute" unicode="&#xfd;" horiz-adv-x="918" 
d="M367 690l-445 -670q377 81 678 523l12 -13q-320 -464 -706 -530q-344 -590 -832 -590q-126 0 -213 48q-108 59 -108 175q0 87 64 142q61 53 149 53q42 0 76 -8l-3 -19q-14 2 -40 2q-65 0 -105 -53q-35 -48 -35 -115q0 -95 65 -150q61 -52 158 -52q208 0 394 173.5
t481 672.5l-6 4q-237 -289 -432 -289q-97 0 -97 98q0 69 60 156l295 430l157 12q-401 -493 -401 -606q0 -57 61 -57q91 0 264 179t349 472zM62 838l272 411h137l-397 -418z" />
    <glyph glyph-name="thorn" unicode="&#xfe;" horiz-adv-x="891" 
d="M-55 188q-287 -45 -287 -133q0 -41 45 -41q81 0 242 174zM190 1364l127 6l-403 -623q-104 -161 -190 -280l8 -2q197 256 354 256q147 0 147 -154q0 -168 -176 -346q287 66 521 324l12 -10q-230 -268 -543 -334q-219 -201 -375 -201q-82 0 -82 53q0 88 367 154
q149 198 149 383q0 100 -71 100q-155 0 -418 -434l-512 -846l-121 -6z" />
    <glyph glyph-name="ydieresis" unicode="&#xff;" horiz-adv-x="918" 
d="M367 690l-445 -670q377 81 678 523l12 -13q-320 -464 -706 -530q-344 -590 -832 -590q-126 0 -213 48q-108 59 -108 175q0 87 64 142q61 53 149 53q42 0 76 -8l-3 -19q-14 2 -40 2q-65 0 -105 -53q-35 -48 -35 -115q0 -95 65 -150q61 -52 158 -52q208 0 394 173.5
t481 672.5l-6 4q-237 -289 -432 -289q-97 0 -97 98q0 69 60 156l295 430l157 12q-401 -493 -401 -606q0 -57 61 -57q91 0 264 179t349 472zM-30 993q0 26 19.5 46t45.5 20q27 0 46.5 -19.5t19.5 -46.5q0 -65 -66 -65q-65 0 -65 65zM228 993q0 26 19.5 46t45.5 20
q27 0 46.5 -19.5t19.5 -46.5q0 -65 -66 -65q-65 0 -65 65z" />
    <glyph glyph-name="Cacute" unicode="&#x106;" horiz-adv-x="1366" 
d="M553 1122l12 -2q-6 -28 -6 -55q0 -70 47 -112q44 -40 115 -40q120 0 228 110.5t108 231.5q0 68 -46.5 105t-115.5 37q-135 0 -319 -108q-261 -152 -454 -420q-214 -295 -214 -570q0 -136 58 -219q68 -96 198 -96q167 0 317 157.5t150 325.5q0 76 -39 128q-43 58 -117 58
q-95 0 -171 -80q-65 -66 -99 -167l-15 6q41 111 114 182q85 82 192 82q95 0 155 -56t60 -151q0 -201 -198 -361q-188 -151 -394 -151q-164 0 -257 101q-91 98 -91 264q0 160 107 358q105 195 286 367q178 171 379 271q194 97 342 97q102 0 166 -49q71 -55 71 -154
q0 -136 -119 -233q-112 -90 -251 -90q-84 0 -142 40q-65 45 -65 126q0 16 8 67zM871 1522l272 411h137l-397 -418z" />
    <glyph glyph-name="cacute" unicode="&#x107;" horiz-adv-x="682" 
d="M43 533q16 46 16 75q0 76 -71 76q-39 0 -108 -49q-112 -79 -200 -221q-94 -152 -94 -279q0 -131 117 -131q156 0 376 205q154 143 292 336l14 -13q-156 -218 -326 -366q-236 -205 -430 -205q-81 0 -126.5 49.5t-45.5 130.5q0 181 199 373.5t381 192.5q137 0 137 -91
q0 -37 -34 -62.5t-72 -25.5q-8 0 -25 5zM-55 838l272 411h137l-397 -418z" />
    <glyph glyph-name="Ccaron" unicode="&#x10c;" horiz-adv-x="1366" 
d="M553 1122l12 -2q-6 -28 -6 -55q0 -70 47 -112q44 -40 115 -40q120 0 228 110.5t108 231.5q0 68 -46.5 105t-115.5 37q-135 0 -319 -108q-261 -152 -454 -420q-214 -295 -214 -570q0 -136 58 -219q68 -96 198 -96q167 0 317 157.5t150 325.5q0 76 -39 128q-43 58 -117 58
q-95 0 -171 -80q-65 -66 -99 -167l-15 6q41 111 114 182q85 82 192 82q95 0 155 -56t60 -151q0 -201 -198 -361q-188 -151 -394 -151q-164 0 -257 101q-91 98 -91 264q0 160 107 358q105 195 286 367q178 171 379 271q194 97 342 97q102 0 166 -49q71 -55 71 -154
q0 -136 -119 -233q-112 -90 -251 -90q-84 0 -142 40q-65 45 -65 126q0 16 8 67zM856 1524q29 81 29 155q0 173 -104 234l12 12q182 -75 182 -303l311 291l9 -10l-369 -379h-70z" />
    <glyph glyph-name="ccaron" unicode="&#x10d;" horiz-adv-x="682" 
d="M43 533q16 46 16 75q0 76 -71 76q-39 0 -108 -49q-112 -79 -200 -221q-94 -152 -94 -279q0 -131 117 -131q156 0 376 205q154 143 292 336l14 -13q-156 -218 -326 -366q-236 -205 -430 -205q-81 0 -126.5 49.5t-45.5 130.5q0 181 199 373.5t381 192.5q137 0 137 -91
q0 -37 -34 -62.5t-72 -25.5q-8 0 -25 5zM-70 840q29 81 29 155q0 173 -104 234l12 12q182 -75 182 -303l311 291l9 -10l-369 -379h-70z" />
    <glyph glyph-name="Dslash" unicode="&#x110;" horiz-adv-x="1821" 
d="M1223 1253q-91 -101 -187 -264l-159 -282h266v-25h-283q-269 -546 -645 -664q156 -24 246 -24q283 0 493 174q194 160 295 440q64 178 64 342q0 176 -90 303zM621 707h129q232 422 440 579q-181 131 -391 131q-233 0 -450 -132q-222 -135 -314 -344q-55 -123 -55 -273
q0 -128 48 -211q60 -103 179 -103q137 0 241 100q91 87 140 228h-332v25h340q39 132 39 200q0 9 -1 27t-1 27l22 2v-31q0 -97 -34 -225zM1597 1468v-16q-192 -31 -358 -178q164 -168 164 -447q0 -180 -76 -344q-116 -248 -354 -381q-223 -125 -508 -125q-158 0 -283 25
q-96 -25 -153 -25q-162 0 -162 56q0 28 53 28q104 0 252 -36q135 30 249 153t316 504h-123q-57 -154 -160 -249q-119 -109 -270 -109q-142 0 -219 103q-69 92 -69 239q0 318 296 552q277 220 603 220q225 0 413 -138q184 143 389 168z" />
    <glyph glyph-name="dcroat" unicode="&#x111;" 
d="M825 1384l-241 -350h274l-8 -24h-279l-310 -453q-290 -438 -290 -508q0 -45 49 -45q170 0 574 539l12 -11q-401 -552 -606 -552q-47 0 -79 28t-32 74q0 55 56 135l-6 6q-72 -90 -159 -154q-110 -81 -200 -81q-131 0 -131 153q0 72 53 175q73 142 209 255q155 129 295 129
q121 0 141 -135l289 445h-381l6 24h396l229 344zM86 582q0 102 -82 102q-57 0 -144 -65q-108 -81 -194 -220q-94 -152 -94 -274q0 -94 76 -94q90 0 220 139q106 112 163 222q55 106 55 190z" />
    <glyph glyph-name="Gbreve" unicode="&#x11e;" horiz-adv-x="1251" 
d="M428 1186q123 -121 326 -121q149 0 252.5 71t103.5 164q0 103 -156 103q-245 0 -526 -217zM440 1593l11 -12q-111 -73 -111 -203q0 -87 51 -147q305 186 572 186q229 0 229 -139q0 -92 -116 -163t-283 -71q-249 0 -375 132q-135 -112 -231 -254q-119 -173 -119 -314
q0 -80 43 -135q47 -59 125 -59q75 0 180 56t143 116q86 137 86 138q63 81 131 81q41 0 41 -23q0 -22 -58 -97q-76 -98 -79 -103q-146 -238 -221 -327q-140 -166 -312 -235q-123 -49 -243 -49q-125 0 -219 67q-105 75 -105 195q0 54 25 92q29 44 80 44q82 0 82 -72
q0 -31 -21.5 -51.5t-52.5 -20.5q-9 0 -37 6q-4 -34 -4 -36q0 -96 83 -154q73 -51 173 -51q177 0 363 192q108 112 257 342q-193 -141 -350 -141q-104 0 -171 59q-70 61 -70 164q0 166 149 353q122 153 291 264q-53 67 -53 155q0 134 116 215zM815 1747q52 -139 176 -139
q131 0 262 135h14q-129 -193 -288 -193q-141 0 -176 193z" />
    <glyph glyph-name="gbreve" unicode="&#x11f;" horiz-adv-x="922" 
d="M160 549l90 135l141 8l-461 -669q365 70 672 520l12 -13q-313 -460 -700 -530q-339 -590 -823 -590q-125 0 -211 48q-107 59 -107 175q0 86 62 142q60 53 147 53q44 0 78 -8l-4 -18q-6 0 -19 1h-20q-65 0 -104 -53q-35 -48 -35 -115q0 -94 65 -150q62 -52 158 -52
q181 0 346 136q120 99 264 305l221 316l-6 5q-197 -207 -358 -207q-55 0 -89 45q-32 41 -32 98q0 182 195.5 374.5t377.5 192.5q132 0 140 -149zM6 680q-39 0 -102 -40q-113 -73 -218 -222q-114 -163 -114 -283q0 -104 78 -104q45 0 108 40q121 75 222 216q112 156 112 282
q0 111 -86 111zM-57 1063q52 -139 176 -139q131 0 262 135h14q-129 -193 -288 -193q-141 0 -176 193z" />
    <glyph glyph-name="Idotaccent" unicode="&#x130;" horiz-adv-x="1251" 
d="M-131 -27q-134 0 -228 54q-114 66 -114 190q0 115 90 115q78 0 78 -72q0 -76 -63 -76q-7 0 -15 2q24 -198 254 -198q204 0 401 215q123 134 314 455l28 47q315 529 633 636q-528 -5 -841.5 -140t-313.5 -347q0 -77 49.5 -129.5t126.5 -52.5q112 0 206 75q101 80 101 189
q0 24 -16 86l14 6q17 -58 17 -96q0 -122 -114 -204q-103 -73 -230 -73q-108 0 -177 58q-73 62 -73 168q0 124 122 230q283 245 1156 245h6q38 10 75 21q46 12 77 12q38 0 38 -19q0 -30 -87 -35h-109q-11 -1 -46 -23q-163 -102 -451 -562q-248 -397 -361 -517
q-245 -260 -547 -260zM944 1634q0 82 76 82q63 0 63 -59q0 -78 -76 -78q-63 0 -63 55z" />
    <glyph glyph-name="dotlessi" unicode="&#x131;" horiz-adv-x="465" 
d="M-90 690q-393 -580 -393 -635q0 -39 41 -39q83 0 251 147q166 144 336 380l17 -11q-418 -540 -623 -540q-47 0 -76.5 32t-29.5 80q0 76 82 199l252 377z" />
    <glyph glyph-name="Lslash" unicode="&#x141;" horiz-adv-x="1139" 
d="M299 621l397 57l2 -23l-417 -61q-273 -429 -568 -531q68 5 74 5q114 0 196 -43q103 -54 103 -158q0 -8 -2 -22.5t-2 -20.5q144 179 567 563l162 148l10 -11l-347 -319q-201 -188 -331 -335q-26 -28 -71 -87q-15 -30 -61 -85q-38 -30 -77 -30q-16 0 -16 15q0 2 51 53
q6 26 6 51q0 116 -91 191q-86 69 -204 71q-192 -74 -276 -74q-51 0 -51 21q0 44 149 60l183 12q92 11 210 139q101 108 250 371l-381 -56v25l400 57q91 164 192 309q-122 18 -212 93q-103 85 -103 200q0 100 64 157q62 54 163 54q63 0 121 -31l-6 -14q-52 29 -121 29
q-87 0 -144 -57.5t-57 -145.5q0 -107 102 -185q87 -68 202 -85q126 198 308 335q215 162 417 162q155 0 155 -129q0 -82 -75 -169q-101 -115 -284 -179q-165 -57 -343 -57q-42 0 -82 4q-52 -93 -162 -274zM472 911q22 -2 67 -2q378 0 559 201q78 88 78 172q0 52 -31.5 86.5
t-83.5 34.5q-159 0 -342 -178q-132 -127 -247 -314z" />
    <glyph glyph-name="lslash" unicode="&#x142;" horiz-adv-x="455" 
d="M350 1380l-375 -579l242 80l-4 -29l-254 -84l-369 -565q-63 -96 -63 -150q0 -43 47 -43q103 0 312 221q137 146 259 314l13 -13q-129 -182 -270 -327q-212 -219 -337 -219q-116 0 -116 106q0 59 76 180l278 443l-256 -84l2 28l272 86l396 625z" />
    <glyph glyph-name="OE" unicode="&#x152;" horiz-adv-x="2134" 
d="M614 276q166 204 250 429q-111 -39 -182.5 -141.5t-71.5 -221.5q0 -11 2 -33t2 -33zM141 1087q112 154 256 249q166 108 336 108q324 0 324 -332q0 -159 -82 -352q161 58 169 248q4 103 18 152q20 73 77 132q127 131 332 131q101 0 170 -47q78 -54 78 -151
q0 -117 -99 -197q-93 -74 -213 -74q-45 0 -100 17l4 12q60 -14 84 -14q102 0 173 80q69 77 69 180q0 78 -52.5 129t-130.5 51q-71 0 -137 -34q-104 -54 -132 -156q-3 -10 -20 -188q-11 -113 -70.5 -172.5t-227.5 -125.5q-120 -270 -342 -502q101 -233 354 -233
q164 0 293 101q139 109 139 268q0 78 -43.5 126t-120.5 48q-122 0 -272 -179l-12 9q151 194 342 194q87 0 142 -44q58 -48 58 -134q0 -139 -136 -254q-113 -96 -265 -138q-98 -26 -209 -26q-280 0 -375 174q-229 -170 -397 -170q-289 0 -289 338q0 174 82 354
q82 176 234 332q297 303 522 303q172 0 172 -182q0 -36 -3 -55h-16v47q0 176 -155 176q-91 0 -209 -76q-201 -130 -352 -399q-154 -272 -154 -508q0 -128 54 -205q62 -90 184 -90q128 0 317 156q-31 74 -31 145q0 157 123 273q104 98 270 145q89 251 89 399q0 289 -261 289
q-151 0 -308 -108q-132 -90 -238 -232z" />
    <glyph glyph-name="oe" unicode="&#x153;" horiz-adv-x="1176" 
d="M145 358q133 39 236 99q151 87 151 180q0 53 -55 53q-60 0 -160 -95t-172 -237zM199 566q178 147 327 147q109 0 109 -78q0 -132 -498 -295q-51 -110 -51 -199q0 -129 111 -129q161 0 374 198q151 141 287 335l12 -10q-143 -213 -317 -364q-230 -198 -426 -198
q-146 0 -166 156q-174 -143 -321 -143q-164 0 -164 188q0 177 198 363q195 184 373 184q141 0 152 -155zM12 696q-97 0 -219 -141q-93 -107 -153 -229q-56 -115 -56 -197q0 -123 92 -123q50 0 122 54q106 79 199 239q99 169 99 291q0 106 -84 106z" />
    <glyph glyph-name="Scedilla" unicode="&#x15e;" horiz-adv-x="1139" 
d="M903 1106q49 66 49 137q0 70 -44 110t-115 40q-70 0 -136 -49q-146 -109 -185 -402l-62 -515q-68 -285 -288 -396q-118 -60 -261 -60q-180 0 -300 88q-136 98 -136 271q0 72 28 123q35 63 101 63q79 0 79 -78q0 -67 -65 -67q-25 0 -45 12q-35 -31 -35 -100
q0 -143 109 -223q97 -72 245 -72q135 0 240 70q161 106 212 355l51 458q35 271 155 399q134 143 319 143q92 0 160 -38q84 -47 84 -132q0 -52 -45.5 -95.5t-97.5 -43.5q14 0 -17 2zM-105 -6l-94 -154q6 0 18.5 1t18.5 1q58 0 100.5 -33t42.5 -90q0 -108 -157 -170
q-109 -42 -248 -51v17q317 34 317 176q0 80 -112 80q-17 0 -51 -6l143 229h22z" />
    <glyph glyph-name="scedilla" unicode="&#x15f;" horiz-adv-x="682" 
d="M-59 484q36 52 36 114q0 96 -92 96q-53 0 -85 -40q-29 -36 -29 -91q0 -41 50 -156t50 -180q0 -164 -178 -221v-4q331 52 678 543l14 -10q-394 -555 -778 -555q-94 0 -155 48q-66 53 -66 144q0 58 30 99q34 46 90 46q76 0 76 -71q0 -64 -67 -64q-48 0 -54 47
q-30 -38 -30 -86q0 -141 147 -141q87 0 135 58q45 55 45 143q0 53 -41 156.5t-41 158.5q0 93 70 147q64 48 160 48q66 0 114 -30q56 -35 56 -97q0 -42 -27 -74q-28 -35 -69 -35q-22 0 -39 7zM-332 -6l-94 -154q6 0 18.5 1t18.5 1q58 0 100.5 -33t42.5 -90q0 -108 -157 -170
q-109 -42 -248 -51v17q317 34 317 176q0 80 -112 80q-17 0 -51 -6l143 229h22z" />
    <glyph glyph-name="Scaron" unicode="&#x160;" horiz-adv-x="1139" 
d="M903 1106q49 66 49 137q0 70 -44 110t-115 40q-70 0 -136 -49q-146 -109 -185 -402l-62 -515q-68 -285 -288 -396q-118 -60 -261 -60q-180 0 -300 88q-136 98 -136 271q0 72 28 123q35 63 101 63q79 0 79 -78q0 -67 -65 -67q-25 0 -45 12q-35 -31 -35 -100
q0 -143 109 -223q97 -72 245 -72q135 0 240 70q161 106 212 355l51 458q35 271 155 399q134 143 319 143q92 0 160 -38q84 -47 84 -132q0 -52 -45.5 -95.5t-97.5 -43.5q14 0 -17 2zM864 1524q29 81 29 155q0 173 -104 234l12 12q182 -75 182 -303l311 291l9 -10l-369 -379
h-70z" />
    <glyph glyph-name="scaron" unicode="&#x161;" horiz-adv-x="682" 
d="M-59 484q36 52 36 114q0 96 -92 96q-53 0 -85 -40q-29 -36 -29 -91q0 -41 50 -156t50 -180q0 -164 -178 -221v-4q331 52 678 543l14 -10q-394 -555 -778 -555q-94 0 -155 48q-66 53 -66 144q0 58 30 99q34 46 90 46q76 0 76 -71q0 -64 -67 -64q-48 0 -54 47
q-30 -38 -30 -86q0 -141 147 -141q87 0 135 58q45 55 45 143q0 53 -41 156.5t-41 158.5q0 93 70 147q64 48 160 48q66 0 114 -30q56 -35 56 -97q0 -42 -27 -74q-28 -35 -69 -35q-22 0 -39 7zM-70 840q29 81 29 155q0 173 -104 234l12 12q182 -75 182 -303l311 291l9 -10
l-369 -379h-70z" />
    <glyph glyph-name="Ydieresis" unicode="&#x178;" horiz-adv-x="1593" 
d="M1358 1370l141 4l-924 -1411q-360 -549 -778 -549q-132 0 -226 58q-110 69 -110 194q0 94 63 161t157 67q103 0 182 -54l-6 -12q-52 37 -113 37q-82 0 -129 -59q-43 -53 -43 -138q0 -109 68 -171t178 -62q212 0 421 237q83 94 293 419q135 208 218 315l-7 4
q-375 -435 -641 -435q-67 0 -105 46q-36 43 -36 112q0 87 117 273l174 254q358 523 358 632q0 94 -112 94q-78 0 -194 -55q-152 -73 -252 -190q-115 -135 -115 -285q0 -139 120 -139q131 0 250 153l12 -10q-127 -162 -268 -162q-76 0 -120 47.5t-44 124.5q0 84 56 182
q85 144 252 248q173 107 335 107q78 0 127 -37q54 -41 54 -117q0 -127 -320 -591l-192 -280q-133 -210 -133 -286q0 -94 88 -94q55 0 169 62q289 156 562 577zM1014 1677q0 26 19.5 46t45.5 20q27 0 46.5 -19.5t19.5 -46.5q0 -65 -66 -65q-65 0 -65 65zM1272 1677
q0 26 19.5 46t45.5 20q27 0 46.5 -19.5t19.5 -46.5q0 -65 -66 -65q-65 0 -65 65z" />
    <glyph glyph-name="Zcaron" unicode="&#x17d;" horiz-adv-x="1366" 
d="M-281 123q183 96 281 96q85 0 239 -71.5t240 -71.5q162 0 332 164q100 97 240 301l14 -6q-139 -213 -288 -355q-213 -203 -392 -203q-105 0 -263 93.5t-224 93.5q-86 0 -160 -51q-42 -28 -101 -93q-46 -51 -63 -51q-18 0 -18 17q0 23 288 273l1063 919q34 29 105 82
q-192 -95 -322 -95q-96 0 -260 76t-242 76q-106 0 -178.5 -78.5t-72.5 -185.5q0 -93 48 -150q51 -61 142 -61q103 0 188 100l15 -8q-97 -113 -207 -113q-94 0 -153.5 56.5t-59.5 150.5q0 152 119 251q113 93 268 93q98 0 280 -64.5t265 -64.5q78 0 139 24q56 21 129 83
q77 65 88 65q14 0 14 -18q0 -15 -99 -88q-122 -89 -280 -233q-570 -521 -1114 -953zM979 1524q29 81 29 155q0 173 -104 234l12 12q182 -75 182 -303l311 291l9 -10l-369 -379h-70z" />
    <glyph glyph-name="zcaron" unicode="&#x17e;" horiz-adv-x="797" 
d="M-434 96v-2q74 41 137 41q54 0 143.5 -43t128.5 -43q156 0 506 496l15 -13q-388 -557 -615 -557q-50 0 -153.5 53.5t-153.5 53.5q-29 0 -78 -49t-57 -49q-21 0 -21 16q0 21 82 75q91 59 140 101q265 227 585 449l-4 2q-102 -66 -170 -66q-42 0 -119 34t-110 34
q-62 0 -141 -115l-13 10q108 181 244 181q48 0 134 -39t126 -39q49 0 100.5 50t57.5 50q12 0 12 -14q0 -47 -776 -617zM-13 840q29 81 29 155q0 173 -104 234l12 12q182 -75 182 -303l311 291l9 -10l-369 -379h-70z" />
    <glyph glyph-name="florin" unicode="&#x192;" horiz-adv-x="1024" 
d="M973 1065q6 36 6 45q0 92 -121 92q-160 0 -356 -338l-166 -286h270l-8 -23h-274q-179 -322 -190 -340q-130 -212 -260 -323q-167 -144 -353 -144q-96 0 -159 51q-69 55 -69 148q0 133 93 133q67 0 67 -64q0 -53 -53 -53q-22 0 -36 18q-30 -33 -30 -65q0 -63 48 -104
t112 -41q292 0 576 512l151 272h-293l9 23h294l185 305q205 338 446 338q68 0 116 -37q52 -40 52 -107q0 -106 -98 -106q-76 0 -76 61q0 58 51 58q23 0 66 -25z" />
    <glyph glyph-name="circumflex" unicode="&#x2c6;" horiz-adv-x="1024" 
d="M379 1241q-29 -87 -29 -156q0 -170 105 -233l-13 -12q-182 70 -182 303l-311 -291l-8 10l368 379h70z" />
    <glyph glyph-name="caron" unicode="&#x2c7;" horiz-adv-x="1024" 
d="M100 840q29 81 29 155q0 173 -104 234l12 12q182 -75 182 -303l311 291l9 -10l-369 -379h-70z" />
    <glyph glyph-name="macron" unicode="&#xaf;" horiz-adv-x="1024" 
d="M367 938h-385l36 49h377z" />
    <glyph glyph-name="macron" unicode="&#x2c9;" horiz-adv-x="1024" 
d="M367 938h-385l36 49h377z" />
    <glyph glyph-name="breve" unicode="&#x2d8;" horiz-adv-x="1024" 
d="M-6 1063q52 -139 176 -139q131 0 262 135h14q-129 -193 -288 -193q-141 0 -176 193z" />
    <glyph glyph-name="dotaccent" unicode="&#x2d9;" horiz-adv-x="1024" 
d="M123 950q0 82 76 82q63 0 63 -59q0 -78 -76 -78q-63 0 -63 55z" />
    <glyph glyph-name="ring" unicode="&#x2da;" horiz-adv-x="1024" 
d="M254 1137q-59 0 -116 -73q-54 -69 -54 -130q0 -80 74 -80q60 0 114 71q52 66 52 128q0 84 -70 84zM27 954q0 81 66.5 143t148.5 62q54 0 91.5 -33t37.5 -86q0 -87 -61.5 -145.5t-149.5 -58.5q-56 0 -93 31q-40 33 -40 87z" />
    <glyph glyph-name="ogonek" unicode="&#x2db;" horiz-adv-x="1024" 
d="M-143 16q-211 -145 -211 -280q0 -129 127 -129q60 0 141 53l2 -16q-106 -86 -211 -86q-63 0 -102 40t-39 103q0 92 95 187q73 73 177 128h21z" />
    <glyph glyph-name="tilde" unicode="&#x2dc;" horiz-adv-x="1024" 
d="M-88 895q24 71 46 100q36 45 95 45q41 0 126 -30.5t130 -30.5q62 0 101 84l22 -4q-30 -76 -52 -104q-38 -50 -99 -50q-45 0 -128.5 34t-125.5 34q-71 0 -91 -80z" />
    <glyph glyph-name="hungarumlaut" unicode="&#x2dd;" horiz-adv-x="1024" 
d="M-76 838l275 411h135l-395 -418zM129 831l-12 7l305 411h135z" />
    <glyph glyph-name="Delta" unicode="&#x394;" horiz-adv-x="995" 
d="M485 1272l-391 -1172h768zM492 1497h26l486 -1497h-1010z" />
    <glyph glyph-name="Delta" unicode="&#x2206;" horiz-adv-x="995" 
d="M485 1272l-391 -1172h768zM492 1497h26l486 -1497h-1010z" />
    <glyph glyph-name="Omega" unicode="&#x3a9;" horiz-adv-x="1565" 
d="M1079 123v-23h318l78 232h59l-98 -332h-492q313 520 313 864q0 245 -110 397q-125 171 -361 171t-361 -171q-112 -153 -112 -397q0 -349 314 -864h-492l-98 332h59l78 -232h318v23q-297 395 -297 760q0 272 158 441q162 173 433 173t434 -173q158 -168 158 -441
q0 -361 -299 -760z" />
    <glyph glyph-name="Omega" unicode="&#x2126;" horiz-adv-x="1565" 
d="M1079 123v-23h318l78 232h59l-98 -332h-492q313 520 313 864q0 245 -110 397q-125 171 -361 171t-361 -171q-112 -153 -112 -397q0 -349 314 -864h-492l-98 332h59l78 -232h318v23q-297 395 -297 760q0 272 158 441q162 173 433 173t434 -173q158 -168 158 -441
q0 -361 -299 -760z" />
    <glyph glyph-name="mu" unicode="&#xb5;" horiz-adv-x="1051" 
d="M162 190q-19 -119 -41 -330q-29 -276 -101 -276q-69 0 -69 62q0 39 60 287q66 276 98 432l108 520h119l-111 -518q-8 -37 -8 -88q0 -86 40 -144q45 -67 128 -67q203 0 279 335l110 482h119l-117 -527q-26 -117 -26 -178q0 -94 75 -94q68 0 111 65q21 33 52 122
q23 65 42 65q27 0 27 -31q0 -30 -15 -82q-71 -239 -249 -239q-144 0 -144 174q0 6 1 17t1 16q-85 -213 -270 -213q-191 0 -219 210z" />
    <glyph glyph-name="mu" unicode="&#x3bc;" horiz-adv-x="1051" 
d="M162 190q-19 -119 -41 -330q-29 -276 -101 -276q-69 0 -69 62q0 39 60 287q66 276 98 432l108 520h119l-111 -518q-8 -37 -8 -88q0 -86 40 -144q45 -67 128 -67q203 0 279 335l110 482h119l-117 -527q-26 -117 -26 -178q0 -94 75 -94q68 0 111 65q21 33 52 122
q23 65 42 65q27 0 27 -31q0 -30 -15 -82q-71 -239 -249 -239q-144 0 -144 174q0 6 1 17t1 16q-85 -213 -270 -213q-191 0 -219 210z" />
    <glyph glyph-name="pi" unicode="&#x3c0;" horiz-adv-x="1298" 
d="M1268 885l-25 -109h-311q-40 -196 -78 -520l-4 -31q-33 -268 -109 -268q-75 0 -75 80q0 28 78 275t133 464h-361q-42 -207 -78 -520l-2 -21q-33 -278 -110 -278q-76 0 -76 80q0 28 78 275t133 464h-189q-87 0 -132 -85q-24 -46 -50 -163h-65q29 171 91 252
q80 105 236 105h916z" />
    <glyph glyph-name="endash" unicode="&#x2013;" horiz-adv-x="1024" 
d="M498 393h-817l40 64h818z" />
    <glyph glyph-name="emdash" unicode="&#x2014;" horiz-adv-x="2048" 
d="M-340 457h2009l-41 -64h-2009z" />
    <glyph glyph-name="quoteleft" unicode="&#x2018;" horiz-adv-x="455" 
d="M485 1419q-255 -28 -305 -256q30 13 37 13q62 0 62 -68q0 -35 -22.5 -58.5t-57.5 -23.5q-78 0 -78 96q0 54 41 122q107 178 323 191v-16z" />
    <glyph glyph-name="quoteright" unicode="&#x2019;" horiz-adv-x="455" 
d="M0 1042q251 28 305 256q-20 -12 -41 -12q-57 0 -57 66q0 84 80 84q78 0 78 -95q0 -55 -42 -124q-106 -177 -323 -190v15z" />
    <glyph glyph-name="quotesinglbase" unicode="&#x201a;" horiz-adv-x="455" 
d="M-592 -250q255 28 303 256q-27 -12 -35 -12q-61 0 -61 67q0 82 78 82t78 -96q0 -55 -42 -124q-106 -176 -321 -189v16z" />
    <glyph glyph-name="quotedblleft" unicode="&#x201c;" 
d="M840 1419q-257 -28 -305 -256q28 13 36 13q62 0 62 -68q0 -35 -22.5 -58.5t-57.5 -23.5q-78 0 -78 96q0 54 41 122q107 178 324 191v-16zM537 1419q-256 -28 -306 -256q30 13 37 13q62 0 62 -68q0 -35 -22.5 -58.5t-57.5 -23.5q-78 0 -78 96q0 54 41 122q106 176 323 192
z" />
    <glyph glyph-name="quotedblright" unicode="&#x201d;" 
d="M98 1042q253 28 305 256q-20 -12 -41 -12q-57 0 -57 66q0 84 78 84q80 0 80 -95q0 -55 -41 -124q-104 -175 -323 -191zM401 1042q252 28 306 256q-22 -12 -41 -12q-58 0 -58 66q0 84 80 84q78 0 78 -95q0 -55 -41 -124q-104 -175 -323 -191z" />
    <glyph glyph-name="quotedblbase" unicode="&#x201e;" 
d="M-213 -250q253 28 305 256q-24 -12 -37 -12q-61 0 -61 67q0 35 22.5 58.5t57.5 23.5q78 0 78 -96q0 -54 -41 -122q-107 -175 -324 -191v16zM-516 -250q257 28 305 256q-28 -12 -37 -12q-61 0 -61 67q0 35 22.5 58.5t57.5 23.5q77 0 77 -96q0 -55 -41 -124
q-105 -176 -323 -189v16z" />
    <glyph glyph-name="dagger" unicode="&#x2020;" horiz-adv-x="1024" 
d="M375 1036l157 353q24 53 66 53q51 0 51 -51q0 -25 -24 -56l-234 -307zM782 969l-14 -23h-854l14 23h854zM-281 -84l486 913q27 50 59 50q47 0 47 -45q0 -19 -22 -54l-549 -864h-21z" />
    <glyph glyph-name="daggerdbl" unicode="&#x2021;" horiz-adv-x="1024" 
d="M-231 -61l184 383q25 53 63 53q54 0 54 -53q0 -24 -25 -56l-256 -332zM-309 467h766l-13 -25h-766zM113 526l147 332q23 53 64 53q53 0 53 -53q0 -24 -25 -55l-227 -283zM0 973l12 22h760l-12 -22h-760zM412 1053l151 336q24 53 66 53q47 0 47 -51q0 -28 -21 -56
l-217 -288z" />
    <glyph glyph-name="bullet" unicode="&#x2022;" horiz-adv-x="1208" 
d="M307 762q0 124 86.5 209.5t210.5 85.5q123 0 209 -86t86 -209t-87 -210t-210 -87q-124 0 -209.5 86.5t-85.5 210.5z" />
    <glyph glyph-name="ellipsis" unicode="&#x2026;" horiz-adv-x="2048" 
d="M442 145q33 0 56.5 -23t23.5 -56q0 -34 -23 -57t-57 -23q-33 0 -57.5 23.5t-24.5 56.5q0 32 25 55.5t57 23.5zM-242 145q33 0 57.5 -23t24.5 -56q0 -34 -24 -57t-58 -23q-32 0 -56 24t-24 56t24 55.5t56 23.5zM1124 145q33 0 56.5 -23t23.5 -56q0 -34 -23 -57t-57 -23
q-32 0 -56 24t-24 56t24 55.5t56 23.5z" />
    <glyph glyph-name="perthousand" unicode="&#x2030;" horiz-adv-x="2294" 
d="M1655 571q-47 0 -89.5 -21t-88.5 -67q-197 -198 -197 -379q0 -98 80 -98q42 0 88 29q85 54 181 202q100 154 100 248q0 86 -74 86zM1198 170q0 155 146 286q141 128 298 128q170 0 170 -164q0 -144 -153.5 -287t-298.5 -143q-78 0 -121 52q-41 49 -41 128zM954 571
q-46 0 -88 -20.5t-88 -67.5q-198 -200 -198 -379q0 -98 82 -98q43 0 89 30q84 54 179 202q100 154 100 247q0 86 -76 86zM498 170q0 154 146 286q142 128 298 128q170 0 170 -164q0 -145 -152 -287.5t-298 -142.5q-78 0 -122 52q-42 49 -42 128zM-16 -88l792 1020
q-96 -88 -188 -88q-76 0 -137 65q-5 -126 -86 -242q-76 -108 -193 -171q-93 -50 -168 -50q-176 0 -176 183q0 153 154 291q150 133 305 133q85 0 152.5 -98.5t146.5 -98.5q75 0 147 59q34 29 102 111q50 59 72 59q31 0 31 -30q0 -24 -35 -66l-907 -1087zM297 1034
q-132 0 -261 -175q-122 -165 -122 -302q0 -94 82 -94q116 0 245 186q121 175 121 297q0 88 -65 88z" />
    <glyph glyph-name="guilsinglleft" unicode="&#x2039;" horiz-adv-x="682" 
d="M-76 16l-227 301l412 318l8 -12l-322 -306l139 -292z" />
    <glyph glyph-name="guilsinglright" unicode="&#x203a;" horiz-adv-x="682" 
d="M-170 635l227 -301l-411 -318l-8 13l321 303l-139 293z" />
    <glyph glyph-name="fraction" unicode="&#x2044;" horiz-adv-x="342" 
d="M-666 -55l1033 1224l100 7l-1026 -1223z" />
    <glyph glyph-name="franc" unicode="&#x20a3;" horiz-adv-x="2284" 
d="M1362 1257q-4 0 -28 1q-218 6 -318 6q-346 0 -541 -37q-323 -60 -472 -234q-81 -95 -81 -186q0 -100 93 -157q79 -48 186 -48q173 0 318 102q161 113 161 279q0 42 -23 90l12 4q27 -48 27 -100q0 -171 -171 -298q-158 -116 -335 -116q-119 0 -197 54q-89 62 -89 176
t85 221q84 104 247 188q311 160 829 160q236 0 426 -10q81 -4 70 -4q15 0 45 3t45 3q104 0 104 -43q0 -68 -164 -68q-18 0 -53 2t-53 2q-173 0 -313 -126.5t-318 -454.5q74 5 113 10q90 10 106 24l38 50t69 24q34 0 65 -4q-184 -169 -295 -342l-14 10q42 90 114 225
q-91 -10 -208 -14q-180 -321 -343 -466q-223 -199 -526 -199q-127 0 -219 57q-108 68 -108 188q0 109 92 109q76 0 76 -76q0 -72 -60 -72q2 0 -24 8q24 -200 274 -200q347 0 713 651l-86 2l6 15h88q140 240 260 364q168 174 377 227zM1769 709q-96 -132 -96 -220
q0 -69 74 -69q106 0 221 119l10 -11q-120 -129 -262 -129q-139 0 -139 127q0 49 30 111q-365 -279 -528 -627l-143 -8l424 682l133 8l-267 -379l7 -6q78 91 173 180q119 110 205 175l4 3l27 26q17 13 33 14z" />
    <glyph glyph-name="u20AB" unicode="&#x20ab;" horiz-adv-x="613" 
d="M551 1427l-161 -233h183l-6 -16h-186q-400 -586 -400 -641q0 -30 33 -30q114 0 383 359l8 -7q-268 -368 -404 -368q-74 0 -74 68q0 37 37 90l-4 4q-125 -157 -239 -157q-88 0 -88 102q0 49 36 117q49 95 139 170q103 86 197 86q80 0 94 -90l192 297h-254l4 16h264
l153 229zM58 892q0 68 -55 68q-37 0 -95 -43q-72 -54 -130 -147q-63 -101 -63 -182q0 -63 51 -63q60 0 147 92q71 76 108 147.5t37 127.5zM-404 373h330v-53h-330v53z" />
    <glyph glyph-name="trademark" unicode="&#x2122;" horiz-adv-x="1683" 
d="M801 1432h170l145 -414l158 414h162v-25q-80 0 -80 -55v-369q0 -55 80 -55v-25h-228v25q80 0 80 55v406l-186 -490h-8l-174 487v-403q0 -55 79 -55v-25h-198v23q80 0 80 57v367q0 57 -80 57v25zM264 1432h436l11 -175h-23q-8 85 -43 118.5t-123 33.5v-426q0 -55 80 -55
v-25h-242v25q42 0 57 7q25 11 25 48v426h-22q-129 0 -144 -152h-22z" />
    <glyph glyph-name="partialdiff" unicode="&#x2202;" horiz-adv-x="1024" 
d="M750 578q22 138 22 305q0 354 -154 354q-39 0 -99 -73.5t-109 -73.5q-68 0 -68 65q0 69 73 110q62 35 136 35q188 0 279 -192q69 -145 69 -356q0 -335 -131.5 -557t-323.5 -222q-153 0 -236 121q-73 105 -73 264q0 164 99 288q106 132 266 132q191 0 250 -200zM713 459
q0 256 -185 256q-141 0 -212 -167q-52 -124 -52 -288q0 -242 185 -242q136 0 208 161q56 125 56 280z" />
    <glyph glyph-name="product" unicode="&#x220f;" horiz-adv-x="1538" 
d="M61 1473h1416v-64h-187v-1739h187v-63h-494v63h207v1739h-842v-1739h207v-63h-494v63h187v1739h-187v64z" />
    <glyph glyph-name="summation" unicode="&#x2211;" horiz-adv-x="1384" 
d="M8 1473h1090l80 -304h-68l-55 209q-8 31 -49 31h-824l951 -879v-36l-914 -789h900q53 0 71 9q25 12 39 57l71 229h68l-119 -393h-1237v10l1018 872l-1022 941v43z" />
    <glyph glyph-name="minus" unicode="&#x2212;" horiz-adv-x="1706" 
d="M254 651h1198v-82h-1198v82z" />
    <glyph glyph-name="periodcentered" horiz-adv-x="512" 
d="M-68 600q34 0 57 -23t23 -57t-23 -58t-57 -24q-32 0 -57 25t-25 57q0 33 24.5 56.5t57.5 23.5z" />
    <glyph glyph-name="radical" unicode="&#x221a;" horiz-adv-x="1264" 
d="M1092 1626h172v-61h-129l-596 -1606h-31l-330 907l-110 -39l-15 50l230 79l278 -759z" />
    <glyph glyph-name="infinity" unicode="&#x221e;" horiz-adv-x="1706" 
d="M889 557q107 -205 287 -205q113 0 181 84q64 78 64 193q0 109 -56 187q-62 87 -167 87q-106 0 -196 -126q-49 -70 -113 -220zM819 670q-104 204 -287 204q-113 0 -182 -83q-63 -77 -63 -193q0 -109 56 -186q62 -86 167 -86q108 0 196 124q49 69 113 220zM870 510
q-135 -266 -321 -266q-141 0 -230 116q-81 107 -81 252q0 150 68 252q79 117 222 117q190 0 308 -268q130 274 323 274q142 0 229 -118q80 -107 80 -253q0 -150 -68 -253q-79 -119 -222 -119q-175 0 -308 266z" />
    <glyph glyph-name="integral" unicode="&#x222b;" horiz-adv-x="948" 
d="M756 1546q61 0 102 -31q45 -35 45 -94q0 -98 -102 -98q-75 0 -101.5 64.5t-33.5 64.5q-66 0 -93 -159q-13 -77 -20 -262q-6 -170 -6 -425q0 -510 -86 -743.5t-268 -233.5q-58 0 -100 30q-48 33 -48 89q0 107 105 107q55 0 81 -34q14 -17 27 -63q10 -34 25 -34
q65 0 92 165q13 80 20 266q6 169 6 423q0 499 87 733.5t268 234.5z" />
    <glyph glyph-name="approxequal" unicode="&#x2248;" horiz-adv-x="1706" 
d="M1530 578v-93q-211 -147 -387 -147q-100 0 -293 70.5t-285 70.5q-157 0 -387 -160v93q209 145 387 145q100 0 293 -69.5t285 -69.5q157 0 387 160zM1530 903v-94q-209 -145 -387 -145q-100 0 -293 69.5t-285 69.5q-157 0 -387 -160v92q209 148 387 148q100 0 293 -71
t285 -71q151 0 387 162z" />
    <glyph glyph-name="approxequal" unicode="&#x22f2;" horiz-adv-x="1706" 
d="M1530 578v-93q-211 -147 -387 -147q-100 0 -293 70.5t-285 70.5q-157 0 -387 -160v93q209 145 387 145q100 0 293 -69.5t285 -69.5q157 0 387 160zM1530 903v-94q-209 -145 -387 -145q-100 0 -293 69.5t-285 69.5q-157 0 -387 -160v92q209 148 387 148q100 0 293 -71
t285 -71q151 0 387 162z" />
    <glyph glyph-name="notequal" unicode="&#x2260;" horiz-adv-x="1706" 
d="M1217 1157l63 -49l-217 -277h389v-79h-440l-219 -283h659v-82h-711l-254 -324l-61 48l215 276h-387v82h436l221 283h-657v79h709z" />
    <glyph glyph-name="lessequal" unicode="&#x2264;" horiz-adv-x="1706" 
d="M264 129h1178v-80h-1178v80zM1442 1171v-88l-1043 -350l1043 -352v-88l-1178 405v70z" />
    <glyph glyph-name="greaterequal" unicode="&#x2265;" horiz-adv-x="1706" 
d="M264 129h1178v-80h-1178v80zM264 1171l1178 -403v-70l-1178 -405v88l1043 352l-1043 350v88z" />
    <glyph glyph-name="SF370000" unicode="&#x255f;" horiz-adv-x="1479" 
d="M1118 1346q-326 -162 -760 -715h205q219 389 555 715zM1266 1427l10 -10q-278 -308 -475 -610q-285 -435 -285 -698q0 -93 72 -93q103 0 310 215q133 138 261 310l12 -11q-404 -553 -645 -553q-131 0 -131 170q0 184 160 469h-209q-212 -268 -356 -399
q-255 -235 -457 -235q-70 0 -118 26q-62 32 -62 96q0 35 20.5 62t55.5 27q59 0 59 -64q0 -41 -35 -68q37 -41 127 -41q194 0 467 276q83 84 371 437q456 559 848 694z" />
    <glyph glyph-name="SF420000" unicode="&#x2560;" horiz-adv-x="1366" 
d="M578 956l4 13q60 -15 90 -15q103 0 179.5 78.5t76.5 181.5q0 86 -53.5 139.5t-139.5 53.5q-108 0 -189 -60.5t-104 -155.5q-7 -28 -15 -167q-6 -99 -43 -151t-150 -105q-184 -88 -253 -153q-108 -103 -108 -267q0 -158 100.5 -254t259.5 -96q164 0 293 101
q140 109 140 268q0 78 -43.5 126t-120.5 48q-123 0 -273 -179l-12 9q153 194 342 194q88 0 143 -44q60 -48 60 -134q0 -138 -137 -254q-115 -96 -267 -138q-98 -26 -208 -26q-177 0 -287 76q-127 88 -127 258q0 173 132 287q61 53 253 150q146 73 164 137q5 19 11 141
q5 118 42 188q57 106 176 164q109 53 238 53q105 0 179 -48q85 -56 85 -156q0 -122 -108 -204q-98 -75 -224 -75q-50 0 -106 16z" />
    <glyph glyph-name="SF190000" unicode="&#x2561;" horiz-adv-x="1251" 
d="M-131 -27q-134 0 -228 54q-114 66 -114 190q0 115 90 115q78 0 78 -72q0 -76 -63 -76q-7 0 -15 2q24 -198 254 -198q204 0 401 215q123 134 314 455l28 47q315 529 633 636q-528 -5 -841.5 -140t-313.5 -347q0 -77 49.5 -129.5t126.5 -52.5q112 0 206 75q101 80 101 189
q0 24 -16 86l14 6q17 -58 17 -96q0 -122 -114 -204q-103 -73 -230 -73q-108 0 -177 58q-73 62 -73 168q0 124 122 230q283 245 1156 245h6q38 10 75 21q46 12 77 12q38 0 38 -19q0 -30 -87 -35h-109q-11 -1 -46 -23q-163 -102 -451 -562q-248 -397 -361 -517
q-245 -260 -547 -260z" />
    <glyph glyph-name="SF200000" unicode="&#x2562;" horiz-adv-x="1593" 
d="M797 438q74 -35 159 -35q175 0 320 127l10 -12q-149 -131 -330 -131q-88 0 -170 37q-136 -180 -289 -298q-199 -153 -374 -153q-289 0 -289 336q0 202 110 411q106 200 301 377q218 198 414 236q86 74 183 74q107 0 165 -84q50 -72 50 -184q0 -338 -260 -701zM748 461
q213 388 213 674q0 249 -150 249q-66 0 -127 -47q193 0 193 -163q0 -29 -5 -52l-12 2q0 7 1 20.5t1 20.5q0 70 -42.5 114t-112.5 44q-21 0 -41 -2q-158 -164 -158 -406q0 -286 240 -454zM645 1317q-194 -59 -358 -246q-131 -149 -226 -358q-104 -229 -104 -406
q0 -301 238 -301q143 0 312 158q126 117 230 282q-262 173 -262 463q0 236 170 408z" />
    <glyph glyph-name="SF230000" unicode="&#x2563;" horiz-adv-x="1706" 
d="M1290 1376l144 8l-623 -960q-141 -217 -141 -324q0 -38 29 -67t67 -29q99 0 276 149t349 390l12 -11q-395 -555 -674 -555q-162 0 -162 166q0 91 74 209q-125 -141 -257 -239q-180 -133 -312 -133q-144 0 -144 149q0 82 85 230q26 44 137 211q413 620 413 706
q0 117 -110 117q-182 0 -375 -168q-199 -173 -199 -351q0 -63 37.5 -109t99.5 -46q103 0 248 158l8 -9q-119 -172 -264 -172q-67 0 -114.5 49.5t-47.5 116.5q0 86 56 189q82 149 245 254q168 110 332 110q189 0 189 -168q0 -93 -281 -516q-177 -266 -206 -314
q-146 -238 -146 -321q0 -35 27.5 -60.5t62.5 -25.5q48 0 147 53q274 146 527 543z" />
    <glyph glyph-name="SF470000" unicode="&#x2564;" horiz-adv-x="1593" 
d="M1358 1370l141 4l-924 -1411q-360 -549 -778 -549q-132 0 -226 58q-110 69 -110 194q0 94 63 161t157 67q103 0 182 -54l-6 -12q-52 37 -113 37q-82 0 -129 -59q-43 -53 -43 -138q0 -109 68 -171t178 -62q212 0 421 237q83 94 293 419q135 208 218 315l-7 4
q-375 -435 -641 -435q-67 0 -105 46q-36 43 -36 112q0 87 117 273l174 254q358 523 358 632q0 94 -112 94q-78 0 -194 -55q-152 -73 -252 -190q-115 -135 -115 -285q0 -139 120 -139q131 0 250 153l12 -10q-127 -162 -268 -162q-76 0 -120 47.5t-44 124.5q0 84 56 182
q85 144 252 248q173 107 335 107q78 0 127 -37q54 -41 54 -117q0 -127 -320 -591l-192 -280q-133 -210 -133 -286q0 -94 88 -94q55 0 169 62q289 156 562 577z" />
    <glyph glyph-name="SF480000" unicode="&#x2565;" 
d="M147 565l72 117l139 6q-109 -145 -221 -318q-166 -255 -166 -321q0 -45 49 -45q170 0 574 539l12 -11q-401 -552 -606 -552q-47 0 -79 28t-32 74q0 55 56 135l-6 6q-72 -90 -159 -154q-110 -81 -200 -81q-131 0 -131 153q0 72 53 175q73 142 209 255q155 129 295 129
q121 0 141 -135zM86 582q0 104 -82 104q-54 0 -142 -66q-110 -83 -196 -221q-94 -151 -94 -274q0 -94 76 -94q90 0 220 139q106 112 163 222q55 106 55 190z" />
    <glyph glyph-name="SF410000" unicode="&#x2566;" horiz-adv-x="682" 
d="M-352 340q-51 -106 -51 -199q0 -129 112 -129q160 0 373 198q150 140 287 335l14 -10q-147 -218 -320 -366q-229 -196 -430 -196q-75 0 -117 46t-42 122q0 188 187.5 380t375.5 192q110 0 110 -78q0 -132 -499 -295zM-344 358q135 41 236 99q151 87 151 180q0 53 -55 53
q-79 0 -191 -129q-87 -100 -141 -203z" />
    <glyph glyph-name="SF450000" unicode="&#x2567;" horiz-adv-x="465" 
d="M-90 690q-393 -580 -393 -635q0 -39 41 -39q83 0 251 147q166 144 336 380l17 -11q-418 -540 -623 -540q-47 0 -76.5 32t-29.5 80q0 76 82 199l252 377zM-39 973q0 69 70 69q28 0 49.5 -19.5t21.5 -47.5t-22.5 -50t-50.5 -22q-68 0 -68 70z" />
    <glyph glyph-name="SF460000" unicode="&#x2568;" horiz-adv-x="465" 
d="M-90 690q-393 -580 -393 -635q0 -39 41 -39q83 0 251 147q166 144 336 380l17 -11q-418 -540 -623 -540q-47 0 -76.5 32t-29.5 80q0 76 82 199l252 377z" />
    <glyph glyph-name="SF400000" unicode="&#x2569;" horiz-adv-x="891" 
d="M578 543l12 -8q-115 -140 -236 -140q-123 0 -159 125q-17 -107 -70 -199q-72 -126 -206 -225q-149 -110 -279 -110q-164 0 -164 188q0 177 198 363q195 184 373 184q114 0 162 -196q28 -113 145 -113q114 0 224 131zM96 590q0 108 -84 108q-96 0 -219 -143
q-95 -110 -155 -232q-56 -116 -56 -198q0 -48 23 -81q25 -38 71 -38q51 0 123 54q105 78 198 239q99 169 99 291z" />
    <glyph glyph-name="SF540000" unicode="&#x256a;" 
d="M358 692q-393 -552 -393 -624q0 -54 51 -54q79 0 243.5 144.5t330.5 371.5l10 -8q-130 -182 -271 -323q-209 -209 -341 -209q-117 0 -117 112q0 63 49 136l-4 2q-203 -254 -377 -254q-119 0 -119 102q0 65 39 123l312 467l151 14l-346 -489q-57 -81 -57 -133
q0 -58 49 -58q236 0 637 668z" />
    <glyph glyph-name="SF530000" unicode="&#x256b;" horiz-adv-x="918" 
d="M367 690l-445 -670q377 81 678 523l12 -13q-320 -464 -706 -530q-344 -590 -832 -590q-126 0 -213 48q-108 59 -108 175q0 87 64 142q61 53 149 53q42 0 76 -8l-3 -19q-14 2 -40 2q-65 0 -105 -53q-35 -48 -35 -115q0 -95 65 -150q61 -52 158 -52q208 0 394 173.5
t481 672.5l-6 4q-237 -289 -432 -289q-97 0 -97 98q0 69 60 156l295 430l157 12q-401 -493 -401 -606q0 -57 61 -57q91 0 264 179t349 472z" />
    <glyph glyph-name="lozenge" unicode="&#x25ca;" horiz-adv-x="1012" 
d="M506 1409l-385 -817l385 -825l385 825zM506 1653l500 -1061l-500 -1069l-500 1069z" />
    <glyph glyph-name="circle" unicode="&#x25cb;" horiz-adv-x="1479" 
d="M1423 1871q-29 -87 -29 -156q0 -170 105 -233l-13 -12q-182 70 -182 303l-311 -291l-8 10l368 379h70zM1221 1929l272 411h137l-397 -418z" />
    <glyph glyph-name="H18533" unicode="&#x25cf;" horiz-adv-x="1479" 
d="M1423 1871q-29 -87 -29 -156q0 -170 105 -233l-13 -12q-182 70 -182 303l-311 -291l-8 10l368 379h70zM1423 2339h113q41 -267 43 -444l-18 -5q-76 329 -138 449z" />
    <glyph glyph-name="invbullet" unicode="&#x25d8;" horiz-adv-x="1479" 
d="M1423 1871q-29 -87 -29 -156q0 -170 105 -233l-13 -12q-182 70 -182 303l-311 -291l-8 10l368 379h70zM1479 1764q26 39 95 79q82 47 103 67q49 46 49 115q0 76 -82 76q-42 0 -88 -33q-51 -36 -51 -78q0 -62 50 -62q35 0 75 41l7 -19q-41 -44 -87 -44q-75 0 -75 75
q0 61 58.5 109t128.5 48q54 0 97 -29q48 -32 48 -82q0 -110 -144 -175l-89 -37q-57 -26 -75 -55z" />
    <glyph glyph-name="invcircle" unicode="&#x25d9;" horiz-adv-x="1479" 
d="M1423 1871q-29 -87 -29 -156q0 -170 105 -233l-13 -12q-182 70 -182 303l-311 -291l-8 10l368 379h70zM1232 1931q24 71 46 100q36 45 95 45q41 0 126 -30.5t130 -30.5q62 0 101 84l22 -4q-30 -76 -52 -104q-38 -50 -99 -50q-45 0 -128.5 34t-125.5 34q-71 0 -91 -80z
" />
    <glyph glyph-name="fi" unicode="&#xf001;" horiz-adv-x="920" 
d="M365 690q-392 -575 -392 -635q0 -39 39 -39q112 0 323 214q145 147 265 313l16 -11q-416 -540 -622 -540q-48 0 -77.5 32t-29.5 80q0 74 84 199l232 346h-332l-401 -643q-370 -594 -801 -594q-139 0 -227 46q-113 60 -113 186q0 81 59 134q57 50 139 50q43 0 87 -8
l-4 -14q-7 1 -29 1q-68 0 -110 -46t-42 -115q0 -101 74 -161q69 -56 172 -56q167 0 334 152q164 150 407 538l332 530h-164l19 25h157l183 272q277 412 540 412q74 0 121 -37q51 -41 51 -113q0 -46 -23 -81q-27 -40 -71 -40q-63 0 -63 70q0 68 84 68q12 0 24 -2v14
q0 102 -117 102q-120 0 -244.5 -130.5t-357.5 -534.5h283q73 0 195 16z" />
    <glyph glyph-name="fl" unicode="&#xf002;" 
d="M524 1135q0 7 1 22t1 23q0 129 -96 129q-187 0 -543 -635h340zM805 1380l-760 -1177q-63 -98 -63 -150q0 -43 47 -43q103 0 311 221q136 144 260 314l12 -13q-130 -183 -270 -327q-212 -219 -336 -219q-117 0 -117 106q0 62 76 180l242 377h-336l-401 -643
q-370 -594 -801 -594q-139 0 -227 46q-113 60 -113 186q0 81 59 134q57 50 139 50q43 0 87 -8l-4 -14q-7 1 -29 1q-68 0 -110 -46t-42 -115q0 -101 74 -161q69 -56 172 -56q167 0 334 152q164 150 407 538l332 530h-164l19 25h157l183 272q262 389 471 389q132 0 132 -133
q0 -17 -3 -36l129 202q126 13 133 12z" />
    <glyph glyph-name="glyph275" horiz-adv-x="512" 
 />
    <glyph glyph-name="glyph276" horiz-adv-x="512" 
 />
    <glyph glyph-name="nonbreakingspace" unicode="&#xa0;" horiz-adv-x="1024" 
 />
    <glyph glyph-name="apple" unicode="&#xf000;" horiz-adv-x="1618" 
d="M836 1216q-2 12 -2 37q0 132 101 237q96 99 230 124q2 -20 2 -62q0 -131 -103.5 -234.5t-211.5 -103.5q-3 0 -8.5 1t-7.5 1zM1505 403q-90 -195 -153 -280q-118 -158 -256 -158q-45 0 -128 33t-126 33q-45 0 -129.5 -33t-128.5 -33q-128 0 -259 176q-99 134 -156 296
q-56 155 -56 300q0 211 117 348q124 146 331 146q57 0 150 -34t129 -34q34 0 126 35t148 35q217 0 359 -164q-201 -128 -201 -328q0 -233 233 -338z" />
    <glyph glyph-name="sfthyphen" unicode="&#xad;" horiz-adv-x="682" 
d="M102 383h-460l45 63h450z" />
    <glyph glyph-name="ch270" unicode="&#xb7;" horiz-adv-x="512" 
d="M-68 600q34 0 57 -23t23 -57t-23 -58t-57 -24q-32 0 -57 25t-25 57q0 33 24.5 56.5t57.5 23.5z" />
    <glyph glyph-name="ch270" unicode="&#x2219;" horiz-adv-x="512" 
d="M-68 600q34 0 57 -23t23 -57t-23 -58t-57 -24q-32 0 -57 25t-25 57q0 33 24.5 56.5t57.5 23.5z" />
    <glyph glyph-name="glyph260" horiz-adv-x="1024" 
d="M65 859q26 39 95 79q82 47 103 67q49 46 49 115q0 76 -82 76q-42 0 -88 -33q-51 -36 -51 -78q0 -62 50 -62q35 0 75 41l7 -19q-41 -44 -87 -44q-75 0 -75 75q0 61 58.5 109t128.5 48q54 0 97 -29q48 -32 48 -82q0 -110 -144 -175l-89 -37q-57 -26 -75 -55z" />
    <glyph glyph-name="glyph261" 
d="M338 1241q-29 -87 -29 -156q0 -170 105 -233l-13 -12q-182 70 -182 303l-311 -291l-8 10l368 379h70zM137 1298l272 411h137l-397 -418z" />
    <glyph glyph-name="glyph262" 
d="M338 1241q-29 -87 -29 -156q0 -170 105 -233l-13 -12q-182 70 -182 303l-311 -291l-8 10l368 379h70zM338 1709h113q41 -267 43 -444l-18 -5q-76 329 -138 449z" />
    <glyph glyph-name="glyph263" 
d="M338 1241q-29 -87 -29 -156q0 -170 105 -233l-13 -12q-182 70 -182 303l-311 -291l-8 10l368 379h70zM395 1134q26 39 95 79q82 47 103 67q49 46 49 115q0 76 -82 76q-42 0 -88 -33q-51 -36 -51 -78q0 -62 50 -62q35 0 75 41l7 -19q-41 -44 -87 -44q-75 0 -75 75
q0 61 58.5 109t128.5 48q54 0 97 -29q48 -32 48 -82q0 -110 -144 -175l-89 -37q-57 -26 -75 -55z" />
    <glyph glyph-name="glyph264" 
d="M338 1241q-29 -87 -29 -156q0 -170 105 -233l-13 -12q-182 70 -182 303l-311 -291l-8 10l368 379h70zM147 1301q24 71 46 100q36 45 95 45q41 0 126 -30.5t130 -30.5q62 0 101 84l22 -4q-30 -76 -52 -104q-38 -50 -99 -50q-45 0 -128.5 34t-125.5 34q-71 0 -91 -80z" />
    <glyph glyph-name="glyph265" 
d="M14 1103q52 -139 176 -139q131 0 262 135h14q-129 -193 -288 -193q-141 0 -176 193zM137 1298l272 411h137l-397 -418z" />
    <glyph glyph-name="glyph266" 
d="M14 1103q52 -139 176 -139q131 0 262 135h14q-129 -193 -288 -193q-141 0 -176 193zM197 1709h113q41 -267 43 -444l-18 -5q-76 329 -138 449z" />
    <glyph glyph-name="glyph267" 
d="M168 1134q26 39 95 79q82 47 103 67q49 46 49 115q0 76 -82 76q-42 0 -88 -33q-51 -36 -51 -78q0 -62 50 -62q35 0 75 41l7 -19q-41 -44 -87 -44q-75 0 -75 75q0 61 58.5 109t128.5 48q54 0 97 -29q48 -32 48 -82q0 -110 -144 -175l-89 -37q-57 -26 -75 -55zM14 1103
q52 -139 176 -139q131 0 262 135h14q-129 -193 -288 -193q-141 0 -176 193z" />
    <glyph glyph-name="glyph268" 
d="M147 1301q24 71 46 100q36 45 95 45q41 0 126 -30.5t130 -30.5q62 0 101 84l22 -4q-30 -76 -52 -104q-38 -50 -99 -50q-45 0 -128.5 34t-125.5 34q-71 0 -91 -80zM14 1103q52 -139 176 -139q131 0 262 135h14q-129 -193 -288 -193q-141 0 -176 193z" />
    <glyph glyph-name="glyph269" horiz-adv-x="512" 
 />
    <glyph glyph-name="glyph270" unicode="&#x102;" horiz-adv-x="1479" 
d="M1118 1346q-326 -162 -760 -715h205q219 389 555 715zM1266 1427l10 -10q-278 -308 -475 -610q-285 -435 -285 -698q0 -93 72 -93q103 0 310 215q133 138 261 310l12 -11q-404 -553 -645 -553q-131 0 -131 170q0 184 160 469h-209q-212 -268 -356 -399
q-255 -235 -457 -235q-70 0 -118 26q-62 32 -62 96q0 35 20.5 62t55.5 27q59 0 59 -64q0 -41 -35 -68q37 -41 127 -41q194 0 467 276q83 84 371 437q456 559 848 694zM1073 1701q52 -139 176 -139q131 0 262 135h14q-129 -193 -288 -193q-141 0 -176 193z" />
    <glyph glyph-name="glyph271" unicode="&#x103;" 
d="M147 565l72 117l139 6q-109 -145 -221 -318q-166 -255 -166 -321q0 -45 49 -45q170 0 574 539l12 -11q-401 -552 -606 -552q-47 0 -79 28t-32 74q0 55 56 135l-6 6q-72 -90 -159 -154q-110 -81 -200 -81q-131 0 -131 153q0 72 53 175q73 142 209 255q155 129 295 129
q121 0 141 -135zM86 582q0 104 -82 104q-54 0 -142 -66q-110 -83 -196 -221q-94 -151 -94 -274q0 -94 76 -94q90 0 220 139q106 112 163 222q55 106 55 190zM14 1103q52 -139 176 -139q131 0 262 135h14q-129 -193 -288 -193q-141 0 -176 193z" />
    <glyph glyph-name="glyph272" unicode="&#x128;" horiz-adv-x="1251" 
d="M-131 -27q-134 0 -228 54q-114 66 -114 190q0 115 90 115q78 0 78 -72q0 -76 -63 -76q-7 0 -15 2q24 -198 254 -198q204 0 401 215q123 134 314 455l28 47q315 529 633 636q-528 -5 -841.5 -140t-313.5 -347q0 -77 49.5 -129.5t126.5 -52.5q112 0 206 75q101 80 101 189
q0 24 -16 86l14 6q17 -58 17 -96q0 -122 -114 -204q-103 -73 -230 -73q-108 0 -177 58q-73 62 -73 168q0 124 122 230q283 245 1156 245h6q38 10 75 21q46 12 77 12q38 0 38 -19q0 -30 -87 -35h-109q-11 -1 -46 -23q-163 -102 -451 -562q-248 -397 -361 -517
q-245 -260 -547 -260zM809 1579q24 71 46 100q36 45 95 45q41 0 126 -30.5t130 -30.5q62 0 101 84l22 -4q-30 -76 -52 -104q-38 -50 -99 -50q-45 0 -128.5 34t-125.5 34q-71 0 -91 -80z" />
    <glyph glyph-name="glyph273" unicode="&#x129;" horiz-adv-x="465" 
d="M-90 690q-393 -580 -393 -635q0 -39 41 -39q83 0 251 147q166 144 336 380l17 -11q-418 -540 -623 -540q-47 0 -76.5 32t-29.5 80q0 76 82 199l252 377zM-225 895q24 71 46 100q36 45 95 45q41 0 126 -30.5t130 -30.5q62 0 101 84l22 -4q-30 -76 -52 -104
q-38 -50 -99 -50q-45 0 -128.5 34t-125.5 34q-71 0 -91 -80z" />
    <glyph glyph-name="glyph274" unicode="&#x168;" horiz-adv-x="1706" 
d="M1290 1376l144 8l-623 -960q-141 -217 -141 -324q0 -38 29 -67t67 -29q99 0 276 149t349 390l12 -11q-395 -555 -674 -555q-162 0 -162 166q0 91 74 209q-125 -141 -257 -239q-180 -133 -312 -133q-144 0 -144 149q0 82 85 230q26 44 137 211q413 620 413 706
q0 117 -110 117q-182 0 -375 -168q-199 -173 -199 -351q0 -63 37.5 -109t99.5 -46q103 0 248 158l8 -9q-119 -172 -264 -172q-67 0 -114.5 49.5t-47.5 116.5q0 86 56 189q82 149 245 254q168 110 332 110q189 0 189 -168q0 -93 -281 -516q-177 -266 -206 -314
q-146 -238 -146 -321q0 -35 27.5 -60.5t62.5 -25.5q48 0 147 53q274 146 527 543zM809 1579q24 71 46 100q36 45 95 45q41 0 126 -30.5t130 -30.5q62 0 101 84l22 -4q-30 -76 -52 -104q-38 -50 -99 -50q-45 0 -128.5 34t-125.5 34q-71 0 -91 -80z" />
    <glyph glyph-name="glyph275" unicode="&#x169;" 
d="M358 692q-393 -552 -393 -624q0 -54 51 -54q79 0 243.5 144.5t330.5 371.5l10 -8q-130 -182 -271 -323q-209 -209 -341 -209q-117 0 -117 112q0 63 49 136l-4 2q-203 -254 -377 -254q-119 0 -119 102q0 65 39 123l312 467l151 14l-346 -489q-57 -81 -57 -133
q0 -58 49 -58q236 0 637 668zM-84 895q24 71 46 100q36 45 95 45q41 0 126 -30.5t130 -30.5q62 0 101 84l22 -4q-30 -76 -52 -104q-38 -50 -99 -50q-45 0 -128.5 34t-125.5 34q-71 0 -91 -80z" />
    <glyph glyph-name="glyph276" unicode="&#x1a0;" horiz-adv-x="1593" 
d="M797 438q74 -35 159 -35q175 0 320 127l10 -12q-149 -131 -330 -131q-88 0 -170 37q-136 -180 -289 -298q-199 -153 -374 -153q-289 0 -289 336q0 202 110 411q106 200 301 377q218 198 414 236q86 74 183 74q107 0 165 -84q50 -72 50 -184q0 -338 -260 -701zM748 461
q213 388 213 674q0 249 -150 249q-66 0 -127 -47q193 0 193 -163q0 -29 -5 -52l-12 2q0 7 1 20.5t1 20.5q0 70 -42.5 114t-112.5 44q-21 0 -41 -2q-158 -164 -158 -406q0 -286 240 -454zM645 1317q-194 -59 -358 -246q-131 -149 -226 -358q-104 -229 -104 -406
q0 -301 238 -301q143 0 312 158q126 117 230 282q-262 173 -262 463q0 236 170 408zM887 1099q251 28 305 256q-20 -12 -41 -12q-57 0 -57 66q0 84 80 84q78 0 78 -95q0 -55 -42 -124q-106 -177 -323 -190v15z" />
    <glyph glyph-name="glyph277" unicode="&#x1a1;" horiz-adv-x="891" 
d="M578 543l12 -8q-115 -140 -236 -140q-123 0 -159 125q-17 -107 -70 -199q-72 -126 -206 -225q-149 -110 -279 -110q-164 0 -164 188q0 177 198 363q195 184 373 184q114 0 162 -196q28 -113 145 -113q114 0 224 131zM96 590q0 108 -84 108q-96 0 -219 -143
q-95 -110 -155 -232q-56 -116 -56 -198q0 -48 23 -81q25 -38 71 -38q51 0 123 54q105 78 198 239q99 169 99 291zM59 473q251 28 305 256q-20 -12 -41 -12q-57 0 -57 66q0 84 80 84q78 0 78 -95q0 -55 -42 -124q-106 -177 -323 -190v15z" />
    <glyph glyph-name="glyph278" unicode="&#x1af;" horiz-adv-x="1706" 
d="M1290 1376l144 8l-623 -960q-141 -217 -141 -324q0 -38 29 -67t67 -29q99 0 276 149t349 390l12 -11q-395 -555 -674 -555q-162 0 -162 166q0 91 74 209q-125 -141 -257 -239q-180 -133 -312 -133q-144 0 -144 149q0 82 85 230q26 44 137 211q413 620 413 706
q0 117 -110 117q-182 0 -375 -168q-199 -173 -199 -351q0 -63 37.5 -109t99.5 -46q103 0 248 158l8 -9q-119 -172 -264 -172q-67 0 -114.5 49.5t-47.5 116.5q0 86 56 189q82 149 245 254q168 110 332 110q189 0 189 -168q0 -93 -281 -516q-177 -266 -206 -314
q-146 -238 -146 -321q0 -35 27.5 -60.5t62.5 -25.5q48 0 147 53q274 146 527 543zM1259 1099q251 28 305 256q-20 -12 -41 -12q-57 0 -57 66q0 84 80 84q78 0 78 -95q0 -55 -42 -124q-106 -177 -323 -190v15z" />
    <glyph glyph-name="glyph279" unicode="&#x1b0;" 
d="M358 692q-393 -552 -393 -624q0 -54 51 -54q79 0 243.5 144.5t330.5 371.5l10 -8q-130 -182 -271 -323q-209 -209 -341 -209q-117 0 -117 112q0 63 49 136l-4 2q-203 -254 -377 -254q-119 0 -119 102q0 65 39 123l312 467l151 14l-346 -489q-57 -81 -57 -133
q0 -58 49 -58q236 0 637 668zM119 473q251 28 305 256q-20 -12 -41 -12q-57 0 -57 66q0 84 80 84q78 0 78 -95q0 -55 -42 -124q-106 -177 -323 -190v15z" />
    <glyph glyph-name="glyph280" unicode="&#x1ea0;" horiz-adv-x="1479" 
d="M1118 1346q-326 -162 -760 -715h205q219 389 555 715zM1266 1427l10 -10q-278 -308 -475 -610q-285 -435 -285 -698q0 -93 72 -93q103 0 310 215q133 138 261 310l12 -11q-404 -553 -645 -553q-131 0 -131 170q0 184 160 469h-209q-212 -268 -356 -399
q-255 -235 -457 -235q-70 0 -118 26q-62 32 -62 96q0 35 20.5 62t55.5 27q59 0 59 -64q0 -41 -35 -68q37 -41 127 -41q194 0 467 276q83 84 371 437q456 559 848 694zM-69 -238q33 0 56.5 -23t23.5 -56q0 -34 -23 -57t-57 -23q-33 0 -57.5 23.5t-24.5 56.5q0 32 25 55.5
t57 23.5z" />
    <glyph glyph-name="glyph281" unicode="&#x1ea1;" 
d="M147 565l72 117l139 6q-109 -145 -221 -318q-166 -255 -166 -321q0 -45 49 -45q170 0 574 539l12 -11q-401 -552 -606 -552q-47 0 -79 28t-32 74q0 55 56 135l-6 6q-72 -90 -159 -154q-110 -81 -200 -81q-131 0 -131 153q0 72 53 175q73 142 209 255q155 129 295 129
q121 0 141 -135zM86 582q0 104 -82 104q-54 0 -142 -66q-110 -83 -196 -221q-94 -151 -94 -274q0 -94 76 -94q90 0 220 139q106 112 163 222q55 106 55 190zM-390 -238q33 0 56.5 -23t23.5 -56q0 -34 -23 -57t-57 -23q-33 0 -57.5 23.5t-24.5 56.5q0 32 25 55.5t57 23.5z
" />
    <glyph glyph-name="glyph282" unicode="&#x1ea2;" horiz-adv-x="1479" 
d="M1118 1346q-326 -162 -760 -715h205q219 389 555 715zM1266 1427l10 -10q-278 -308 -475 -610q-285 -435 -285 -698q0 -93 72 -93q103 0 310 215q133 138 261 310l12 -11q-404 -553 -645 -553q-131 0 -131 170q0 184 160 469h-209q-212 -268 -356 -399
q-255 -235 -457 -235q-70 0 -118 26q-62 32 -62 96q0 35 20.5 62t55.5 27q59 0 59 -64q0 -41 -35 -68q37 -41 127 -41q194 0 467 276q83 84 371 437q456 559 848 694zM1243 1534q26 39 95 79q82 47 103 67q49 46 49 115q0 76 -82 76q-42 0 -88 -33q-51 -36 -51 -78
q0 -62 50 -62q35 0 75 41l7 -19q-41 -44 -87 -44q-75 0 -75 75q0 61 58.5 109t128.5 48q54 0 97 -29q48 -32 48 -82q0 -110 -144 -175l-89 -37q-57 -26 -75 -55z" />
    <glyph glyph-name="glyph283" unicode="&#x1ea3;" 
d="M147 565l72 117l139 6q-109 -145 -221 -318q-166 -255 -166 -321q0 -45 49 -45q170 0 574 539l12 -11q-401 -552 -606 -552q-47 0 -79 28t-32 74q0 55 56 135l-6 6q-72 -90 -159 -154q-110 -81 -200 -81q-131 0 -131 153q0 72 53 175q73 142 209 255q155 129 295 129
q121 0 141 -135zM86 582q0 104 -82 104q-54 0 -142 -66q-110 -83 -196 -221q-94 -151 -94 -274q0 -94 76 -94q90 0 220 139q106 112 163 222q55 106 55 190zM65 859q26 39 95 79q82 47 103 67q49 46 49 115q0 76 -82 76q-42 0 -88 -33q-51 -36 -51 -78q0 -62 50 -62
q35 0 75 41l7 -19q-41 -44 -87 -44q-75 0 -75 75q0 61 58.5 109t128.5 48q54 0 97 -29q48 -32 48 -82q0 -110 -144 -175l-89 -37q-57 -26 -75 -55z" />
    <glyph glyph-name="glyph284" unicode="&#x1ea4;" horiz-adv-x="1479" 
d="M1118 1346q-326 -162 -760 -715h205q219 389 555 715zM1266 1427l10 -10q-278 -308 -475 -610q-285 -435 -285 -698q0 -93 72 -93q103 0 310 215q133 138 261 310l12 -11q-404 -553 -645 -553q-131 0 -131 170q0 184 160 469h-209q-212 -268 -356 -399
q-255 -235 -457 -235q-70 0 -118 26q-62 32 -62 96q0 35 20.5 62t55.5 27q59 0 59 -64q0 -41 -35 -68q37 -41 127 -41q194 0 467 276q83 84 371 437q456 559 848 694zM1423 1871q-29 -87 -29 -156q0 -170 105 -233l-13 -12q-182 70 -182 303l-311 -291l-8 10l368 379h70z
M1221 1929l272 411h137l-397 -418z" />
    <glyph glyph-name="glyph285" unicode="&#x1ea5;" 
d="M147 565l72 117l139 6q-109 -145 -221 -318q-166 -255 -166 -321q0 -45 49 -45q170 0 574 539l12 -11q-401 -552 -606 -552q-47 0 -79 28t-32 74q0 55 56 135l-6 6q-72 -90 -159 -154q-110 -81 -200 -81q-131 0 -131 153q0 72 53 175q73 142 209 255q155 129 295 129
q121 0 141 -135zM86 582q0 104 -82 104q-54 0 -142 -66q-110 -83 -196 -221q-94 -151 -94 -274q0 -94 76 -94q90 0 220 139q106 112 163 222q55 106 55 190zM338 1241q-29 -87 -29 -156q0 -170 105 -233l-13 -12q-182 70 -182 303l-311 -291l-8 10l368 379h70zM137 1298
l272 411h137l-397 -418z" />
    <glyph glyph-name="glyph286" unicode="&#x1ea6;" horiz-adv-x="1479" 
d="M1118 1346q-326 -162 -760 -715h205q219 389 555 715zM1266 1427l10 -10q-278 -308 -475 -610q-285 -435 -285 -698q0 -93 72 -93q103 0 310 215q133 138 261 310l12 -11q-404 -553 -645 -553q-131 0 -131 170q0 184 160 469h-209q-212 -268 -356 -399
q-255 -235 -457 -235q-70 0 -118 26q-62 32 -62 96q0 35 20.5 62t55.5 27q59 0 59 -64q0 -41 -35 -68q37 -41 127 -41q194 0 467 276q83 84 371 437q456 559 848 694zM1423 1871q-29 -87 -29 -156q0 -170 105 -233l-13 -12q-182 70 -182 303l-311 -291l-8 10l368 379h70z
M1423 2339h113q41 -267 43 -444l-18 -5q-76 329 -138 449z" />
    <glyph glyph-name="glyph287" unicode="&#x1ea7;" 
d="M147 565l72 117l139 6q-109 -145 -221 -318q-166 -255 -166 -321q0 -45 49 -45q170 0 574 539l12 -11q-401 -552 -606 -552q-47 0 -79 28t-32 74q0 55 56 135l-6 6q-72 -90 -159 -154q-110 -81 -200 -81q-131 0 -131 153q0 72 53 175q73 142 209 255q155 129 295 129
q121 0 141 -135zM86 582q0 104 -82 104q-54 0 -142 -66q-110 -83 -196 -221q-94 -151 -94 -274q0 -94 76 -94q90 0 220 139q106 112 163 222q55 106 55 190zM338 1241q-29 -87 -29 -156q0 -170 105 -233l-13 -12q-182 70 -182 303l-311 -291l-8 10l368 379h70zM338 1709h113
q41 -267 43 -444l-18 -5q-76 329 -138 449z" />
    <glyph glyph-name="glyph288" unicode="&#x1ea8;" horiz-adv-x="1479" 
d="M1118 1346q-326 -162 -760 -715h205q219 389 555 715zM1266 1427l10 -10q-278 -308 -475 -610q-285 -435 -285 -698q0 -93 72 -93q103 0 310 215q133 138 261 310l12 -11q-404 -553 -645 -553q-131 0 -131 170q0 184 160 469h-209q-212 -268 -356 -399
q-255 -235 -457 -235q-70 0 -118 26q-62 32 -62 96q0 35 20.5 62t55.5 27q59 0 59 -64q0 -41 -35 -68q37 -41 127 -41q194 0 467 276q83 84 371 437q456 559 848 694zM1423 1871q-29 -87 -29 -156q0 -170 105 -233l-13 -12q-182 70 -182 303l-311 -291l-8 10l368 379h70z
M1479 1764q26 39 95 79q82 47 103 67q49 46 49 115q0 76 -82 76q-42 0 -88 -33q-51 -36 -51 -78q0 -62 50 -62q35 0 75 41l7 -19q-41 -44 -87 -44q-75 0 -75 75q0 61 58.5 109t128.5 48q54 0 97 -29q48 -32 48 -82q0 -110 -144 -175l-89 -37q-57 -26 -75 -55z" />
    <glyph glyph-name="glyph289" unicode="&#x1ea9;" 
d="M147 565l72 117l139 6q-109 -145 -221 -318q-166 -255 -166 -321q0 -45 49 -45q170 0 574 539l12 -11q-401 -552 -606 -552q-47 0 -79 28t-32 74q0 55 56 135l-6 6q-72 -90 -159 -154q-110 -81 -200 -81q-131 0 -131 153q0 72 53 175q73 142 209 255q155 129 295 129
q121 0 141 -135zM86 582q0 104 -82 104q-54 0 -142 -66q-110 -83 -196 -221q-94 -151 -94 -274q0 -94 76 -94q90 0 220 139q106 112 163 222q55 106 55 190zM338 1241q-29 -87 -29 -156q0 -170 105 -233l-13 -12q-182 70 -182 303l-311 -291l-8 10l368 379h70zM395 1134
q26 39 95 79q82 47 103 67q49 46 49 115q0 76 -82 76q-42 0 -88 -33q-51 -36 -51 -78q0 -62 50 -62q35 0 75 41l7 -19q-41 -44 -87 -44q-75 0 -75 75q0 61 58.5 109t128.5 48q54 0 97 -29q48 -32 48 -82q0 -110 -144 -175l-89 -37q-57 -26 -75 -55z" />
    <glyph glyph-name="glyph290" unicode="&#x1eaa;" horiz-adv-x="1479" 
d="M1118 1346q-326 -162 -760 -715h205q219 389 555 715zM1266 1427l10 -10q-278 -308 -475 -610q-285 -435 -285 -698q0 -93 72 -93q103 0 310 215q133 138 261 310l12 -11q-404 -553 -645 -553q-131 0 -131 170q0 184 160 469h-209q-212 -268 -356 -399
q-255 -235 -457 -235q-70 0 -118 26q-62 32 -62 96q0 35 20.5 62t55.5 27q59 0 59 -64q0 -41 -35 -68q37 -41 127 -41q194 0 467 276q83 84 371 437q456 559 848 694zM1423 1871q-29 -87 -29 -156q0 -170 105 -233l-13 -12q-182 70 -182 303l-311 -291l-8 10l368 379h70z
M1232 1931q24 71 46 100q36 45 95 45q41 0 126 -30.5t130 -30.5q62 0 101 84l22 -4q-30 -76 -52 -104q-38 -50 -99 -50q-45 0 -128.5 34t-125.5 34q-71 0 -91 -80z" />
    <glyph glyph-name="glyph291" unicode="&#x1eab;" 
d="M147 565l72 117l139 6q-109 -145 -221 -318q-166 -255 -166 -321q0 -45 49 -45q170 0 574 539l12 -11q-401 -552 -606 -552q-47 0 -79 28t-32 74q0 55 56 135l-6 6q-72 -90 -159 -154q-110 -81 -200 -81q-131 0 -131 153q0 72 53 175q73 142 209 255q155 129 295 129
q121 0 141 -135zM86 582q0 104 -82 104q-54 0 -142 -66q-110 -83 -196 -221q-94 -151 -94 -274q0 -94 76 -94q90 0 220 139q106 112 163 222q55 106 55 190zM338 1241q-29 -87 -29 -156q0 -170 105 -233l-13 -12q-182 70 -182 303l-311 -291l-8 10l368 379h70zM147 1301
q24 71 46 100q36 45 95 45q41 0 126 -30.5t130 -30.5q62 0 101 84l22 -4q-30 -76 -52 -104q-38 -50 -99 -50q-45 0 -128.5 34t-125.5 34q-71 0 -91 -80z" />
    <glyph glyph-name="glyph292" unicode="&#x1eac;" horiz-adv-x="1479" 
d="M1118 1346q-326 -162 -760 -715h205q219 389 555 715zM1266 1427l10 -10q-278 -308 -475 -610q-285 -435 -285 -698q0 -93 72 -93q103 0 310 215q133 138 261 310l12 -11q-404 -553 -645 -553q-131 0 -131 170q0 184 160 469h-209q-212 -268 -356 -399
q-255 -235 -457 -235q-70 0 -118 26q-62 32 -62 96q0 35 20.5 62t55.5 27q59 0 59 -64q0 -41 -35 -68q37 -41 127 -41q194 0 467 276q83 84 371 437q456 559 848 694zM1423 1871q-29 -87 -29 -156q0 -170 105 -233l-13 -12q-182 70 -182 303l-311 -291l-8 10l368 379h70z
M-69 -238q33 0 56.5 -23t23.5 -56q0 -34 -23 -57t-57 -23q-33 0 -57.5 23.5t-24.5 56.5q0 32 25 55.5t57 23.5z" />
    <glyph glyph-name="glyph293" unicode="&#x1ead;" 
d="M147 565l72 117l139 6q-109 -145 -221 -318q-166 -255 -166 -321q0 -45 49 -45q170 0 574 539l12 -11q-401 -552 -606 -552q-47 0 -79 28t-32 74q0 55 56 135l-6 6q-72 -90 -159 -154q-110 -81 -200 -81q-131 0 -131 153q0 72 53 175q73 142 209 255q155 129 295 129
q121 0 141 -135zM86 582q0 104 -82 104q-54 0 -142 -66q-110 -83 -196 -221q-94 -151 -94 -274q0 -94 76 -94q90 0 220 139q106 112 163 222q55 106 55 190zM338 1241q-29 -87 -29 -156q0 -170 105 -233l-13 -12q-182 70 -182 303l-311 -291l-8 10l368 379h70zM-390 -238
q33 0 56.5 -23t23.5 -56q0 -34 -23 -57t-57 -23q-33 0 -57.5 23.5t-24.5 56.5q0 32 25 55.5t57 23.5z" />
    <glyph glyph-name="glyph294" unicode="&#x1eae;" horiz-adv-x="1479" 
d="M1118 1346q-326 -162 -760 -715h205q219 389 555 715zM1266 1427l10 -10q-278 -308 -475 -610q-285 -435 -285 -698q0 -93 72 -93q103 0 310 215q133 138 261 310l12 -11q-404 -553 -645 -553q-131 0 -131 170q0 184 160 469h-209q-212 -268 -356 -399
q-255 -235 -457 -235q-70 0 -118 26q-62 32 -62 96q0 35 20.5 62t55.5 27q59 0 59 -64q0 -41 -35 -68q37 -41 127 -41q194 0 467 276q83 84 371 437q456 559 848 694zM1073 1701q52 -139 176 -139q131 0 262 135h14q-129 -193 -288 -193q-141 0 -176 193zM1211 1706l272 411
h137l-397 -418z" />
    <glyph glyph-name="glyph295" unicode="&#x1eaf;" 
d="M147 565l72 117l139 6q-109 -145 -221 -318q-166 -255 -166 -321q0 -45 49 -45q170 0 574 539l12 -11q-401 -552 -606 -552q-47 0 -79 28t-32 74q0 55 56 135l-6 6q-72 -90 -159 -154q-110 -81 -200 -81q-131 0 -131 153q0 72 53 175q73 142 209 255q155 129 295 129
q121 0 141 -135zM86 582q0 104 -82 104q-54 0 -142 -66q-110 -83 -196 -221q-94 -151 -94 -274q0 -94 76 -94q90 0 220 139q106 112 163 222q55 106 55 190zM14 1103q52 -139 176 -139q131 0 262 135h14q-129 -193 -288 -193q-141 0 -176 193zM137 1298l272 411h137
l-397 -418z" />
    <glyph glyph-name="glyph296" unicode="&#x1eb0;" horiz-adv-x="1479" 
d="M1118 1346q-326 -162 -760 -715h205q219 389 555 715zM1266 1427l10 -10q-278 -308 -475 -610q-285 -435 -285 -698q0 -93 72 -93q103 0 310 215q133 138 261 310l12 -11q-404 -553 -645 -553q-131 0 -131 170q0 184 160 469h-209q-212 -268 -356 -399
q-255 -235 -457 -235q-70 0 -118 26q-62 32 -62 96q0 35 20.5 62t55.5 27q59 0 59 -64q0 -41 -35 -68q37 -41 127 -41q194 0 467 276q83 84 371 437q456 559 848 694zM1073 1701q52 -139 176 -139q131 0 262 135h14q-129 -193 -288 -193q-141 0 -176 193zM1173 2118h113
q41 -267 43 -444l-18 -5q-76 329 -138 449z" />
    <glyph glyph-name="glyph297" unicode="&#x1eb1;" 
d="M147 565l72 117l139 6q-109 -145 -221 -318q-166 -255 -166 -321q0 -45 49 -45q170 0 574 539l12 -11q-401 -552 -606 -552q-47 0 -79 28t-32 74q0 55 56 135l-6 6q-72 -90 -159 -154q-110 -81 -200 -81q-131 0 -131 153q0 72 53 175q73 142 209 255q155 129 295 129
q121 0 141 -135zM86 582q0 104 -82 104q-54 0 -142 -66q-110 -83 -196 -221q-94 -151 -94 -274q0 -94 76 -94q90 0 220 139q106 112 163 222q55 106 55 190zM14 1103q52 -139 176 -139q131 0 262 135h14q-129 -193 -288 -193q-141 0 -176 193zM197 1709h113q41 -267 43 -444
l-18 -5q-76 329 -138 449z" />
    <glyph glyph-name="glyph298" unicode="&#x1eb2;" horiz-adv-x="1479" 
d="M1118 1346q-326 -162 -760 -715h205q219 389 555 715zM1266 1427l10 -10q-278 -308 -475 -610q-285 -435 -285 -698q0 -93 72 -93q103 0 310 215q133 138 261 310l12 -11q-404 -553 -645 -553q-131 0 -131 170q0 184 160 469h-209q-212 -268 -356 -399
q-255 -235 -457 -235q-70 0 -118 26q-62 32 -62 96q0 35 20.5 62t55.5 27q59 0 59 -64q0 -41 -35 -68q37 -41 127 -41q194 0 467 276q83 84 371 437q456 559 848 694zM1073 1701q52 -139 176 -139q131 0 262 135h14q-129 -193 -288 -193q-141 0 -176 193zM1191 1663
q26 39 95 79q82 47 103 67q49 46 49 115q0 76 -82 76q-42 0 -88 -33q-51 -36 -51 -78q0 -62 50 -62q35 0 75 41l7 -19q-41 -44 -87 -44q-75 0 -75 75q0 61 58.5 109t128.5 48q54 0 97 -29q48 -32 48 -82q0 -110 -144 -175l-89 -37q-57 -26 -75 -55z" />
    <glyph glyph-name="glyph299" unicode="&#x1eb3;" 
d="M147 565l72 117l139 6q-109 -145 -221 -318q-166 -255 -166 -321q0 -45 49 -45q170 0 574 539l12 -11q-401 -552 -606 -552q-47 0 -79 28t-32 74q0 55 56 135l-6 6q-72 -90 -159 -154q-110 -81 -200 -81q-131 0 -131 153q0 72 53 175q73 142 209 255q155 129 295 129
q121 0 141 -135zM86 582q0 104 -82 104q-54 0 -142 -66q-110 -83 -196 -221q-94 -151 -94 -274q0 -94 76 -94q90 0 220 139q106 112 163 222q55 106 55 190zM14 1103q52 -139 176 -139q131 0 262 135h14q-129 -193 -288 -193q-141 0 -176 193zM168 1134q26 39 95 79
q82 47 103 67q49 46 49 115q0 76 -82 76q-42 0 -88 -33q-51 -36 -51 -78q0 -62 50 -62q35 0 75 41l7 -19q-41 -44 -87 -44q-75 0 -75 75q0 61 58.5 109t128.5 48q54 0 97 -29q48 -32 48 -82q0 -110 -144 -175l-89 -37q-57 -26 -75 -55z" />
    <glyph glyph-name="glyph300" unicode="&#x1eb4;" horiz-adv-x="1479" 
d="M1118 1346q-326 -162 -760 -715h205q219 389 555 715zM1266 1427l10 -10q-278 -308 -475 -610q-285 -435 -285 -698q0 -93 72 -93q103 0 310 215q133 138 261 310l12 -11q-404 -553 -645 -553q-131 0 -131 170q0 184 160 469h-209q-212 -268 -356 -399
q-255 -235 -457 -235q-70 0 -118 26q-62 32 -62 96q0 35 20.5 62t55.5 27q59 0 59 -64q0 -41 -35 -68q37 -41 127 -41q194 0 467 276q83 84 371 437q456 559 848 694zM1073 1701q52 -139 176 -139q131 0 262 135h14q-129 -193 -288 -193q-141 0 -176 193zM1169 1755
q24 71 46 100q36 45 95 45q41 0 126 -30.5t130 -30.5q62 0 101 84l22 -4q-30 -76 -52 -104q-38 -50 -99 -50q-45 0 -128.5 34t-125.5 34q-71 0 -91 -80z" />
    <glyph glyph-name="glyph301" unicode="&#x1eb5;" 
d="M147 565l72 117l139 6q-109 -145 -221 -318q-166 -255 -166 -321q0 -45 49 -45q170 0 574 539l12 -11q-401 -552 -606 -552q-47 0 -79 28t-32 74q0 55 56 135l-6 6q-72 -90 -159 -154q-110 -81 -200 -81q-131 0 -131 153q0 72 53 175q73 142 209 255q155 129 295 129
q121 0 141 -135zM86 582q0 104 -82 104q-54 0 -142 -66q-110 -83 -196 -221q-94 -151 -94 -274q0 -94 76 -94q90 0 220 139q106 112 163 222q55 106 55 190zM14 1103q52 -139 176 -139q131 0 262 135h14q-129 -193 -288 -193q-141 0 -176 193zM147 1301q24 71 46 100
q36 45 95 45q41 0 126 -30.5t130 -30.5q62 0 101 84l22 -4q-30 -76 -52 -104q-38 -50 -99 -50q-45 0 -128.5 34t-125.5 34q-71 0 -91 -80z" />
    <glyph glyph-name="glyph302" unicode="&#x1eb6;" horiz-adv-x="1479" 
d="M1118 1346q-326 -162 -760 -715h205q219 389 555 715zM1266 1427l10 -10q-278 -308 -475 -610q-285 -435 -285 -698q0 -93 72 -93q103 0 310 215q133 138 261 310l12 -11q-404 -553 -645 -553q-131 0 -131 170q0 184 160 469h-209q-212 -268 -356 -399
q-255 -235 -457 -235q-70 0 -118 26q-62 32 -62 96q0 35 20.5 62t55.5 27q59 0 59 -64q0 -41 -35 -68q37 -41 127 -41q194 0 467 276q83 84 371 437q456 559 848 694zM1073 1701q52 -139 176 -139q131 0 262 135h14q-129 -193 -288 -193q-141 0 -176 193zM-69 -238
q33 0 56.5 -23t23.5 -56q0 -34 -23 -57t-57 -23q-33 0 -57.5 23.5t-24.5 56.5q0 32 25 55.5t57 23.5z" />
    <glyph glyph-name="glyph303" unicode="&#x1eb7;" 
d="M147 565l72 117l139 6q-109 -145 -221 -318q-166 -255 -166 -321q0 -45 49 -45q170 0 574 539l12 -11q-401 -552 -606 -552q-47 0 -79 28t-32 74q0 55 56 135l-6 6q-72 -90 -159 -154q-110 -81 -200 -81q-131 0 -131 153q0 72 53 175q73 142 209 255q155 129 295 129
q121 0 141 -135zM86 582q0 104 -82 104q-54 0 -142 -66q-110 -83 -196 -221q-94 -151 -94 -274q0 -94 76 -94q90 0 220 139q106 112 163 222q55 106 55 190zM14 1103q52 -139 176 -139q131 0 262 135h14q-129 -193 -288 -193q-141 0 -176 193zM-390 -238q33 0 56.5 -23
t23.5 -56q0 -34 -23 -57t-57 -23q-33 0 -57.5 23.5t-24.5 56.5q0 32 25 55.5t57 23.5z" />
    <glyph glyph-name="glyph304" unicode="&#x1eb8;" horiz-adv-x="1366" 
d="M578 956l4 13q60 -15 90 -15q103 0 179.5 78.5t76.5 181.5q0 86 -53.5 139.5t-139.5 53.5q-108 0 -189 -60.5t-104 -155.5q-7 -28 -15 -167q-6 -99 -43 -151t-150 -105q-184 -88 -253 -153q-108 -103 -108 -267q0 -158 100.5 -254t259.5 -96q164 0 293 101
q140 109 140 268q0 78 -43.5 126t-120.5 48q-123 0 -273 -179l-12 9q153 194 342 194q88 0 143 -44q60 -48 60 -134q0 -138 -137 -254q-115 -96 -267 -138q-98 -26 -208 -26q-177 0 -287 76q-127 88 -127 258q0 173 132 287q61 53 253 150q146 73 164 137q5 19 11 141
q5 118 42 188q57 106 176 164q109 53 238 53q105 0 179 -48q85 -56 85 -156q0 -122 -108 -204q-98 -75 -224 -75q-50 0 -106 16zM-22 -238q33 0 56.5 -23t23.5 -56q0 -34 -23 -57t-57 -23q-33 0 -57.5 23.5t-24.5 56.5q0 32 25 55.5t57 23.5z" />
    <glyph glyph-name="glyph305" unicode="&#x1eb9;" horiz-adv-x="682" 
d="M-352 340q-51 -106 -51 -199q0 -129 112 -129q160 0 373 198q150 140 287 335l14 -10q-147 -218 -320 -366q-229 -196 -430 -196q-75 0 -117 46t-42 122q0 188 187.5 380t375.5 192q110 0 110 -78q0 -132 -499 -295zM-344 358q135 41 236 99q151 87 151 180q0 53 -55 53
q-79 0 -191 -129q-87 -100 -141 -203zM-457 -238q33 0 56.5 -23t23.5 -56q0 -34 -23 -57t-57 -23q-33 0 -57.5 23.5t-24.5 56.5q0 32 25 55.5t57 23.5z" />
    <glyph glyph-name="glyph306" unicode="&#x1eba;" horiz-adv-x="1366" 
d="M578 956l4 13q60 -15 90 -15q103 0 179.5 78.5t76.5 181.5q0 86 -53.5 139.5t-139.5 53.5q-108 0 -189 -60.5t-104 -155.5q-7 -28 -15 -167q-6 -99 -43 -151t-150 -105q-184 -88 -253 -153q-108 -103 -108 -267q0 -158 100.5 -254t259.5 -96q164 0 293 101
q140 109 140 268q0 78 -43.5 126t-120.5 48q-123 0 -273 -179l-12 9q153 194 342 194q88 0 143 -44q60 -48 60 -134q0 -138 -137 -254q-115 -96 -267 -138q-98 -26 -208 -26q-177 0 -287 76q-127 88 -127 258q0 173 132 287q61 53 253 150q146 73 164 137q5 19 11 141
q5 118 42 188q57 106 176 164q109 53 238 53q105 0 179 -48q85 -56 85 -156q0 -122 -108 -204q-98 -75 -224 -75q-50 0 -106 16zM771 1534q26 39 95 79q82 47 103 67q49 46 49 115q0 76 -82 76q-42 0 -88 -33q-51 -36 -51 -78q0 -62 50 -62q35 0 75 41l7 -19
q-41 -44 -87 -44q-75 0 -75 75q0 61 58.5 109t128.5 48q54 0 97 -29q48 -32 48 -82q0 -110 -144 -175l-89 -37q-57 -26 -75 -55z" />
    <glyph glyph-name="glyph307" unicode="&#x1ebb;" horiz-adv-x="682" 
d="M-352 340q-51 -106 -51 -199q0 -129 112 -129q160 0 373 198q150 140 287 335l14 -10q-147 -218 -320 -366q-229 -196 -430 -196q-75 0 -117 46t-42 122q0 188 187.5 380t375.5 192q110 0 110 -78q0 -132 -499 -295zM-344 358q135 41 236 99q151 87 151 180q0 53 -55 53
q-79 0 -191 -129q-87 -100 -141 -203zM-12 859q26 39 95 79q82 47 103 67q49 46 49 115q0 76 -82 76q-42 0 -88 -33q-51 -36 -51 -78q0 -62 50 -62q35 0 75 41l7 -19q-41 -44 -87 -44q-75 0 -75 75q0 61 58.5 109t128.5 48q54 0 97 -29q48 -32 48 -82q0 -110 -144 -175
l-89 -37q-57 -26 -75 -55z" />
    <glyph glyph-name="glyph308" unicode="&#x1ebc;" horiz-adv-x="1366" 
d="M578 956l4 13q60 -15 90 -15q103 0 179.5 78.5t76.5 181.5q0 86 -53.5 139.5t-139.5 53.5q-108 0 -189 -60.5t-104 -155.5q-7 -28 -15 -167q-6 -99 -43 -151t-150 -105q-184 -88 -253 -153q-108 -103 -108 -267q0 -158 100.5 -254t259.5 -96q164 0 293 101
q140 109 140 268q0 78 -43.5 126t-120.5 48q-123 0 -273 -179l-12 9q153 194 342 194q88 0 143 -44q60 -48 60 -134q0 -138 -137 -254q-115 -96 -267 -138q-98 -26 -208 -26q-177 0 -287 76q-127 88 -127 258q0 173 132 287q61 53 253 150q146 73 164 137q5 19 11 141
q5 118 42 188q57 106 176 164q109 53 238 53q105 0 179 -48q85 -56 85 -156q0 -122 -108 -204q-98 -75 -224 -75q-50 0 -106 16zM581 1579q24 71 46 100q36 45 95 45q41 0 126 -30.5t130 -30.5q62 0 101 84l22 -4q-30 -76 -52 -104q-38 -50 -99 -50q-45 0 -128.5 34
t-125.5 34q-71 0 -91 -80z" />
    <glyph glyph-name="glyph309" unicode="&#x1ebd;" horiz-adv-x="682" 
d="M-352 340q-51 -106 -51 -199q0 -129 112 -129q160 0 373 198q150 140 287 335l14 -10q-147 -218 -320 -366q-229 -196 -430 -196q-75 0 -117 46t-42 122q0 188 187.5 380t375.5 192q110 0 110 -78q0 -132 -499 -295zM-344 358q135 41 236 99q151 87 151 180q0 53 -55 53
q-79 0 -191 -129q-87 -100 -141 -203zM-168 895q24 71 46 100q36 45 95 45q41 0 126 -30.5t130 -30.5q62 0 101 84l22 -4q-30 -76 -52 -104q-38 -50 -99 -50q-45 0 -128.5 34t-125.5 34q-71 0 -91 -80z" />
    <glyph glyph-name="glyph310" unicode="&#x1ebe;" horiz-adv-x="1366" 
d="M578 956l4 13q60 -15 90 -15q103 0 179.5 78.5t76.5 181.5q0 86 -53.5 139.5t-139.5 53.5q-108 0 -189 -60.5t-104 -155.5q-7 -28 -15 -167q-6 -99 -43 -151t-150 -105q-184 -88 -253 -153q-108 -103 -108 -267q0 -158 100.5 -254t259.5 -96q164 0 293 101
q140 109 140 268q0 78 -43.5 126t-120.5 48q-123 0 -273 -179l-12 9q153 194 342 194q88 0 143 -44q60 -48 60 -134q0 -138 -137 -254q-115 -96 -267 -138q-98 -26 -208 -26q-177 0 -287 76q-127 88 -127 258q0 173 132 287q61 53 253 150q146 73 164 137q5 19 11 141
q5 118 42 188q57 106 176 164q109 53 238 53q105 0 179 -48q85 -56 85 -156q0 -122 -108 -204q-98 -75 -224 -75q-50 0 -106 16zM946 1871q-29 -87 -29 -156q0 -170 105 -233l-13 -12q-182 70 -182 303l-311 -291l-8 10l368 379h70zM744 1929l272 411h137l-397 -418z" />
    <glyph glyph-name="glyph311" unicode="&#x1ebf;" horiz-adv-x="682" 
d="M-352 340q-51 -106 -51 -199q0 -129 112 -129q160 0 373 198q150 140 287 335l14 -10q-147 -218 -320 -366q-229 -196 -430 -196q-75 0 -117 46t-42 122q0 188 187.5 380t375.5 192q110 0 110 -78q0 -132 -499 -295zM-344 358q135 41 236 99q151 87 151 180q0 53 -55 53
q-79 0 -191 -129q-87 -100 -141 -203zM209 1241q-29 -87 -29 -156q0 -170 105 -233l-13 -12q-182 70 -182 303l-311 -291l-8 10l368 379h70zM7 1298l272 411h137l-397 -418z" />
    <glyph glyph-name="glyph312" unicode="&#x1ec0;" horiz-adv-x="1366" 
d="M578 956l4 13q60 -15 90 -15q103 0 179.5 78.5t76.5 181.5q0 86 -53.5 139.5t-139.5 53.5q-108 0 -189 -60.5t-104 -155.5q-7 -28 -15 -167q-6 -99 -43 -151t-150 -105q-184 -88 -253 -153q-108 -103 -108 -267q0 -158 100.5 -254t259.5 -96q164 0 293 101
q140 109 140 268q0 78 -43.5 126t-120.5 48q-123 0 -273 -179l-12 9q153 194 342 194q88 0 143 -44q60 -48 60 -134q0 -138 -137 -254q-115 -96 -267 -138q-98 -26 -208 -26q-177 0 -287 76q-127 88 -127 258q0 173 132 287q61 53 253 150q146 73 164 137q5 19 11 141
q5 118 42 188q57 106 176 164q109 53 238 53q105 0 179 -48q85 -56 85 -156q0 -122 -108 -204q-98 -75 -224 -75q-50 0 -106 16zM946 1871q-29 -87 -29 -156q0 -170 105 -233l-13 -12q-182 70 -182 303l-311 -291l-8 10l368 379h70zM946 2339h113q41 -267 43 -444l-18 -5
q-76 329 -138 449z" />
    <glyph glyph-name="glyph313" unicode="&#x1ec1;" horiz-adv-x="682" 
d="M-352 340q-51 -106 -51 -199q0 -129 112 -129q160 0 373 198q150 140 287 335l14 -10q-147 -218 -320 -366q-229 -196 -430 -196q-75 0 -117 46t-42 122q0 188 187.5 380t375.5 192q110 0 110 -78q0 -132 -499 -295zM-344 358q135 41 236 99q151 87 151 180q0 53 -55 53
q-79 0 -191 -129q-87 -100 -141 -203zM209 1241q-29 -87 -29 -156q0 -170 105 -233l-13 -12q-182 70 -182 303l-311 -291l-8 10l368 379h70zM209 1709h113q41 -267 43 -444l-18 -5q-76 329 -138 449z" />
    <glyph glyph-name="glyph314" unicode="&#x1ec2;" horiz-adv-x="1366" 
d="M578 956l4 13q60 -15 90 -15q103 0 179.5 78.5t76.5 181.5q0 86 -53.5 139.5t-139.5 53.5q-108 0 -189 -60.5t-104 -155.5q-7 -28 -15 -167q-6 -99 -43 -151t-150 -105q-184 -88 -253 -153q-108 -103 -108 -267q0 -158 100.5 -254t259.5 -96q164 0 293 101
q140 109 140 268q0 78 -43.5 126t-120.5 48q-123 0 -273 -179l-12 9q153 194 342 194q88 0 143 -44q60 -48 60 -134q0 -138 -137 -254q-115 -96 -267 -138q-98 -26 -208 -26q-177 0 -287 76q-127 88 -127 258q0 173 132 287q61 53 253 150q146 73 164 137q5 19 11 141
q5 118 42 188q57 106 176 164q109 53 238 53q105 0 179 -48q85 -56 85 -156q0 -122 -108 -204q-98 -75 -224 -75q-50 0 -106 16zM946 1871q-29 -87 -29 -156q0 -170 105 -233l-13 -12q-182 70 -182 303l-311 -291l-8 10l368 379h70zM1002 1764q26 39 95 79q82 47 103 67
q49 46 49 115q0 76 -82 76q-42 0 -88 -33q-51 -36 -51 -78q0 -62 50 -62q35 0 75 41l7 -19q-41 -44 -87 -44q-75 0 -75 75q0 61 58.5 109t128.5 48q54 0 97 -29q48 -32 48 -82q0 -110 -144 -175l-89 -37q-57 -26 -75 -55z" />
    <glyph glyph-name="glyph315" unicode="&#x1ec3;" horiz-adv-x="682" 
d="M-352 340q-51 -106 -51 -199q0 -129 112 -129q160 0 373 198q150 140 287 335l14 -10q-147 -218 -320 -366q-229 -196 -430 -196q-75 0 -117 46t-42 122q0 188 187.5 380t375.5 192q110 0 110 -78q0 -132 -499 -295zM-344 358q135 41 236 99q151 87 151 180q0 53 -55 53
q-79 0 -191 -129q-87 -100 -141 -203zM209 1241q-29 -87 -29 -156q0 -170 105 -233l-13 -12q-182 70 -182 303l-311 -291l-8 10l368 379h70zM265 1134q26 39 95 79q82 47 103 67q49 46 49 115q0 76 -82 76q-42 0 -88 -33q-51 -36 -51 -78q0 -62 50 -62q35 0 75 41l7 -19
q-41 -44 -87 -44q-75 0 -75 75q0 61 58.5 109t128.5 48q54 0 97 -29q48 -32 48 -82q0 -110 -144 -175l-89 -37q-57 -26 -75 -55z" />
    <glyph glyph-name="glyph316" unicode="&#x1ec4;" horiz-adv-x="1366" 
d="M578 956l4 13q60 -15 90 -15q103 0 179.5 78.5t76.5 181.5q0 86 -53.5 139.5t-139.5 53.5q-108 0 -189 -60.5t-104 -155.5q-7 -28 -15 -167q-6 -99 -43 -151t-150 -105q-184 -88 -253 -153q-108 -103 -108 -267q0 -158 100.5 -254t259.5 -96q164 0 293 101
q140 109 140 268q0 78 -43.5 126t-120.5 48q-123 0 -273 -179l-12 9q153 194 342 194q88 0 143 -44q60 -48 60 -134q0 -138 -137 -254q-115 -96 -267 -138q-98 -26 -208 -26q-177 0 -287 76q-127 88 -127 258q0 173 132 287q61 53 253 150q146 73 164 137q5 19 11 141
q5 118 42 188q57 106 176 164q109 53 238 53q105 0 179 -48q85 -56 85 -156q0 -122 -108 -204q-98 -75 -224 -75q-50 0 -106 16zM946 1871q-29 -87 -29 -156q0 -170 105 -233l-13 -12q-182 70 -182 303l-311 -291l-8 10l368 379h70zM755 1931q24 71 46 100q36 45 95 45
q41 0 126 -30.5t130 -30.5q62 0 101 84l22 -4q-30 -76 -52 -104q-38 -50 -99 -50q-45 0 -128.5 34t-125.5 34q-71 0 -91 -80z" />
    <glyph glyph-name="glyph317" unicode="&#x1ec5;" horiz-adv-x="682" 
d="M-352 340q-51 -106 -51 -199q0 -129 112 -129q160 0 373 198q150 140 287 335l14 -10q-147 -218 -320 -366q-229 -196 -430 -196q-75 0 -117 46t-42 122q0 188 187.5 380t375.5 192q110 0 110 -78q0 -132 -499 -295zM-344 358q135 41 236 99q151 87 151 180q0 53 -55 53
q-79 0 -191 -129q-87 -100 -141 -203zM209 1241q-29 -87 -29 -156q0 -170 105 -233l-13 -12q-182 70 -182 303l-311 -291l-8 10l368 379h70zM18 1301q24 71 46 100q36 45 95 45q41 0 126 -30.5t130 -30.5q62 0 101 84l22 -4q-30 -76 -52 -104q-38 -50 -99 -50
q-45 0 -128.5 34t-125.5 34q-71 0 -91 -80z" />
    <glyph glyph-name="glyph318" unicode="&#x1ec6;" horiz-adv-x="1366" 
d="M578 956l4 13q60 -15 90 -15q103 0 179.5 78.5t76.5 181.5q0 86 -53.5 139.5t-139.5 53.5q-108 0 -189 -60.5t-104 -155.5q-7 -28 -15 -167q-6 -99 -43 -151t-150 -105q-184 -88 -253 -153q-108 -103 -108 -267q0 -158 100.5 -254t259.5 -96q164 0 293 101
q140 109 140 268q0 78 -43.5 126t-120.5 48q-123 0 -273 -179l-12 9q153 194 342 194q88 0 143 -44q60 -48 60 -134q0 -138 -137 -254q-115 -96 -267 -138q-98 -26 -208 -26q-177 0 -287 76q-127 88 -127 258q0 173 132 287q61 53 253 150q146 73 164 137q5 19 11 141
q5 118 42 188q57 106 176 164q109 53 238 53q105 0 179 -48q85 -56 85 -156q0 -122 -108 -204q-98 -75 -224 -75q-50 0 -106 16zM946 1871q-29 -87 -29 -156q0 -170 105 -233l-13 -12q-182 70 -182 303l-311 -291l-8 10l368 379h70zM-22 -238q33 0 56.5 -23t23.5 -56
q0 -34 -23 -57t-57 -23q-33 0 -57.5 23.5t-24.5 56.5q0 32 25 55.5t57 23.5z" />
    <glyph glyph-name="glyph319" unicode="&#x1ec7;" horiz-adv-x="682" 
d="M-352 340q-51 -106 -51 -199q0 -129 112 -129q160 0 373 198q150 140 287 335l14 -10q-147 -218 -320 -366q-229 -196 -430 -196q-75 0 -117 46t-42 122q0 188 187.5 380t375.5 192q110 0 110 -78q0 -132 -499 -295zM-344 358q135 41 236 99q151 87 151 180q0 53 -55 53
q-79 0 -191 -129q-87 -100 -141 -203zM209 1241q-29 -87 -29 -156q0 -170 105 -233l-13 -12q-182 70 -182 303l-311 -291l-8 10l368 379h70zM-457 -238q33 0 56.5 -23t23.5 -56q0 -34 -23 -57t-57 -23q-33 0 -57.5 23.5t-24.5 56.5q0 32 25 55.5t57 23.5z" />
    <glyph glyph-name="glyph320" unicode="&#x1ec8;" horiz-adv-x="1251" 
d="M-131 -27q-134 0 -228 54q-114 66 -114 190q0 115 90 115q78 0 78 -72q0 -76 -63 -76q-7 0 -15 2q24 -198 254 -198q204 0 401 215q123 134 314 455l28 47q315 529 633 636q-528 -5 -841.5 -140t-313.5 -347q0 -77 49.5 -129.5t126.5 -52.5q112 0 206 75q101 80 101 189
q0 24 -16 86l14 6q17 -58 17 -96q0 -122 -114 -204q-103 -73 -230 -73q-108 0 -177 58q-73 62 -73 168q0 124 122 230q283 245 1156 245h6q38 10 75 21q46 12 77 12q38 0 38 -19q0 -30 -87 -35h-109q-11 -1 -46 -23q-163 -102 -451 -562q-248 -397 -361 -517
q-245 -260 -547 -260zM1055 1534q26 39 95 79q82 47 103 67q49 46 49 115q0 76 -82 76q-42 0 -88 -33q-51 -36 -51 -78q0 -62 50 -62q35 0 75 41l7 -19q-41 -44 -87 -44q-75 0 -75 75q0 61 58.5 109t128.5 48q54 0 97 -29q48 -32 48 -82q0 -110 -144 -175l-89 -37
q-57 -26 -75 -55z" />
    <glyph glyph-name="glyph321" unicode="&#x1ec9;" horiz-adv-x="465" 
d="M-90 690q-393 -580 -393 -635q0 -39 41 -39q83 0 251 147q166 144 336 380l17 -11q-418 -540 -623 -540q-47 0 -76.5 32t-29.5 80q0 76 82 199l252 377zM-119 859q26 39 95 79q82 47 103 67q49 46 49 115q0 76 -82 76q-42 0 -88 -33q-51 -36 -51 -78q0 -62 50 -62
q35 0 75 41l7 -19q-41 -44 -87 -44q-75 0 -75 75q0 61 58.5 109t128.5 48q54 0 97 -29q48 -32 48 -82q0 -110 -144 -175l-89 -37q-57 -26 -75 -55z" />
    <glyph glyph-name="glyph322" unicode="&#x1eca;" horiz-adv-x="1251" 
d="M-131 -27q-134 0 -228 54q-114 66 -114 190q0 115 90 115q78 0 78 -72q0 -76 -63 -76q-7 0 -15 2q24 -198 254 -198q204 0 401 215q123 134 314 455l28 47q315 529 633 636q-528 -5 -841.5 -140t-313.5 -347q0 -77 49.5 -129.5t126.5 -52.5q112 0 206 75q101 80 101 189
q0 24 -16 86l14 6q17 -58 17 -96q0 -122 -114 -204q-103 -73 -230 -73q-108 0 -177 58q-73 62 -73 168q0 124 122 230q283 245 1156 245h6q38 10 75 21q46 12 77 12q38 0 38 -19q0 -30 -87 -35h-109q-11 -1 -46 -23q-163 -102 -451 -562q-248 -397 -361 -517
q-245 -260 -547 -260zM-266 -238q33 0 56.5 -23t23.5 -56q0 -34 -23 -57t-57 -23q-33 0 -57.5 23.5t-24.5 56.5q0 32 25 55.5t57 23.5z" />
    <glyph glyph-name="glyph323" unicode="&#x1ecb;" horiz-adv-x="465" 
d="M-90 690q-393 -580 -393 -635q0 -39 41 -39q83 0 251 147q166 144 336 380l17 -11q-418 -540 -623 -540q-47 0 -76.5 32t-29.5 80q0 76 82 199l252 377zM-39 973q0 69 70 69q28 0 49.5 -19.5t21.5 -47.5t-22.5 -50t-50.5 -22q-68 0 -68 70zM-681 -238q33 0 56.5 -23
t23.5 -56q0 -34 -23 -57t-57 -23q-33 0 -57.5 23.5t-24.5 56.5q0 32 25 55.5t57 23.5z" />
    <glyph glyph-name="glyph324" unicode="&#x1ecc;" horiz-adv-x="1593" 
d="M797 438q74 -35 159 -35q175 0 320 127l10 -12q-149 -131 -330 -131q-88 0 -170 37q-136 -180 -289 -298q-199 -153 -374 -153q-289 0 -289 336q0 202 110 411q106 200 301 377q218 198 414 236q86 74 183 74q107 0 165 -84q50 -72 50 -184q0 -338 -260 -701zM748 461
q213 388 213 674q0 249 -150 249q-66 0 -127 -47q193 0 193 -163q0 -29 -5 -52l-12 2q0 7 1 20.5t1 20.5q0 70 -42.5 114t-112.5 44q-21 0 -41 -2q-158 -164 -158 -406q0 -286 240 -454zM645 1317q-194 -59 -358 -246q-131 -149 -226 -358q-104 -229 -104 -406
q0 -301 238 -301q143 0 312 158q126 117 230 282q-262 173 -262 463q0 236 170 408zM-51 -238q33 0 56.5 -23t23.5 -56q0 -34 -23 -57t-57 -23q-33 0 -57.5 23.5t-24.5 56.5q0 32 25 55.5t57 23.5z" />
    <glyph glyph-name="glyph325" unicode="&#x1ecd;" horiz-adv-x="891" 
d="M578 543l12 -8q-115 -140 -236 -140q-123 0 -159 125q-17 -107 -70 -199q-72 -126 -206 -225q-149 -110 -279 -110q-164 0 -164 188q0 177 198 363q195 184 373 184q114 0 162 -196q28 -113 145 -113q114 0 224 131zM96 590q0 108 -84 108q-96 0 -219 -143
q-95 -110 -155 -232q-56 -116 -56 -198q0 -48 23 -81q25 -38 71 -38q51 0 123 54q105 78 198 239q99 169 99 291zM-505 -238q33 0 56.5 -23t23.5 -56q0 -34 -23 -57t-57 -23q-33 0 -57.5 23.5t-24.5 56.5q0 32 25 55.5t57 23.5z" />
    <glyph glyph-name="glyph326" unicode="&#x1ece;" horiz-adv-x="1593" 
d="M797 438q74 -35 159 -35q175 0 320 127l10 -12q-149 -131 -330 -131q-88 0 -170 37q-136 -180 -289 -298q-199 -153 -374 -153q-289 0 -289 336q0 202 110 411q106 200 301 377q218 198 414 236q86 74 183 74q107 0 165 -84q50 -72 50 -184q0 -338 -260 -701zM748 461
q213 388 213 674q0 249 -150 249q-66 0 -127 -47q193 0 193 -163q0 -29 -5 -52l-12 2q0 7 1 20.5t1 20.5q0 70 -42.5 114t-112.5 44q-21 0 -41 -2q-158 -164 -158 -406q0 -286 240 -454zM645 1317q-194 -59 -358 -246q-131 -149 -226 -358q-104 -229 -104 -406
q0 -301 238 -301q143 0 312 158q126 117 230 282q-262 173 -262 463q0 236 170 408zM889 1534q26 39 95 79q82 47 103 67q49 46 49 115q0 76 -82 76q-42 0 -88 -33q-51 -36 -51 -78q0 -62 50 -62q35 0 75 41l7 -19q-41 -44 -87 -44q-75 0 -75 75q0 61 58.5 109t128.5 48
q54 0 97 -29q48 -32 48 -82q0 -110 -144 -175l-89 -37q-57 -26 -75 -55z" />
    <glyph glyph-name="glyph327" unicode="&#x1ecf;" horiz-adv-x="891" 
d="M578 543l12 -8q-115 -140 -236 -140q-123 0 -159 125q-17 -107 -70 -199q-72 -126 -206 -225q-149 -110 -279 -110q-164 0 -164 188q0 177 198 363q195 184 373 184q114 0 162 -196q28 -113 145 -113q114 0 224 131zM96 590q0 108 -84 108q-96 0 -219 -143
q-95 -110 -155 -232q-56 -116 -56 -198q0 -48 23 -81q25 -38 71 -38q51 0 123 54q105 78 198 239q99 169 99 291zM65 859q26 39 95 79q82 47 103 67q49 46 49 115q0 76 -82 76q-42 0 -88 -33q-51 -36 -51 -78q0 -62 50 -62q35 0 75 41l7 -19q-41 -44 -87 -44q-75 0 -75 75
q0 61 58.5 109t128.5 48q54 0 97 -29q48 -32 48 -82q0 -110 -144 -175l-89 -37q-57 -26 -75 -55z" />
    <glyph glyph-name="glyph328" unicode="&#x1ed0;" horiz-adv-x="1593" 
d="M797 438q74 -35 159 -35q175 0 320 127l10 -12q-149 -131 -330 -131q-88 0 -170 37q-136 -180 -289 -298q-199 -153 -374 -153q-289 0 -289 336q0 202 110 411q106 200 301 377q218 198 414 236q86 74 183 74q107 0 165 -84q50 -72 50 -184q0 -338 -260 -701zM748 461
q213 388 213 674q0 249 -150 249q-66 0 -127 -47q193 0 193 -163q0 -29 -5 -52l-12 2q0 7 1 20.5t1 20.5q0 70 -42.5 114t-112.5 44q-21 0 -41 -2q-158 -164 -158 -406q0 -286 240 -454zM645 1317q-194 -59 -358 -246q-131 -149 -226 -358q-104 -229 -104 -406
q0 -301 238 -301q143 0 312 158q126 117 230 282q-262 173 -262 463q0 236 170 408zM1000 1871q-29 -87 -29 -156q0 -170 105 -233l-13 -12q-182 70 -182 303l-311 -291l-8 10l368 379h70zM798 1929l272 411h137l-397 -418z" />
    <glyph glyph-name="glyph329" unicode="&#x1ed1;" horiz-adv-x="891" 
d="M578 543l12 -8q-115 -140 -236 -140q-123 0 -159 125q-17 -107 -70 -199q-72 -126 -206 -225q-149 -110 -279 -110q-164 0 -164 188q0 177 198 363q195 184 373 184q114 0 162 -196q28 -113 145 -113q114 0 224 131zM96 590q0 108 -84 108q-96 0 -219 -143
q-95 -110 -155 -232q-56 -116 -56 -198q0 -48 23 -81q25 -38 71 -38q51 0 123 54q105 78 198 239q99 169 99 291zM242 1241q-29 -87 -29 -156q0 -170 105 -233l-13 -12q-182 70 -182 303l-311 -291l-8 10l368 379h70zM41 1298l272 411h137l-397 -418z" />
    <glyph glyph-name="glyph330" unicode="&#x1ed2;" horiz-adv-x="1593" 
d="M797 438q74 -35 159 -35q175 0 320 127l10 -12q-149 -131 -330 -131q-88 0 -170 37q-136 -180 -289 -298q-199 -153 -374 -153q-289 0 -289 336q0 202 110 411q106 200 301 377q218 198 414 236q86 74 183 74q107 0 165 -84q50 -72 50 -184q0 -338 -260 -701zM748 461
q213 388 213 674q0 249 -150 249q-66 0 -127 -47q193 0 193 -163q0 -29 -5 -52l-12 2q0 7 1 20.5t1 20.5q0 70 -42.5 114t-112.5 44q-21 0 -41 -2q-158 -164 -158 -406q0 -286 240 -454zM645 1317q-194 -59 -358 -246q-131 -149 -226 -358q-104 -229 -104 -406
q0 -301 238 -301q143 0 312 158q126 117 230 282q-262 173 -262 463q0 236 170 408zM1000 1871q-29 -87 -29 -156q0 -170 105 -233l-13 -12q-182 70 -182 303l-311 -291l-8 10l368 379h70zM1001 2339h113q41 -267 43 -444l-18 -5q-76 329 -138 449z" />
    <glyph glyph-name="glyph331" unicode="&#x1ed3;" horiz-adv-x="891" 
d="M578 543l12 -8q-115 -140 -236 -140q-123 0 -159 125q-17 -107 -70 -199q-72 -126 -206 -225q-149 -110 -279 -110q-164 0 -164 188q0 177 198 363q195 184 373 184q114 0 162 -196q28 -113 145 -113q114 0 224 131zM96 590q0 108 -84 108q-96 0 -219 -143
q-95 -110 -155 -232q-56 -116 -56 -198q0 -48 23 -81q25 -38 71 -38q51 0 123 54q105 78 198 239q99 169 99 291zM242 1241q-29 -87 -29 -156q0 -170 105 -233l-13 -12q-182 70 -182 303l-311 -291l-8 10l368 379h70zM243 1709h113q41 -267 43 -444l-18 -5q-76 329 -138 449
z" />
    <glyph glyph-name="glyph332" unicode="&#x1ed4;" horiz-adv-x="1593" 
d="M797 438q74 -35 159 -35q175 0 320 127l10 -12q-149 -131 -330 -131q-88 0 -170 37q-136 -180 -289 -298q-199 -153 -374 -153q-289 0 -289 336q0 202 110 411q106 200 301 377q218 198 414 236q86 74 183 74q107 0 165 -84q50 -72 50 -184q0 -338 -260 -701zM748 461
q213 388 213 674q0 249 -150 249q-66 0 -127 -47q193 0 193 -163q0 -29 -5 -52l-12 2q0 7 1 20.5t1 20.5q0 70 -42.5 114t-112.5 44q-21 0 -41 -2q-158 -164 -158 -406q0 -286 240 -454zM645 1317q-194 -59 -358 -246q-131 -149 -226 -358q-104 -229 -104 -406
q0 -301 238 -301q143 0 312 158q126 117 230 282q-262 173 -262 463q0 236 170 408zM1000 1871q-29 -87 -29 -156q0 -170 105 -233l-13 -12q-182 70 -182 303l-311 -291l-8 10l368 379h70zM1057 1764q26 39 95 79q82 47 103 67q49 46 49 115q0 76 -82 76q-42 0 -88 -33
q-51 -36 -51 -78q0 -62 50 -62q35 0 75 41l7 -19q-41 -44 -87 -44q-75 0 -75 75q0 61 58.5 109t128.5 48q54 0 97 -29q48 -32 48 -82q0 -110 -144 -175l-89 -37q-57 -26 -75 -55z" />
    <glyph glyph-name="glyph333" unicode="&#x1ed5;" horiz-adv-x="891" 
d="M578 543l12 -8q-115 -140 -236 -140q-123 0 -159 125q-17 -107 -70 -199q-72 -126 -206 -225q-149 -110 -279 -110q-164 0 -164 188q0 177 198 363q195 184 373 184q114 0 162 -196q28 -113 145 -113q114 0 224 131zM96 590q0 108 -84 108q-96 0 -219 -143
q-95 -110 -155 -232q-56 -116 -56 -198q0 -48 23 -81q25 -38 71 -38q51 0 123 54q105 78 198 239q99 169 99 291zM242 1241q-29 -87 -29 -156q0 -170 105 -233l-13 -12q-182 70 -182 303l-311 -291l-8 10l368 379h70zM299 1134q26 39 95 79q82 47 103 67q49 46 49 115
q0 76 -82 76q-42 0 -88 -33q-51 -36 -51 -78q0 -62 50 -62q35 0 75 41l7 -19q-41 -44 -87 -44q-75 0 -75 75q0 61 58.5 109t128.5 48q54 0 97 -29q48 -32 48 -82q0 -110 -144 -175l-89 -37q-57 -26 -75 -55z" />
    <glyph glyph-name="glyph334" unicode="&#x1ed6;" horiz-adv-x="1593" 
d="M797 438q74 -35 159 -35q175 0 320 127l10 -12q-149 -131 -330 -131q-88 0 -170 37q-136 -180 -289 -298q-199 -153 -374 -153q-289 0 -289 336q0 202 110 411q106 200 301 377q218 198 414 236q86 74 183 74q107 0 165 -84q50 -72 50 -184q0 -338 -260 -701zM748 461
q213 388 213 674q0 249 -150 249q-66 0 -127 -47q193 0 193 -163q0 -29 -5 -52l-12 2q0 7 1 20.5t1 20.5q0 70 -42.5 114t-112.5 44q-21 0 -41 -2q-158 -164 -158 -406q0 -286 240 -454zM645 1317q-194 -59 -358 -246q-131 -149 -226 -358q-104 -229 -104 -406
q0 -301 238 -301q143 0 312 158q126 117 230 282q-262 173 -262 463q0 236 170 408zM1000 1871q-29 -87 -29 -156q0 -170 105 -233l-13 -12q-182 70 -182 303l-311 -291l-8 10l368 379h70zM810 1931q24 71 46 100q36 45 95 45q41 0 126 -30.5t130 -30.5q62 0 101 84l22 -4
q-30 -76 -52 -104q-38 -50 -99 -50q-45 0 -128.5 34t-125.5 34q-71 0 -91 -80z" />
    <glyph glyph-name="glyph335" unicode="&#x1ed7;" horiz-adv-x="891" 
d="M578 543l12 -8q-115 -140 -236 -140q-123 0 -159 125q-17 -107 -70 -199q-72 -126 -206 -225q-149 -110 -279 -110q-164 0 -164 188q0 177 198 363q195 184 373 184q114 0 162 -196q28 -113 145 -113q114 0 224 131zM96 590q0 108 -84 108q-96 0 -219 -143
q-95 -110 -155 -232q-56 -116 -56 -198q0 -48 23 -81q25 -38 71 -38q51 0 123 54q105 78 198 239q99 169 99 291zM242 1241q-29 -87 -29 -156q0 -170 105 -233l-13 -12q-182 70 -182 303l-311 -291l-8 10l368 379h70zM52 1301q24 71 46 100q36 45 95 45q41 0 126 -30.5
t130 -30.5q62 0 101 84l22 -4q-30 -76 -52 -104q-38 -50 -99 -50q-45 0 -128.5 34t-125.5 34q-71 0 -91 -80z" />
    <glyph glyph-name="glyph336" unicode="&#x1ed8;" horiz-adv-x="1593" 
d="M797 438q74 -35 159 -35q175 0 320 127l10 -12q-149 -131 -330 -131q-88 0 -170 37q-136 -180 -289 -298q-199 -153 -374 -153q-289 0 -289 336q0 202 110 411q106 200 301 377q218 198 414 236q86 74 183 74q107 0 165 -84q50 -72 50 -184q0 -338 -260 -701zM748 461
q213 388 213 674q0 249 -150 249q-66 0 -127 -47q193 0 193 -163q0 -29 -5 -52l-12 2q0 7 1 20.5t1 20.5q0 70 -42.5 114t-112.5 44q-21 0 -41 -2q-158 -164 -158 -406q0 -286 240 -454zM645 1317q-194 -59 -358 -246q-131 -149 -226 -358q-104 -229 -104 -406
q0 -301 238 -301q143 0 312 158q126 117 230 282q-262 173 -262 463q0 236 170 408zM1000 1871q-29 -87 -29 -156q0 -170 105 -233l-13 -12q-182 70 -182 303l-311 -291l-8 10l368 379h70zM-51 -238q33 0 56.5 -23t23.5 -56q0 -34 -23 -57t-57 -23q-33 0 -57.5 23.5
t-24.5 56.5q0 32 25 55.5t57 23.5z" />
    <glyph glyph-name="glyph337" unicode="&#x1ed9;" horiz-adv-x="891" 
d="M578 543l12 -8q-115 -140 -236 -140q-123 0 -159 125q-17 -107 -70 -199q-72 -126 -206 -225q-149 -110 -279 -110q-164 0 -164 188q0 177 198 363q195 184 373 184q114 0 162 -196q28 -113 145 -113q114 0 224 131zM96 590q0 108 -84 108q-96 0 -219 -143
q-95 -110 -155 -232q-56 -116 -56 -198q0 -48 23 -81q25 -38 71 -38q51 0 123 54q105 78 198 239q99 169 99 291zM242 1241q-29 -87 -29 -156q0 -170 105 -233l-13 -12q-182 70 -182 303l-311 -291l-8 10l368 379h70zM-505 -238q33 0 56.5 -23t23.5 -56q0 -34 -23 -57
t-57 -23q-33 0 -57.5 23.5t-24.5 56.5q0 32 25 55.5t57 23.5z" />
    <glyph glyph-name="glyph338" unicode="&#x1eda;" horiz-adv-x="1593" 
d="M797 438q74 -35 159 -35q175 0 320 127l10 -12q-149 -131 -330 -131q-88 0 -170 37q-136 -180 -289 -298q-199 -153 -374 -153q-289 0 -289 336q0 202 110 411q106 200 301 377q218 198 414 236q86 74 183 74q107 0 165 -84q50 -72 50 -184q0 -338 -260 -701zM748 461
q213 388 213 674q0 249 -150 249q-66 0 -127 -47q193 0 193 -163q0 -29 -5 -52l-12 2q0 7 1 20.5t1 20.5q0 70 -42.5 114t-112.5 44q-21 0 -41 -2q-158 -164 -158 -406q0 -286 240 -454zM645 1317q-194 -59 -358 -246q-131 -149 -226 -358q-104 -229 -104 -406
q0 -301 238 -301q143 0 312 158q126 117 230 282q-262 173 -262 463q0 236 170 408zM887 1099q251 28 305 256q-20 -12 -41 -12q-57 0 -57 66q0 84 80 84q78 0 78 -95q0 -55 -42 -124q-106 -177 -323 -190v15zM742 1522l272 411h137l-397 -418z" />
    <glyph glyph-name="glyph339" unicode="&#x1edb;" horiz-adv-x="891" 
d="M578 543l12 -8q-115 -140 -236 -140q-123 0 -159 125q-17 -107 -70 -199q-72 -126 -206 -225q-149 -110 -279 -110q-164 0 -164 188q0 177 198 363q195 184 373 184q114 0 162 -196q28 -113 145 -113q114 0 224 131zM96 590q0 108 -84 108q-96 0 -219 -143
q-95 -110 -155 -232q-56 -116 -56 -198q0 -48 23 -81q25 -38 71 -38q51 0 123 54q105 78 198 239q99 169 99 291zM59 473q251 28 305 256q-20 -12 -41 -12q-57 0 -57 66q0 84 80 84q78 0 78 -95q0 -55 -42 -124q-106 -177 -323 -190v15zM-22 838l272 411h137l-397 -418z" />
    <glyph glyph-name="glyph340" unicode="&#x1edc;" horiz-adv-x="1593" 
d="M797 438q74 -35 159 -35q175 0 320 127l10 -12q-149 -131 -330 -131q-88 0 -170 37q-136 -180 -289 -298q-199 -153 -374 -153q-289 0 -289 336q0 202 110 411q106 200 301 377q218 198 414 236q86 74 183 74q107 0 165 -84q50 -72 50 -184q0 -338 -260 -701zM748 461
q213 388 213 674q0 249 -150 249q-66 0 -127 -47q193 0 193 -163q0 -29 -5 -52l-12 2q0 7 1 20.5t1 20.5q0 70 -42.5 114t-112.5 44q-21 0 -41 -2q-158 -164 -158 -406q0 -286 240 -454zM645 1317q-194 -59 -358 -246q-131 -149 -226 -358q-104 -229 -104 -406
q0 -301 238 -301q143 0 312 158q126 117 230 282q-262 173 -262 463q0 236 170 408zM887 1099q251 28 305 256q-20 -12 -41 -12q-57 0 -57 66q0 84 80 84q78 0 78 -95q0 -55 -42 -124q-106 -177 -323 -190v15zM688 1946h113q41 -267 43 -444l-18 -5q-76 329 -138 449z" />
    <glyph glyph-name="glyph341" unicode="&#x1edd;" horiz-adv-x="891" 
d="M578 543l12 -8q-115 -140 -236 -140q-123 0 -159 125q-17 -107 -70 -199q-72 -126 -206 -225q-149 -110 -279 -110q-164 0 -164 188q0 177 198 363q195 184 373 184q114 0 162 -196q28 -113 145 -113q114 0 224 131zM96 590q0 108 -84 108q-96 0 -219 -143
q-95 -110 -155 -232q-56 -116 -56 -198q0 -48 23 -81q25 -38 71 -38q51 0 123 54q105 78 198 239q99 169 99 291zM59 473q251 28 305 256q-20 -12 -41 -12q-57 0 -57 66q0 84 80 84q78 0 78 -95q0 -55 -42 -124q-106 -177 -323 -190v15zM-76 1262h113q41 -267 43 -444
l-18 -5q-76 329 -138 449z" />
    <glyph glyph-name="glyph342" unicode="&#x1ede;" horiz-adv-x="1593" 
d="M797 438q74 -35 159 -35q175 0 320 127l10 -12q-149 -131 -330 -131q-88 0 -170 37q-136 -180 -289 -298q-199 -153 -374 -153q-289 0 -289 336q0 202 110 411q106 200 301 377q218 198 414 236q86 74 183 74q107 0 165 -84q50 -72 50 -184q0 -338 -260 -701zM748 461
q213 388 213 674q0 249 -150 249q-66 0 -127 -47q193 0 193 -163q0 -29 -5 -52l-12 2q0 7 1 20.5t1 20.5q0 70 -42.5 114t-112.5 44q-21 0 -41 -2q-158 -164 -158 -406q0 -286 240 -454zM645 1317q-194 -59 -358 -246q-131 -149 -226 -358q-104 -229 -104 -406
q0 -301 238 -301q143 0 312 158q126 117 230 282q-262 173 -262 463q0 236 170 408zM887 1099q251 28 305 256q-20 -12 -41 -12q-57 0 -57 66q0 84 80 84q78 0 78 -95q0 -55 -42 -124q-106 -177 -323 -190v15zM889 1534q26 39 95 79q82 47 103 67q49 46 49 115q0 76 -82 76
q-42 0 -88 -33q-51 -36 -51 -78q0 -62 50 -62q35 0 75 41l7 -19q-41 -44 -87 -44q-75 0 -75 75q0 61 58.5 109t128.5 48q54 0 97 -29q48 -32 48 -82q0 -110 -144 -175l-89 -37q-57 -26 -75 -55z" />
    <glyph glyph-name="glyph343" unicode="&#x1edf;" horiz-adv-x="891" 
d="M578 543l12 -8q-115 -140 -236 -140q-123 0 -159 125q-17 -107 -70 -199q-72 -126 -206 -225q-149 -110 -279 -110q-164 0 -164 188q0 177 198 363q195 184 373 184q114 0 162 -196q28 -113 145 -113q114 0 224 131zM96 590q0 108 -84 108q-96 0 -219 -143
q-95 -110 -155 -232q-56 -116 -56 -198q0 -48 23 -81q25 -38 71 -38q51 0 123 54q105 78 198 239q99 169 99 291zM59 473q251 28 305 256q-20 -12 -41 -12q-57 0 -57 66q0 84 80 84q78 0 78 -95q0 -55 -42 -124q-106 -177 -323 -190v15zM65 859q26 39 95 79q82 47 103 67
q49 46 49 115q0 76 -82 76q-42 0 -88 -33q-51 -36 -51 -78q0 -62 50 -62q35 0 75 41l7 -19q-41 -44 -87 -44q-75 0 -75 75q0 61 58.5 109t128.5 48q54 0 97 -29q48 -32 48 -82q0 -110 -144 -175l-89 -37q-57 -26 -75 -55z" />
    <glyph glyph-name="glyph344" unicode="&#x1ee0;" horiz-adv-x="1593" 
d="M797 438q74 -35 159 -35q175 0 320 127l10 -12q-149 -131 -330 -131q-88 0 -170 37q-136 -180 -289 -298q-199 -153 -374 -153q-289 0 -289 336q0 202 110 411q106 200 301 377q218 198 414 236q86 74 183 74q107 0 165 -84q50 -72 50 -184q0 -338 -260 -701zM748 461
q213 388 213 674q0 249 -150 249q-66 0 -127 -47q193 0 193 -163q0 -29 -5 -52l-12 2q0 7 1 20.5t1 20.5q0 70 -42.5 114t-112.5 44q-21 0 -41 -2q-158 -164 -158 -406q0 -286 240 -454zM645 1317q-194 -59 -358 -246q-131 -149 -226 -358q-104 -229 -104 -406
q0 -301 238 -301q143 0 312 158q126 117 230 282q-262 173 -262 463q0 236 170 408zM887 1099q251 28 305 256q-20 -12 -41 -12q-57 0 -57 66q0 84 80 84q78 0 78 -95q0 -55 -42 -124q-106 -177 -323 -190v15zM539 1579q24 71 46 100q36 45 95 45q41 0 126 -30.5t130 -30.5
q62 0 101 84l22 -4q-30 -76 -52 -104q-38 -50 -99 -50q-45 0 -128.5 34t-125.5 34q-71 0 -91 -80z" />
    <glyph glyph-name="glyph345" unicode="&#x1ee1;" horiz-adv-x="891" 
d="M578 543l12 -8q-115 -140 -236 -140q-123 0 -159 125q-17 -107 -70 -199q-72 -126 -206 -225q-149 -110 -279 -110q-164 0 -164 188q0 177 198 363q195 184 373 184q114 0 162 -196q28 -113 145 -113q114 0 224 131zM96 590q0 108 -84 108q-96 0 -219 -143
q-95 -110 -155 -232q-56 -116 -56 -198q0 -48 23 -81q25 -38 71 -38q51 0 123 54q105 78 198 239q99 169 99 291zM59 473q251 28 305 256q-20 -12 -41 -12q-57 0 -57 66q0 84 80 84q78 0 78 -95q0 -55 -42 -124q-106 -177 -323 -190v15zM-225 895q24 71 46 100q36 45 95 45
q41 0 126 -30.5t130 -30.5q62 0 101 84l22 -4q-30 -76 -52 -104q-38 -50 -99 -50q-45 0 -128.5 34t-125.5 34q-71 0 -91 -80z" />
    <glyph glyph-name="glyph346" unicode="&#x1ee2;" horiz-adv-x="1593" 
d="M797 438q74 -35 159 -35q175 0 320 127l10 -12q-149 -131 -330 -131q-88 0 -170 37q-136 -180 -289 -298q-199 -153 -374 -153q-289 0 -289 336q0 202 110 411q106 200 301 377q218 198 414 236q86 74 183 74q107 0 165 -84q50 -72 50 -184q0 -338 -260 -701zM748 461
q213 388 213 674q0 249 -150 249q-66 0 -127 -47q193 0 193 -163q0 -29 -5 -52l-12 2q0 7 1 20.5t1 20.5q0 70 -42.5 114t-112.5 44q-21 0 -41 -2q-158 -164 -158 -406q0 -286 240 -454zM645 1317q-194 -59 -358 -246q-131 -149 -226 -358q-104 -229 -104 -406
q0 -301 238 -301q143 0 312 158q126 117 230 282q-262 173 -262 463q0 236 170 408zM887 1099q251 28 305 256q-20 -12 -41 -12q-57 0 -57 66q0 84 80 84q78 0 78 -95q0 -55 -42 -124q-106 -177 -323 -190v15zM-51 -238q33 0 56.5 -23t23.5 -56q0 -34 -23 -57t-57 -23
q-33 0 -57.5 23.5t-24.5 56.5q0 32 25 55.5t57 23.5z" />
    <glyph glyph-name="glyph347" unicode="&#x1ee3;" horiz-adv-x="891" 
d="M578 543l12 -8q-115 -140 -236 -140q-123 0 -159 125q-17 -107 -70 -199q-72 -126 -206 -225q-149 -110 -279 -110q-164 0 -164 188q0 177 198 363q195 184 373 184q114 0 162 -196q28 -113 145 -113q114 0 224 131zM96 590q0 108 -84 108q-96 0 -219 -143
q-95 -110 -155 -232q-56 -116 -56 -198q0 -48 23 -81q25 -38 71 -38q51 0 123 54q105 78 198 239q99 169 99 291zM59 473q251 28 305 256q-20 -12 -41 -12q-57 0 -57 66q0 84 80 84q78 0 78 -95q0 -55 -42 -124q-106 -177 -323 -190v15zM-505 -238q33 0 56.5 -23t23.5 -56
q0 -34 -23 -57t-57 -23q-33 0 -57.5 23.5t-24.5 56.5q0 32 25 55.5t57 23.5z" />
    <glyph glyph-name="glyph348" unicode="&#x1ee4;" horiz-adv-x="1706" 
d="M1290 1376l144 8l-623 -960q-141 -217 -141 -324q0 -38 29 -67t67 -29q99 0 276 149t349 390l12 -11q-395 -555 -674 -555q-162 0 -162 166q0 91 74 209q-125 -141 -257 -239q-180 -133 -312 -133q-144 0 -144 149q0 82 85 230q26 44 137 211q413 620 413 706
q0 117 -110 117q-182 0 -375 -168q-199 -173 -199 -351q0 -63 37.5 -109t99.5 -46q103 0 248 158l8 -9q-119 -172 -264 -172q-67 0 -114.5 49.5t-47.5 116.5q0 86 56 189q82 149 245 254q168 110 332 110q189 0 189 -168q0 -93 -281 -516q-177 -266 -206 -314
q-146 -238 -146 -321q0 -35 27.5 -60.5t62.5 -25.5q48 0 147 53q274 146 527 543zM146 -238q33 0 56.5 -23t23.5 -56q0 -34 -23 -57t-57 -23q-33 0 -57.5 23.5t-24.5 56.5q0 32 25 55.5t57 23.5z" />
    <glyph glyph-name="glyph349" unicode="&#x1ee5;" 
d="M358 692q-393 -552 -393 -624q0 -54 51 -54q79 0 243.5 144.5t330.5 371.5l10 -8q-130 -182 -271 -323q-209 -209 -341 -209q-117 0 -117 112q0 63 49 136l-4 2q-203 -254 -377 -254q-119 0 -119 102q0 65 39 123l312 467l151 14l-346 -489q-57 -81 -57 -133
q0 -58 49 -58q236 0 637 668zM-505 -238q33 0 56.5 -23t23.5 -56q0 -34 -23 -57t-57 -23q-33 0 -57.5 23.5t-24.5 56.5q0 32 25 55.5t57 23.5z" />
    <glyph glyph-name="glyph350" unicode="&#x1ee6;" horiz-adv-x="1706" 
d="M1290 1376l144 8l-623 -960q-141 -217 -141 -324q0 -38 29 -67t67 -29q99 0 276 149t349 390l12 -11q-395 -555 -674 -555q-162 0 -162 166q0 91 74 209q-125 -141 -257 -239q-180 -133 -312 -133q-144 0 -144 149q0 82 85 230q26 44 137 211q413 620 413 706
q0 117 -110 117q-182 0 -375 -168q-199 -173 -199 -351q0 -63 37.5 -109t99.5 -46q103 0 248 158l8 -9q-119 -172 -264 -172q-67 0 -114.5 49.5t-47.5 116.5q0 86 56 189q82 149 245 254q168 110 332 110q189 0 189 -168q0 -93 -281 -516q-177 -266 -206 -314
q-146 -238 -146 -321q0 -35 27.5 -60.5t62.5 -25.5q48 0 147 53q274 146 527 543zM980 1534q26 39 95 79q82 47 103 67q49 46 49 115q0 76 -82 76q-42 0 -88 -33q-51 -36 -51 -78q0 -62 50 -62q35 0 75 41l7 -19q-41 -44 -87 -44q-75 0 -75 75q0 61 58.5 109t128.5 48
q54 0 97 -29q48 -32 48 -82q0 -110 -144 -175l-89 -37q-57 -26 -75 -55z" />
    <glyph glyph-name="glyph351" unicode="&#x1ee7;" 
d="M358 692q-393 -552 -393 -624q0 -54 51 -54q79 0 243.5 144.5t330.5 371.5l10 -8q-130 -182 -271 -323q-209 -209 -341 -209q-117 0 -117 112q0 63 49 136l-4 2q-203 -254 -377 -254q-119 0 -119 102q0 65 39 123l312 467l151 14l-346 -489q-57 -81 -57 -133
q0 -58 49 -58q236 0 637 668zM65 859q26 39 95 79q82 47 103 67q49 46 49 115q0 76 -82 76q-42 0 -88 -33q-51 -36 -51 -78q0 -62 50 -62q35 0 75 41l7 -19q-41 -44 -87 -44q-75 0 -75 75q0 61 58.5 109t128.5 48q54 0 97 -29q48 -32 48 -82q0 -110 -144 -175l-89 -37
q-57 -26 -75 -55z" />
    <glyph glyph-name="glyph352" unicode="&#x1ee8;" horiz-adv-x="1706" 
d="M1290 1376l144 8l-623 -960q-141 -217 -141 -324q0 -38 29 -67t67 -29q99 0 276 149t349 390l12 -11q-395 -555 -674 -555q-162 0 -162 166q0 91 74 209q-125 -141 -257 -239q-180 -133 -312 -133q-144 0 -144 149q0 82 85 230q26 44 137 211q413 620 413 706
q0 117 -110 117q-182 0 -375 -168q-199 -173 -199 -351q0 -63 37.5 -109t99.5 -46q103 0 248 158l8 -9q-119 -172 -264 -172q-67 0 -114.5 49.5t-47.5 116.5q0 86 56 189q82 149 245 254q168 110 332 110q189 0 189 -168q0 -93 -281 -516q-177 -266 -206 -314
q-146 -238 -146 -321q0 -35 27.5 -60.5t62.5 -25.5q48 0 147 53q274 146 527 543zM1259 1099q251 28 305 256q-20 -12 -41 -12q-57 0 -57 66q0 84 80 84q78 0 78 -95q0 -55 -42 -124q-106 -177 -323 -190v15zM974 1522l272 411h137l-397 -418z" />
    <glyph glyph-name="glyph353" unicode="&#x1ee9;" 
d="M358 692q-393 -552 -393 -624q0 -54 51 -54q79 0 243.5 144.5t330.5 371.5l10 -8q-130 -182 -271 -323q-209 -209 -341 -209q-117 0 -117 112q0 63 49 136l-4 2q-203 -254 -377 -254q-119 0 -119 102q0 65 39 123l312 467l151 14l-346 -489q-57 -81 -57 -133
q0 -58 49 -58q236 0 637 668zM119 473q251 28 305 256q-20 -12 -41 -12q-57 0 -57 66q0 84 80 84q78 0 78 -95q0 -55 -42 -124q-106 -177 -323 -190v15zM-14 838l272 411h137l-397 -418z" />
    <glyph glyph-name="glyph354" unicode="&#x1eea;" horiz-adv-x="1706" 
d="M1290 1376l144 8l-623 -960q-141 -217 -141 -324q0 -38 29 -67t67 -29q99 0 276 149t349 390l12 -11q-395 -555 -674 -555q-162 0 -162 166q0 91 74 209q-125 -141 -257 -239q-180 -133 -312 -133q-144 0 -144 149q0 82 85 230q26 44 137 211q413 620 413 706
q0 117 -110 117q-182 0 -375 -168q-199 -173 -199 -351q0 -63 37.5 -109t99.5 -46q103 0 248 158l8 -9q-119 -172 -264 -172q-67 0 -114.5 49.5t-47.5 116.5q0 86 56 189q82 149 245 254q168 110 332 110q189 0 189 -168q0 -93 -281 -516q-177 -266 -206 -314
q-146 -238 -146 -321q0 -35 27.5 -60.5t62.5 -25.5q48 0 147 53q274 146 527 543zM1259 1099q251 28 305 256q-20 -12 -41 -12q-57 0 -57 66q0 84 80 84q78 0 78 -95q0 -55 -42 -124q-106 -177 -323 -190v15zM867 1946h113q41 -267 43 -444l-18 -5q-76 329 -138 449z" />
    <glyph glyph-name="glyph355" unicode="&#x1eeb;" 
d="M358 692q-393 -552 -393 -624q0 -54 51 -54q79 0 243.5 144.5t330.5 371.5l10 -8q-130 -182 -271 -323q-209 -209 -341 -209q-117 0 -117 112q0 63 49 136l-4 2q-203 -254 -377 -254q-119 0 -119 102q0 65 39 123l312 467l151 14l-346 -489q-57 -81 -57 -133
q0 -58 49 -58q236 0 637 668zM119 473q251 28 305 256q-20 -12 -41 -12q-57 0 -57 66q0 84 80 84q78 0 78 -95q0 -55 -42 -124q-106 -177 -323 -190v15zM-35 1262h113q41 -267 43 -444l-18 -5q-76 329 -138 449z" />
    <glyph glyph-name="glyph356" unicode="&#x1eec;" horiz-adv-x="1706" 
d="M1290 1376l144 8l-623 -960q-141 -217 -141 -324q0 -38 29 -67t67 -29q99 0 276 149t349 390l12 -11q-395 -555 -674 -555q-162 0 -162 166q0 91 74 209q-125 -141 -257 -239q-180 -133 -312 -133q-144 0 -144 149q0 82 85 230q26 44 137 211q413 620 413 706
q0 117 -110 117q-182 0 -375 -168q-199 -173 -199 -351q0 -63 37.5 -109t99.5 -46q103 0 248 158l8 -9q-119 -172 -264 -172q-67 0 -114.5 49.5t-47.5 116.5q0 86 56 189q82 149 245 254q168 110 332 110q189 0 189 -168q0 -93 -281 -516q-177 -266 -206 -314
q-146 -238 -146 -321q0 -35 27.5 -60.5t62.5 -25.5q48 0 147 53q274 146 527 543zM1259 1099q251 28 305 256q-20 -12 -41 -12q-57 0 -57 66q0 84 80 84q78 0 78 -95q0 -55 -42 -124q-106 -177 -323 -190v15zM980 1534q26 39 95 79q82 47 103 67q49 46 49 115q0 76 -82 76
q-42 0 -88 -33q-51 -36 -51 -78q0 -62 50 -62q35 0 75 41l7 -19q-41 -44 -87 -44q-75 0 -75 75q0 61 58.5 109t128.5 48q54 0 97 -29q48 -32 48 -82q0 -110 -144 -175l-89 -37q-57 -26 -75 -55z" />
    <glyph glyph-name="glyph357" unicode="&#x1eed;" 
d="M358 692q-393 -552 -393 -624q0 -54 51 -54q79 0 243.5 144.5t330.5 371.5l10 -8q-130 -182 -271 -323q-209 -209 -341 -209q-117 0 -117 112q0 63 49 136l-4 2q-203 -254 -377 -254q-119 0 -119 102q0 65 39 123l312 467l151 14l-346 -489q-57 -81 -57 -133
q0 -58 49 -58q236 0 637 668zM119 473q251 28 305 256q-20 -12 -41 -12q-57 0 -57 66q0 84 80 84q78 0 78 -95q0 -55 -42 -124q-106 -177 -323 -190v15zM65 859q26 39 95 79q82 47 103 67q49 46 49 115q0 76 -82 76q-42 0 -88 -33q-51 -36 -51 -78q0 -62 50 -62q35 0 75 41
l7 -19q-41 -44 -87 -44q-75 0 -75 75q0 61 58.5 109t128.5 48q54 0 97 -29q48 -32 48 -82q0 -110 -144 -175l-89 -37q-57 -26 -75 -55z" />
    <glyph glyph-name="glyph358" unicode="&#x1eee;" horiz-adv-x="1706" 
d="M1290 1376l144 8l-623 -960q-141 -217 -141 -324q0 -38 29 -67t67 -29q99 0 276 149t349 390l12 -11q-395 -555 -674 -555q-162 0 -162 166q0 91 74 209q-125 -141 -257 -239q-180 -133 -312 -133q-144 0 -144 149q0 82 85 230q26 44 137 211q413 620 413 706
q0 117 -110 117q-182 0 -375 -168q-199 -173 -199 -351q0 -63 37.5 -109t99.5 -46q103 0 248 158l8 -9q-119 -172 -264 -172q-67 0 -114.5 49.5t-47.5 116.5q0 86 56 189q82 149 245 254q168 110 332 110q189 0 189 -168q0 -93 -281 -516q-177 -266 -206 -314
q-146 -238 -146 -321q0 -35 27.5 -60.5t62.5 -25.5q48 0 147 53q274 146 527 543zM1259 1099q251 28 305 256q-20 -12 -41 -12q-57 0 -57 66q0 84 80 84q78 0 78 -95q0 -55 -42 -124q-106 -177 -323 -190v15zM809 1579q24 71 46 100q36 45 95 45q41 0 126 -30.5t130 -30.5
q62 0 101 84l22 -4q-30 -76 -52 -104q-38 -50 -99 -50q-45 0 -128.5 34t-125.5 34q-71 0 -91 -80z" />
    <glyph glyph-name="glyph359" unicode="&#x1eef;" 
d="M358 692q-393 -552 -393 -624q0 -54 51 -54q79 0 243.5 144.5t330.5 371.5l10 -8q-130 -182 -271 -323q-209 -209 -341 -209q-117 0 -117 112q0 63 49 136l-4 2q-203 -254 -377 -254q-119 0 -119 102q0 65 39 123l312 467l151 14l-346 -489q-57 -81 -57 -133
q0 -58 49 -58q236 0 637 668zM119 473q251 28 305 256q-20 -12 -41 -12q-57 0 -57 66q0 84 80 84q78 0 78 -95q0 -55 -42 -124q-106 -177 -323 -190v15zM-84 895q24 71 46 100q36 45 95 45q41 0 126 -30.5t130 -30.5q62 0 101 84l22 -4q-30 -76 -52 -104q-38 -50 -99 -50
q-45 0 -128.5 34t-125.5 34q-71 0 -91 -80z" />
    <glyph glyph-name="glyph360" unicode="&#x1ef0;" horiz-adv-x="1706" 
d="M1290 1376l144 8l-623 -960q-141 -217 -141 -324q0 -38 29 -67t67 -29q99 0 276 149t349 390l12 -11q-395 -555 -674 -555q-162 0 -162 166q0 91 74 209q-125 -141 -257 -239q-180 -133 -312 -133q-144 0 -144 149q0 82 85 230q26 44 137 211q413 620 413 706
q0 117 -110 117q-182 0 -375 -168q-199 -173 -199 -351q0 -63 37.5 -109t99.5 -46q103 0 248 158l8 -9q-119 -172 -264 -172q-67 0 -114.5 49.5t-47.5 116.5q0 86 56 189q82 149 245 254q168 110 332 110q189 0 189 -168q0 -93 -281 -516q-177 -266 -206 -314
q-146 -238 -146 -321q0 -35 27.5 -60.5t62.5 -25.5q48 0 147 53q274 146 527 543zM1259 1099q251 28 305 256q-20 -12 -41 -12q-57 0 -57 66q0 84 80 84q78 0 78 -95q0 -55 -42 -124q-106 -177 -323 -190v15zM146 -238q33 0 56.5 -23t23.5 -56q0 -34 -23 -57t-57 -23
q-33 0 -57.5 23.5t-24.5 56.5q0 32 25 55.5t57 23.5z" />
    <glyph glyph-name="glyph361" unicode="&#x1ef1;" 
d="M358 692q-393 -552 -393 -624q0 -54 51 -54q79 0 243.5 144.5t330.5 371.5l10 -8q-130 -182 -271 -323q-209 -209 -341 -209q-117 0 -117 112q0 63 49 136l-4 2q-203 -254 -377 -254q-119 0 -119 102q0 65 39 123l312 467l151 14l-346 -489q-57 -81 -57 -133
q0 -58 49 -58q236 0 637 668zM119 473q251 28 305 256q-20 -12 -41 -12q-57 0 -57 66q0 84 80 84q78 0 78 -95q0 -55 -42 -124q-106 -177 -323 -190v15zM-505 -238q33 0 56.5 -23t23.5 -56q0 -34 -23 -57t-57 -23q-33 0 -57.5 23.5t-24.5 56.5q0 32 25 55.5t57 23.5z" />
    <glyph glyph-name="glyph362" unicode="&#x1ef2;" horiz-adv-x="1593" 
d="M1358 1370l141 4l-924 -1411q-360 -549 -778 -549q-132 0 -226 58q-110 69 -110 194q0 94 63 161t157 67q103 0 182 -54l-6 -12q-52 37 -113 37q-82 0 -129 -59q-43 -53 -43 -138q0 -109 68 -171t178 -62q212 0 421 237q83 94 293 419q135 208 218 315l-7 4
q-375 -435 -641 -435q-67 0 -105 46q-36 43 -36 112q0 87 117 273l174 254q358 523 358 632q0 94 -112 94q-78 0 -194 -55q-152 -73 -252 -190q-115 -135 -115 -285q0 -139 120 -139q131 0 250 153l12 -10q-127 -162 -268 -162q-76 0 -120 47.5t-44 124.5q0 84 56 182
q85 144 252 248q173 107 335 107q78 0 127 -37q54 -41 54 -117q0 -127 -320 -591l-192 -280q-133 -210 -133 -286q0 -94 88 -94q55 0 169 62q289 156 562 577zM881 1946h113q41 -267 43 -444l-18 -5q-76 329 -138 449z" />
    <glyph glyph-name="glyph363" unicode="&#x1ef3;" horiz-adv-x="918" 
d="M367 690l-445 -670q377 81 678 523l12 -13q-320 -464 -706 -530q-344 -590 -832 -590q-126 0 -213 48q-108 59 -108 175q0 87 64 142q61 53 149 53q42 0 76 -8l-3 -19q-14 2 -40 2q-65 0 -105 -53q-35 -48 -35 -115q0 -95 65 -150q61 -52 158 -52q208 0 394 173.5
t481 672.5l-6 4q-237 -289 -432 -289q-97 0 -97 98q0 69 60 156l295 430l157 12q-401 -493 -401 -606q0 -57 61 -57q91 0 264 179t349 472zM-36 1262h113q41 -267 43 -444l-18 -5q-76 329 -138 449z" />
    <glyph glyph-name="glyph364" unicode="&#x1ef4;" horiz-adv-x="1593" 
d="M1358 1370l141 4l-924 -1411q-360 -549 -778 -549q-132 0 -226 58q-110 69 -110 194q0 94 63 161t157 67q103 0 182 -54l-6 -12q-52 37 -113 37q-82 0 -129 -59q-43 -53 -43 -138q0 -109 68 -171t178 -62q212 0 421 237q83 94 293 419q135 208 218 315l-7 4
q-375 -435 -641 -435q-67 0 -105 46q-36 43 -36 112q0 87 117 273l174 254q358 523 358 632q0 94 -112 94q-78 0 -194 -55q-152 -73 -252 -190q-115 -135 -115 -285q0 -139 120 -139q131 0 250 153l12 -10q-127 -162 -268 -162q-76 0 -120 47.5t-44 124.5q0 84 56 182
q85 144 252 248q173 107 335 107q78 0 127 -37q54 -41 54 -117q0 -127 -320 -591l-192 -280q-133 -210 -133 -286q0 -94 88 -94q55 0 169 62q289 156 562 577zM-4 -238q33 0 56.5 -23t23.5 -56q0 -34 -23 -57t-57 -23q-33 0 -57.5 23.5t-24.5 56.5q0 32 25 55.5t57 23.5z
" />
    <glyph glyph-name="glyph365" unicode="&#x1ef5;" horiz-adv-x="918" 
d="M367 690l-445 -670q377 81 678 523l12 -13q-320 -464 -706 -530q-344 -590 -832 -590q-126 0 -213 48q-108 59 -108 175q0 87 64 142q61 53 149 53q42 0 76 -8l-3 -19q-14 2 -40 2q-65 0 -105 -53q-35 -48 -35 -115q0 -95 65 -150q61 -52 158 -52q208 0 394 173.5
t481 672.5l-6 4q-237 -289 -432 -289q-97 0 -97 98q0 69 60 156l295 430l157 12q-401 -493 -401 -606q0 -57 61 -57q91 0 264 179t349 472zM-655 -238q33 0 56.5 -23t23.5 -56q0 -34 -23 -57t-57 -23q-33 0 -57.5 23.5t-24.5 56.5q0 32 25 55.5t57 23.5z" />
    <glyph glyph-name="glyph366" unicode="&#x1ef6;" horiz-adv-x="1593" 
d="M1358 1370l141 4l-924 -1411q-360 -549 -778 -549q-132 0 -226 58q-110 69 -110 194q0 94 63 161t157 67q103 0 182 -54l-6 -12q-52 37 -113 37q-82 0 -129 -59q-43 -53 -43 -138q0 -109 68 -171t178 -62q212 0 421 237q83 94 293 419q135 208 218 315l-7 4
q-375 -435 -641 -435q-67 0 -105 46q-36 43 -36 112q0 87 117 273l174 254q358 523 358 632q0 94 -112 94q-78 0 -194 -55q-152 -73 -252 -190q-115 -135 -115 -285q0 -139 120 -139q131 0 250 153l12 -10q-127 -162 -268 -162q-76 0 -120 47.5t-44 124.5q0 84 56 182
q85 144 252 248q173 107 335 107q78 0 127 -37q54 -41 54 -117q0 -127 -320 -591l-192 -280q-133 -210 -133 -286q0 -94 88 -94q55 0 169 62q289 156 562 577zM1034 1534q26 39 95 79q82 47 103 67q49 46 49 115q0 76 -82 76q-42 0 -88 -33q-51 -36 -51 -78q0 -62 50 -62
q35 0 75 41l7 -19q-41 -44 -87 -44q-75 0 -75 75q0 61 58.5 109t128.5 48q54 0 97 -29q48 -32 48 -82q0 -110 -144 -175l-89 -37q-57 -26 -75 -55z" />
    <glyph glyph-name="glyph367" unicode="&#x1ef7;" horiz-adv-x="918" 
d="M367 690l-445 -670q377 81 678 523l12 -13q-320 -464 -706 -530q-344 -590 -832 -590q-126 0 -213 48q-108 59 -108 175q0 87 64 142q61 53 149 53q42 0 76 -8l-3 -19q-14 2 -40 2q-65 0 -105 -53q-35 -48 -35 -115q0 -95 65 -150q61 -52 158 -52q208 0 394 173.5
t481 672.5l-6 4q-237 -289 -432 -289q-97 0 -97 98q0 69 60 156l295 430l157 12q-401 -493 -401 -606q0 -57 61 -57q91 0 264 179t349 472zM65 859q26 39 95 79q82 47 103 67q49 46 49 115q0 76 -82 76q-42 0 -88 -33q-51 -36 -51 -78q0 -62 50 -62q35 0 75 41l7 -19
q-41 -44 -87 -44q-75 0 -75 75q0 61 58.5 109t128.5 48q54 0 97 -29q48 -32 48 -82q0 -110 -144 -175l-89 -37q-57 -26 -75 -55z" />
    <glyph glyph-name="glyph368" unicode="&#x1ef8;" horiz-adv-x="1593" 
d="M1358 1370l141 4l-924 -1411q-360 -549 -778 -549q-132 0 -226 58q-110 69 -110 194q0 94 63 161t157 67q103 0 182 -54l-6 -12q-52 37 -113 37q-82 0 -129 -59q-43 -53 -43 -138q0 -109 68 -171t178 -62q212 0 421 237q83 94 293 419q135 208 218 315l-7 4
q-375 -435 -641 -435q-67 0 -105 46q-36 43 -36 112q0 87 117 273l174 254q358 523 358 632q0 94 -112 94q-78 0 -194 -55q-152 -73 -252 -190q-115 -135 -115 -285q0 -139 120 -139q131 0 250 153l12 -10q-127 -162 -268 -162q-76 0 -120 47.5t-44 124.5q0 84 56 182
q85 144 252 248q173 107 335 107q78 0 127 -37q54 -41 54 -117q0 -127 -320 -591l-192 -280q-133 -210 -133 -286q0 -94 88 -94q55 0 169 62q289 156 562 577zM850 1579q24 71 46 100q36 45 95 45q41 0 126 -30.5t130 -30.5q62 0 101 84l22 -4q-30 -76 -52 -104
q-38 -50 -99 -50q-45 0 -128.5 34t-125.5 34q-71 0 -91 -80z" />
    <glyph glyph-name="glyph369" unicode="&#x1ef9;" horiz-adv-x="918" 
d="M367 690l-445 -670q377 81 678 523l12 -13q-320 -464 -706 -530q-344 -590 -832 -590q-126 0 -213 48q-108 59 -108 175q0 87 64 142q61 53 149 53q42 0 76 -8l-3 -19q-14 2 -40 2q-65 0 -105 -53q-35 -48 -35 -115q0 -95 65 -150q61 -52 158 -52q208 0 394 173.5
t481 672.5l-6 4q-237 -289 -432 -289q-97 0 -97 98q0 69 60 156l295 430l157 12q-401 -493 -401 -606q0 -57 61 -57q91 0 264 179t349 472zM-79 895q24 71 46 100q36 45 95 45q41 0 126 -30.5t130 -30.5q62 0 101 84l22 -4q-30 -76 -52 -104q-38 -50 -99 -50
q-45 0 -128.5 34t-125.5 34q-71 0 -91 -80z" />
  </font>
</defs>
</svg>
